
<svg width="1440px" height="800px" viewBox="0 0 1440 800" version="1.1" xmlns="http://www.w3.org/2000/svg" xmlns:xlink="http://www.w3.org/1999/xlink">
    <!-- Generator: Sketch 50.2 (55047) - http://www.bohemiancoding.com/sketch -->
    <desc>Created with Sketch.</desc>
    <defs></defs>
    <g id="Page-1" stroke="none" stroke-width="1" fill="none" fill-rule="evenodd" stroke-linecap="round" stroke-linejoin="round">
        <g id="Artboard-Copy-19" stroke="#E63A66" stroke-width="2">
            <path d="M498.101553,474.415855 C501.158553,473.935855 504.898553,474.267855 507.872553,473.394855 M397.455553,428.864855 C403.367553,432.915855 409.222553,437.063855 415.017553,441.294855 M359.685553,409.060855 C371.359553,412.662855 381.513553,418.463855 391.626553,424.999855 M298.441553,419.183855 C315.445553,410.289855 330.679553,403.363855 351.173553,406.977855 M435.564553,538.558855 C436.601553,538.870855 437.830553,539.202855 438.847553,539.560855 M414.507553,538.835855 C410.478553,537.699855 406.425553,536.872855 402.269553,536.349855 M437.046553,473.335855 C410.542553,465.480855 384.677553,457.337855 356.429553,456.313855 M441.650553,474.697855 C440.841553,474.458855 439.402553,473.967855 438.587553,473.725855 M476.880553,481.914855 C470.072553,481.450855 463.419553,480.419855 456.790553,478.796855 M505.453553,477.545855 C497.433553,480.498855 488.035553,482.103855 479.415553,482.019855 M517.996553,470.892855 C512.404553,473.168855 508.205553,473.969855 502.228553,474.999855 M440.037553,480.364855 C389.058553,470.992855 342.581553,487.576855 294.310553,492.362855 M397.210553,445.932855 C361.470553,413.520855 329.237553,405.997855 284.823553,430.533855 M481.580553,459.157855 C467.869553,470.264855 456.550553,478.730855 437.056553,473.326855 M413.999553,442.192855 C406.833553,436.067855 399.576553,430.147855 391.626553,425.004855 M501.028553,474.784855 C493.491553,478.804855 485.706553,482.466855 476.882553,481.974855 M449.760553,427.536855 C421.122553,449.346855 387.491553,451.676855 355.492553,454.150855 M366.158553,449.573855 C340.580553,438.904855 321.229553,443.756855 298.342553,456.954855 M470.539553,434.475855 C450.396553,453.991855 439.008553,471.165855 407.122553,464.709855 M399.265553,536.093855 C380.453553,538.662855 362.532553,547.832855 343.598553,550.082855 M435.288553,545.151855 C434.732553,544.796855 433.849553,543.912855 433.277553,543.572855 M417.646553,508.533855 C368.945553,503.978855 322.393553,524.148855 272.145553,510.146855 M435.514553,539.345855 C382.459553,526.252855 330.113553,542.235855 277.076553,529.362855 M370.277553,457.622855 C355.058553,458.778855 343.578553,461.728855 329.246553,466.502855 M414.706553,492.776855 C367.216553,488.351855 325.717553,514.457855 276.421553,502.445855 M408.538553,444.581855 C391.404553,428.391855 377.214553,411.538855 351.165553,406.977855 M492.277553,468.888855 C480.951553,476.741855 471.222553,482.226855 456.372553,478.687855 M370.290553,457.622855 C368.639553,457.356855 366.988553,457.100855 365.333553,456.851855 M464.614553,427.879855 C438.307553,452.063855 420.660553,465.229855 384.638553,459.555855 M384.638553,447.962855 C347.310553,419.819855 316.290553,427.650855 278.622553,447.980855 M478.287553,444.035855 C460.880553,460.697855 448.134553,475.828855 420.330553,468.395855 M437.525553,539.914855 C436.913553,539.615855 436.141553,539.219855 435.514553,538.945855 M421.614553,524.111855 C394.995553,520.451855 371.087553,525.588855 345.378553,529.826855 C317.676553,534.394855 294.749553,524.832855 269.521553,518.578855 M402.265553,536.352855 C363.314553,532.042855 326.650553,548.126855 286.937553,539.572855 M433.507553,545.704855 C427.247553,542.940855 421.119553,540.699855 414.509553,538.811855 M493.863553,473.402855 C493.999553,473.247855 494.031553,473.044855 494.029553,472.844855 C494.029553,472.594855 493.964553,472.354855 493.894553,472.117855 C493.650553,471.293855 493.247553,470.534855 492.810553,469.783855 C491.496553,467.522855 489.949553,465.402855 488.158553,463.487855 C486.947553,462.186855 485.617553,460.981855 484.072553,460.102855 C482.929553,459.467855 481.664553,459.009855 480.341553,459.033855 M505.453553,477.545855 C513.173553,474.776855 497.585553,475.272855 493.863553,473.399855 M508.374553,476.330855 C507.767553,476.530855 507.208553,476.855855 506.624553,477.103855 C506.238553,477.269855 505.843553,477.397855 505.447553,477.549855 M509.576553,473.009855 C511.251553,472.539855 512.914553,472.042855 514.581553,471.583855 C515.232553,471.413855 515.884553,471.238855 516.538553,471.102855 C517.074553,470.984855 517.607553,470.887855 518.167553,470.898855 C518.302553,470.900855 518.437553,470.905855 518.550553,470.983855 C518.611553,471.019855 518.667553,471.086855 518.683553,471.153855 C518.716553,471.256855 518.648553,471.368855 518.572553,471.475855 C518.412553,471.677855 518.232553,471.820855 518.035553,471.960855 C517.404553,472.434855 516.695553,472.826855 515.980553,473.179855 C514.929553,473.712855 513.845553,474.178855 512.751553,474.627855 C511.306553,475.218855 509.839553,475.779855 508.374553,476.334855 M507.872553,473.392855 C508.427553,473.197855 508.994553,473.076855 509.576553,473.010855 M442.283553,480.318855 C443.044553,478.195855 442.488553,476.577855 441.656553,474.697855 M416.841553,486.656855 C426.708553,488.044855 432.841553,479.888855 442.279553,480.318855 M417.316553,509.105855 C422.755553,500.841855 409.376553,494.814855 416.841553,486.662855 M420.048553,522.060855 C428.497553,519.597855 420.560553,513.255855 417.316553,509.105855 M440.203553,532.388855 C433.339553,529.222855 425.187553,529.947855 420.048553,522.061855 M436.732553,542.003855 C433.027553,537.413855 438.771553,535.503855 440.203553,532.388855 M433.328553,542.256855 C434.486553,541.191855 435.556553,542.771855 436.732553,542.003855 M433.277553,545.265855 C434.988553,546.306855 432.435553,543.334855 433.328553,542.256855 M436.083553,546.928855 C435.205553,546.260855 433.810553,546.676855 433.277553,545.265855 M436.097553,542.179855 C435.068553,543.891855 434.747553,545.204855 436.083553,546.929855 M437.706553,539.530855 C437.369553,540.278855 436.955553,540.962855 436.455553,541.610855 M447.234553,543.163855 C442.662553,544.853855 440.839553,540.849855 437.706553,539.530855 M438.847553,539.560855 C441.738553,540.561855 444.521553,541.750855 447.228553,543.163855 M395.011553,538.070855 C397.425553,537.493855 399.837553,536.918855 402.251553,536.357855 M386.080553,542.937855 C388.772553,540.640855 392.365553,540.478855 395.011553,538.074855 M373.017553,545.049855 C377.494553,544.886855 381.788553,544.390855 386.083553,542.937855 M360.357553,547.636855 C365.005553,548.052855 368.869553,546.363855 373.017553,545.050855 M354.187553,550.796855 C356.427553,550.035855 358.287553,548.662855 360.357553,547.636855 M339.814553,549.100855 C344.582553,550.637855 349.261553,550.965855 354.185553,550.797855 M333.205553,550.351855 C335.365553,549.546855 337.613553,549.525855 339.813553,549.100855 M321.197553,551.615855 C325.336553,551.894855 328.951553,549.638855 333.203553,550.351855 M284.224553,538.176855 C295.949553,544.810855 309.400553,545.299855 321.197553,551.620855 M275.412553,526.524855 C277.154553,531.561855 282.749553,532.848855 284.225553,538.176855 M269.226553,523.363855 C270.990553,525.257855 273.208553,525.703855 275.412553,526.524855 M273.085553,523.174855 C271.804553,523.269855 268.473553,520.900855 269.223553,523.361855 M267.072553,519.137855 C266.092553,523.544855 275.404553,518.956855 273.088553,523.172855 M278.406553,514.899855 C274.580553,516.205855 271.240553,518.533855 267.072553,519.137855 M271.124553,508.533855 C272.716553,511.923855 276.020553,512.718855 278.405553,514.904855 M289.232553,496.214855 C280.673553,497.521855 275.980553,502.111855 271.125553,508.533855 M302.669553,484.853855 C300.016553,491.503855 293.028553,491.461855 289.231553,496.214855 M302.646553,481.140855 C301.742553,482.494855 303.466553,483.509855 302.675553,484.853855 M318.427553,473.734855 C314.890553,481.041855 308.292553,479.378855 302.646553,481.140855 M323.550553,473.267855 C321.808553,474.329855 320.171553,472.855855 318.427553,473.738855 M326.046553,468.173855 C325.222553,469.871855 324.390553,471.568855 323.552553,473.261855 M328.031553,456.824855 C324.859553,460.495855 333.665553,468.806855 326.047553,468.172855 M326.775553,456.175855 C327.166553,456.442855 327.582553,456.664855 328.031553,456.822855 M300.777553,418.015855 C302.441553,417.223855 304.121553,416.496855 305.832553,415.823855 M292.941553,422.126855 C294.755553,421.109855 296.591553,420.125855 298.437553,419.177855 M275.576553,465.438855 C279.497553,450.117855 277.027553,433.937855 292.941553,422.126855 M297.208553,455.938855 C290.690553,461.368855 283.257553,463.186855 275.576553,465.437855 M299.738553,457.018855 C298.458553,457.529855 297.912553,456.800855 297.208553,455.934855 M298.312553,462.105855 C297.164553,459.820855 301.408553,459.311855 299.740553,457.019855 M302.181553,468.680855 C303.423553,464.902855 302.882553,461.794855 298.312553,462.106855 M309.876553,466.281855 C307.414553,467.532855 304.706553,467.729855 302.177553,468.681855 M319.888553,458.938855 C318.126553,464.160855 312.962553,463.449855 309.876553,466.281855 M347.880553,451.413855 C347.374553,451.537855 346.849553,451.614855 346.337553,451.694855 C343.933553,452.052855 341.525553,452.362855 339.140553,452.795855 C337.091553,453.171855 335.060553,453.631855 333.054553,454.175855 C331.044553,454.723855 329.050553,455.349855 327.095553,456.055855 C326.050553,456.427855 325.015553,456.824855 323.993553,457.234855 C322.860553,457.694855 321.741553,458.175855 320.614553,458.642855 C320.372553,458.748855 320.138553,458.850855 319.893553,458.938855 M355.492553,452.785855 C352.728553,452.505855 350.626553,451.768855 347.880553,451.413855 M362.017553,456.593855 C363.122553,456.670855 364.222553,456.759855 365.330553,456.854855 M352.980553,456.123855 C350.738553,456.652855 355.271553,456.266855 356.429553,456.291855 M356.564553,451.140855 C355.193553,452.689855 356.269553,455.965855 352.980553,456.123855 M375.755553,445.808855 C369.509553,448.284855 363.747553,451.288855 356.560553,451.140855 M411.121553,444.794855 C409.830553,444.634855 408.531553,444.551855 407.232553,444.548855 C405.867553,444.533855 404.503553,444.616855 403.146553,444.781855 C401.915553,444.936855 400.693553,445.151855 399.482553,445.403855 C396.568553,446.025855 393.716553,446.886855 390.790553,447.434855 C389.285553,447.720855 387.749553,447.917855 386.214553,447.970855 C384.479553,448.019855 382.746553,447.885855 381.040553,447.544855 C379.221553,447.177855 377.445553,446.584855 375.755553,445.803855 M417.900553,438.521855 C415.773553,440.767855 413.242553,442.539855 411.121553,444.797855 M429.658553,434.262855 C426.388553,438.540855 421.785553,436.995855 417.900553,438.524855 M434.417553,427.536855 C431.634553,429.150855 430.203553,431.044855 429.662553,434.265855 M471.966553,438.914855 C466.779553,416.603855 446.630553,432.535855 434.415553,427.536855 M476.910553,436.543855 C474.540553,436.194855 474.455553,439.519855 471.970553,438.914855 M480.437553,447.645855 C478.304553,444.139855 476.046553,441.208855 476.910553,436.546855 M480.339553,459.035855 C472.749553,459.169855 478.792553,451.645855 480.437553,447.645855" id="Stroke-1"></path>
        </g>
    </g>
</svg>