
<svg width="1440px" height="800px" viewBox="0 0 1440 800" version="1.1" xmlns="http://www.w3.org/2000/svg" xmlns:xlink="http://www.w3.org/1999/xlink">
    <!-- Generator: Sketch 50.2 (55047) - http://www.bohemiancoding.com/sketch -->
    <desc>Created with Sketch.</desc>
    <defs></defs>
    <g id="Page-1" stroke="none" stroke-width="1" fill="none" fill-rule="evenodd" stroke-linecap="round" stroke-linejoin="round">
        <g id="isla-1-original" stroke="#E63A66" stroke-width="2.179">
            <path d="M235.006393,143.904662 C243.260393,136.353662 258.356393,129.324662 269.002393,125.682662 M214.399393,167.019662 C219.734393,160.076662 225.229393,153.355662 231.500393,147.204662 M209.272393,173.647662 C206.563393,176.436662 211.670393,170.585662 212.854393,169.040662 M296.676393,213.211662 C273.155393,209.508662 258.445393,197.383662 240.144393,184.669662 M125.792393,337.806662 C115.136393,340.211662 105.071393,339.681662 94.4863931,337.933662 M158.035393,320.650662 C148.617393,327.582662 137.556393,335.138662 125.952393,337.774662 M170.093393,139.756662 C171.486393,140.252662 172.866393,140.786662 174.235393,141.352662 C175.750393,141.972662 177.244393,142.637662 178.733393,143.326662 C181.961393,144.830662 185.118393,146.478662 188.229393,148.220662 C191.550393,150.081662 194.815393,152.040662 198.038393,154.056662 C203.227393,157.306662 210.471393,162.197662 215.614393,165.510662 M254.721393,163.483662 C264.547393,171.606662 269.951393,178.459662 278.430393,187.781662 M180.318393,224.471662 C192.256393,205.653662 200.622393,184.921662 214.399393,167.018662 M111.126393,291.699662 C126.554393,280.112662 143.326393,268.597662 157.022393,254.679662 M74.8293931,313.459662 C78.4653931,312.265662 84.5783931,312.136662 90.9323931,307.142662 M282.821393,126.634662 C289.340393,129.452662 295.012393,133.825662 300.336393,138.345662 M135.982393,307.140662 C158.476393,276.804662 180.639393,249.994662 199.983393,217.411662 C209.797393,200.883662 244.680393,133.899662 269.002393,125.683662 M283.451393,123.747662 C297.756393,111.587662 312.295393,111.619662 329.250393,115.468662 M278.430393,187.781662 C280.948393,185.774662 284.219393,181.835662 286.318393,179.407662 M187.551393,185.790662 C193.450393,174.847662 197.616393,165.263662 212.891393,169.054662 M160.324393,243.859662 C169.285393,229.143662 176.491393,211.068662 183.324393,195.467662 M90.9323931,307.140662 C110.693393,317.355662 130.558393,331.313662 157.435393,321.091662 M149.153393,321.091662 C176.615393,288.910662 194.746393,253.665662 215.665393,217.670662 C228.045393,196.369662 249.469393,133.406662 282.821393,126.634662 M81.0483931,325.684662 C97.2743931,332.664662 105.227393,342.009662 125.954393,337.774662 M292.260393,208.235662 C294.115393,207.584662 297.105393,205.399662 299.069393,203.987662 M242.484393,179.407662 C254.303393,188.748662 260.446393,199.857662 274.979393,206.449662 M167.244393,240.584662 C182.604393,218.864662 186.240393,191.414662 209.586393,173.220662 M275.561393,150.028662 C285.955393,159.404662 293.541393,168.994662 302.732393,179.407662 M125.195393,294.758662 C146.442393,271.334662 167.615393,251.338662 185.071393,224.325662 C202.205393,197.812662 209.631393,166.605662 235.002393,143.891662 M174.466393,160.099662 C188.585393,139.861662 201.834393,156.771662 215.613393,165.509662 M92.6373931,317.975662 C92.1633931,310.790662 94.9153931,305.706662 98.6953931,300.144662 M70.0573931,325.683662 C79.1563931,326.269662 86.3513931,326.347662 92.6393931,317.974662 M94.4903931,337.920662 C84.7053931,336.319662 68.9193931,342.502662 70.0583931,325.685662 M81.1483931,318.254662 C77.6403931,319.840662 68.5073931,319.809662 73.0923931,325.248662 M74.0623931,312.468662 C74.8183931,316.752662 81.8903931,313.025662 81.1443931,318.254662 M79.5683931,308.578662 C78.2473931,310.875662 75.9673931,311.271662 74.0563931,312.474662 M90.9323931,307.140662 C88.4203931,307.258662 82.0513931,308.957662 79.5713931,308.576662 M92.3293931,302.116662 C92.6193931,302.711662 95.6103931,303.968662 96.0703931,304.299662 M96.6513931,297.597662 C98.5713931,301.084662 94.0103931,300.812662 92.3293931,302.116662 M86.3953931,303.496662 C86.6893931,303.425662 86.9783931,303.343662 87.2683931,303.254662 C87.4913931,303.186662 87.7143931,303.109662 87.9383931,303.027662 C88.4153931,302.847662 88.8833931,302.634662 89.3193931,302.379662 C89.6883931,302.163662 90.0383931,301.910662 90.3643931,301.636662 C90.9683931,301.121662 91.4893931,300.509662 92.0813931,299.990662 C92.4143931,299.689662 92.7773931,299.420662 93.1523931,299.177662 C94.2273931,298.483662 95.4443931,298.019662 96.6503931,297.600662 M84.5783931,300.707662 C86.4513931,300.739662 84.5143931,303.472662 86.3953931,303.497662 M109.318393,288.808662 C115.793393,295.259662 101.111393,292.827662 96.9363931,294.675662 C92.7313931,296.528662 88.5163931,298.279662 84.5783931,300.705662 M108.165393,289.209662 C108.513393,289.043662 108.870393,288.908662 109.248393,288.804662 M107.985393,289.291662 C107.888393,289.336662 105.311393,290.953662 105.503393,290.861662 M181.799393,226.015662 C179.890393,243.148662 167.266393,246.149662 157.023393,254.679662 M190.619393,208.081662 C202.011393,201.151662 185.465393,220.342662 181.798393,226.017662 M187.074393,213.357662 C188.235393,211.581662 189.421393,209.829662 190.619393,208.081662 M178.524393,226.396662 C184.105393,235.164662 186.954393,220.025662 187.070393,213.358662 M160.319393,243.861662 C158.636393,251.015662 167.022393,240.936662 169.449393,237.660662 C172.330393,233.773662 179.130393,216.698662 178.520393,226.347662 M180.852393,194.379662 C166.861393,208.886662 164.688393,225.955662 160.376393,243.645662 M189.625393,186.831662 C189.777393,192.996662 187.143393,198.147662 180.854393,194.382662 M179.051393,188.215662 C182.555393,186.723662 185.410393,184.439662 189.623393,186.829662 M170.088393,139.764662 C155.768393,134.581662 170.543393,154.905662 175.794393,161.879662 C182.423393,170.706662 169.754393,179.731662 179.048393,188.216662 M317.545393,112.411662 C299.739393,108.493662 284.824393,103.836662 274.213393,124.303662 M341.850393,118.636662 C333.660393,116.872662 325.686393,114.338662 317.543393,112.410662 M296.930393,126.634662 C301.834393,122.630662 322.887393,121.120662 313.071393,113.217662 M304.608393,213.211662 C304.838393,200.538662 288.160393,204.461662 287.687393,192.290662 C287.330393,183.052662 285.408393,174.171662 283.641393,165.189662 M294.100393,209.407662 C296.290393,214.750662 299.606393,215.270662 304.608393,213.209662 M282.565393,163.727662 C276.900393,182.719662 273.777393,197.383662 294.101393,209.410662 M299.137393,135.621662 C305.331393,147.660662 312.516393,157.615662 307.479393,172.891662 C301.936393,189.691662 289.584393,172.445662 282.565393,163.727662 M289.823393,123.864662 C297.575393,124.343662 309.111393,136.446662 299.135393,135.625662 M269.002393,125.683662 C274.865393,123.479662 283.668393,123.800662 289.654393,123.864662 M289.823393,123.864662 C285.754393,124.179662 283.578393,124.966662 279.819393,126.041662 C276.022393,127.133662 265.840393,132.166662 269.002393,125.683662 M282.334393,142.919662 C274.502393,131.457662 277.564393,125.777662 289.823393,123.864662 M264.016393,159.684662 C268.598393,151.970662 277.694393,150.541662 282.336393,142.921662 M257.861393,159.091662 C260.215393,157.969662 261.951393,159.626662 264.018393,159.685662 M203.521393,264.191662 C211.445393,256.468662 208.163393,246.443662 212.469393,238.101662 C217.188393,228.976662 222.235393,220.050662 227.289393,211.117662 C237.194393,193.610662 241.461393,173.744662 257.856393,159.094662 M197.650393,261.709662 C200.125393,261.670662 204.205393,260.108662 203.521393,264.191662 M168.978393,303.334662 C172.505393,295.650662 176.369393,288.156662 180.355393,280.711662 C184.639393,272.709662 194.445393,271.104662 197.648393,261.709662 M172.979393,302.061662 C172.914393,302.031662 172.846393,302.006662 172.773393,301.994662 C172.695393,301.972662 172.616393,301.961662 172.533393,301.959662 C172.359393,301.955662 172.181393,301.988662 172.016393,302.043662 C171.813393,302.109662 171.620393,302.192662 171.428393,302.291662 C170.903393,302.571662 170.422393,302.924662 169.872393,303.161662 C169.592393,303.285662 169.289393,303.375662 168.972393,303.336662 M167.067393,310.986662 C170.052393,308.524662 175.898393,307.649662 172.979393,302.061662 M165.649393,314.195662 C166.431393,313.220662 166.317393,311.966662 167.067393,310.988662 M108.548393,292.170662 C136.226393,281.252662 140.383393,343.115662 165.648393,314.193662 M98.6963931,300.146662 C101.277393,296.371662 101.691393,288.318662 108.545393,292.170662" id="Stroke-1"></path>
        </g>
    </g>
</svg>