
<svg width="1440px" height="800px" viewBox="0 0 1440 800" version="1.1" xmlns="http://www.w3.org/2000/svg" xmlns:xlink="http://www.w3.org/1999/xlink">
    <!-- Generator: Sketch 50.2 (55047) - http://www.bohemiancoding.com/sketch -->
    <desc>Created with Sketch.</desc>
    <defs></defs>
    <g id="Page-1" stroke="none" stroke-width="1" fill="none" fill-rule="evenodd" stroke-linecap="round" stroke-linejoin="round">
        <g id="Artboard-Copy" stroke="#FFFFFF" stroke-width="2.179">
            <path d="M579.43642,-807.2768 C685.448621,-904.259854 879.337666,-994.538478 1016.07208,-1041.31537 M314.765543,-510.393832 C383.286877,-599.567894 453.863209,-685.890647 534.40628,-764.89247 M248.915706,-425.265547 C214.122024,-389.444366 279.714986,-464.593068 294.92197,-484.436641 M1371.50965,82.8840423 C1069.41212,35.3236862 880.480759,-120.406618 645.427538,-283.701884 M-823.279413,1683.14939 C-960.142269,1714.03857 -1089.41448,1707.23139 -1225.36543,1684.78054 M-409.158819,1462.80224 C-530.121129,1551.83502 -672.185698,1648.8823 -821.224416,1682.73839 M-254.289045,-860.552619 C-236.39772,-854.182126 -218.673363,-847.323571 -201.090288,-840.054016 C-181.632027,-832.090899 -162.443485,-823.549814 -143.319162,-814.70048 C-101.85958,-795.3835 -61.3119042,-774.217023 -21.3550401,-751.843234 C21.2990087,-727.94104 63.2338082,-702.780161 104.629171,-676.887188 C171.275319,-635.145044 264.315346,-572.326329 330.370683,-529.77503 M832.650684,-555.809284 C958.853239,-451.479613 1028.26079,-363.461487 1137.16283,-243.732176 M-122.961839,227.504515 C30.3666866,-14.1889179 137.817386,-280.465262 314.765543,-510.406676 M-1011.64565,1090.96323 C-813.492486,942.142855 -598.077338,794.24723 -422.169524,615.488106 M-1477.83475,1370.44293 C-1431.13493,1355.10751 -1352.62117,1353.45067 -1271.01206,1289.30905 M1193.55968,-1029.08813 C1277.288,-992.89448 1350.13767,-936.72882 1418.51772,-878.675131 M-692.401739,1289.28336 C-403.494731,899.655775 -118.839,555.3152 129.610238,136.827735 C255.658668,-75.4535408 703.686727,-935.778384 1016.07208,-1041.30252 M1201.65123,-1066.168 C1385.38088,-1222.34783 1572.11597,-1221.93683 1789.88152,-1172.50129 M1137.16283,-243.732176 C1169.50336,-269.509555 1211.51522,-320.101033 1238.47423,-351.285625 M-30.0630934,-269.304055 C45.7021079,-409.853063 99.209114,-532.947433 295.397188,-484.256828 M-379.759506,476.518877 C-264.666784,287.510452 -172.114819,55.3599151 -84.3535675,-145.015217 M-1271.01206,1289.28336 C-1017.20699,1420.48213 -762.066165,1599.75501 -416.865061,1468.46633 M-523.236886,1468.46633 C-170.522195,1055.14205 62.3475904,602.464557 331.025713,140.154263 C490.031171,-133.430167 765.195381,-942.110346 1193.55968,-1029.08813 M-1397.95956,1527.45761 C-1189.55709,1617.10689 -1087.41085,1737.13161 -821.198728,1682.73839 M1314.79171,18.9736097 C1338.61684,10.6123372 1377.01961,-17.4512269 1402.24471,-35.5865828 M675.481881,-351.285625 C827.282003,-231.312283 906.181076,-88.6312144 1092.8391,-3.96530364 M-290.88085,434.45564 C-93.6010577,155.489684 -46.9012319,-197.070881 252.948639,-430.749822 M1100.31415,-728.621758 C1233.81195,-608.198885 1331.24453,-485.027453 1449.29132,-351.285625 M-830.947124,1130.25222 C-558.056255,829.400536 -286.115823,572.577182 -61.9155599,225.629329 C158.149021,-114.896655 253.526608,-515.711139 579.385045,-807.443769 M-198.123385,-599.272488 C-16.7826699,-859.204027 153.383994,-642.016443 330.357839,-529.787874 M-1249.11349,1428.44525 C-1255.20143,1336.163 -1219.85546,1270.86545 -1171.30614,1199.42858 M-1539.12506,1527.44477 C-1422.25991,1534.9712 -1329.84922,1535.97301 -1249.08781,1428.4324 M-1225.31405,1684.61357 C-1350.99001,1664.05075 -1553.74124,1743.46357 -1539.11222,1527.47046 M-1396.67518,1432.02865 C-1441.73101,1452.39882 -1559.03286,1452.00066 -1500.14432,1521.85774 M-1487.6859,1357.71479 C-1477.97603,1412.73736 -1387.14513,1364.86875 -1396.72656,1432.02865 M-1416.96829,1307.75266 C-1433.93486,1337.25472 -1463.21858,1342.34084 -1487.76296,1357.79185 M-1271.01206,1289.28336 C-1303.27553,1290.79892 -1385.07729,1312.62043 -1416.92975,1307.72697 M-1253.06937,1224.75643 C-1249.34468,1232.39846 -1210.92907,1248.54303 -1205.02095,1252.79431 M-1197.55874,1166.71559 C-1172.89876,1211.5017 -1231.47904,1208.0082 -1253.06937,1224.75643 M-1329.2841,1242.48079 C-1325.50804,1241.56888 -1321.7962,1240.5157 -1318.07152,1239.3726 C-1315.20736,1238.49923 -1312.34321,1237.51026 -1309.46621,1236.45708 C-1303.33975,1234.1452 -1297.32888,1231.40949 -1291.72901,1228.13433 C-1286.98967,1225.36009 -1282.49437,1222.11062 -1278.30731,1218.59144 C-1270.54969,1211.97691 -1263.8581,1204.11655 -1256.25461,1197.45065 C-1251.97765,1193.58468 -1247.31537,1190.12972 -1242.49897,1187.00869 C-1228.69195,1178.09514 -1213.06113,1172.13564 -1197.57158,1166.75412 M-1352.62117,1206.65961 C-1328.56485,1207.07061 -1353.44317,1242.17254 -1329.2841,1242.49363 M-1034.86713,1053.83199 C-951.703934,1136.68693 -1140.27567,1105.45096 -1193.89827,1129.18619 C-1247.90618,1152.98563 -1302.04253,1175.47502 -1352.62117,1206.63392 M-1049.67596,1058.98233 C-1045.20634,1056.85027 -1040.62112,1055.11636 -1035.76619,1053.78061 M-1051.98783,1060.03551 C-1053.23367,1060.61348 -1086.33198,1081.3818 -1083.86598,1080.20018 M-103.940266,247.335244 C-128.458958,467.386981 -290.598287,505.931034 -422.15668,615.488106 M9.34149001,16.9956743 C155.657336,-72.0114194 -56.8551277,174.472727 -103.953109,247.360931 M-36.1895557,84.7592278 C-21.2779777,61.9487519 -6.04530627,39.4465256 9.34149001,16.9956743 M-146.003502,252.228707 C-74.3226093,364.842589 -37.7308041,170.401263 -36.2409307,84.7720715 M-379.823725,476.544565 C-401.439733,568.428655 -293.732159,438.976636 -262.560411,396.900555 C-225.557606,346.976951 -138.220198,127.670151 -146.054877,251.599364 M-116.103284,-158.989203 C-295.800001,27.3348821 -323.70944,246.56462 -379.091632,473.770318 M-3.42518403,-255.933725 C-1.47293609,-176.75209 -35.3033379,-110.594004 -116.077597,-158.950671 M-139.234853,-238.157994 C-94.2304008,-257.320849 -57.5615332,-286.655943 -3.4508715,-255.959413 M-254.353263,-860.449869 C-438.275569,-927.018955 -248.509363,-665.982856 -181.066903,-576.410638 C-95.925774,-463.038976 -258.643071,-347.124254 -139.273385,-238.14515 M1639.54558,-1211.76459 C1410.85001,-1262.08635 1219.28568,-1321.89963 1083.0008,-1059.02688 M1951.7126,-1131.81233 C1846.5224,-1154.46868 1744.10644,-1187.01471 1639.5199,-1211.77744 M1374.77196,-1029.08813 C1437.75764,-1080.51445 1708.15682,-1099.90849 1582.08271,-1201.41254 M1473.38617,82.8840423 C1476.34022,-79.8846298 1262.13239,-29.4986517 1256.0573,-185.819768 C1251.47209,-304.470206 1226.78643,-418.535429 1204.09154,-533.89787 M1338.42418,34.0264688 C1366.55197,102.650553 1409.1418,109.329296 1473.38617,82.8583548 M1190.27168,-552.675413 C1117.51192,-308.74717 1077.40093,-120.406618 1338.43703,34.065 M1403.11808,-913.661469 C1482.67219,-759.035726 1574.95443,-631.17633 1510.26053,-434.975412 C1439.0677,-219.200639 1280.42187,-440.703718 1190.27168,-552.675413 M1283.49152,-1064.66528 C1383.05617,-1058.51313 1531.22151,-903.065387 1403.0924,-913.610095 M1016.07208,-1041.30252 C1091.37491,-1069.61012 1204.43832,-1065.48728 1281.32093,-1064.66528 M1283.49152,-1064.66528 C1231.23036,-1060.6195 1203.28239,-1050.51148 1155.00278,-1036.70446 C1106.23511,-1022.6791 975.46019,-958.036579 1016.07208,-1041.30252 M1187.30478,-819.927881 C1086.71264,-967.142788 1126.04016,-1040.09521 1283.49152,-1064.66528 M952.033215,-604.602639 C1010.88322,-703.679222 1127.70984,-722.032922 1187.33047,-819.902193 M872.980017,-612.218975 C903.214173,-626.629647 925.510899,-605.347576 952.058902,-604.589795 M175.051378,737.657727 C276.825145,638.46555 234.672002,509.707092 289.977132,402.564643 C350.586724,285.365548 415.409062,170.722356 480.321306,55.9892581 C607.538516,-168.866036 662.342739,-424.019704 872.915798,-612.180444 M99.645801,705.779573 C131.434049,705.278667 183.836494,685.216751 175.051378,737.657727 M-268.609811,1240.4001 C-223.309952,1141.70883 -173.681755,1045.45787 -122.486621,949.836253 C-67.464054,847.060674 58.4816257,826.446477 99.6201136,705.779573 M-217.222021,1224.05003 C-218.056864,1223.66471 -218.930238,1223.34362 -219.867831,1223.1895 C-220.869642,1222.90693 -221.884297,1222.76565 -222.950328,1222.73997 C-225.185138,1222.68859 -227.471323,1223.11243 -229.590539,1223.81884 C-232.197818,1224.66653 -234.676659,1225.73256 -237.142656,1227.00409 C-243.885618,1230.60033 -250.063455,1235.13417 -257.12751,1238.17814 C-260.723756,1239.77076 -264.615409,1240.9267 -268.686873,1240.42579 M-293.154191,1338.68037 C-254.815638,1307.0591 -179.731154,1295.82083 -217.222021,1224.05003 M-311.366609,1379.89592 C-301.322807,1367.37328 -302.786993,1351.26724 -293.154191,1338.70606 M-1044.7568,1097.01263 C-689.267867,956.784715 -635.876455,1751.33678 -311.379453,1379.87024 M-1171.2933,1199.45427 C-1138.14361,1150.96917 -1132.82631,1047.53856 -1044.79534,1097.01263" id="Stroke-1"></path>
        </g>
    </g>
</svg>