<?xml version="1.0" encoding="UTF-8"?>
<svg width="232px" height="262px" viewBox="0 0 232 262" version="1.1" xmlns="http://www.w3.org/2000/svg" xmlns:xlink="http://www.w3.org/1999/xlink">
    <!-- Generator: Sketch 50.2 (55047) - http://www.bohemiancoding.com/sketch -->
    <title>Group</title>
    <desc>Created with Sketch.</desc>
    <defs></defs>
    <g id="Islas-black" stroke="none" stroke-width="1" fill="none" fill-rule="evenodd">
        <g id="Factores-home-black" transform="translate(-26.000000, -408.000000)" stroke="#E63A66" stroke-width="2.179">
            <g id="Group-7" transform="translate(20.000000, 128.000000)">
                <g id="Group" transform="translate(7.000000, 281.000000)">
                    <path d="M197.125,131.6308 C195.988,131.2358 194.863,130.7988 193.76,130.3228" id="Stroke-1"></path>
                    <path d="M193.7598,130.3227 C192.4098,108.5507 207.6248,92.9977 208.2738,72.1177 C208.4588,66.1227 205.4438,61.1747 204.6168,55.5547 C203.9048,50.6947 208.7048,45.3667 202.6798,40.9577 C195.2398,35.5117 186.4398,32.7397 179.0198,27.2377 C166.8358,18.2017 140.9868,-17.6183 139.3188,10.9417 C138.8148,19.6317 139.1578,27.8357 133.8808,35.8487 C128.4938,44.0307 125.0818,31.6527 121.5098,27.9167 C116.4338,22.6097 111.9608,23.1157 105.8278,25.8757 C94.8168,30.8357 92.2288,39.8447 88.1678,49.3767 C84.1798,58.7527 81.5918,68.5747 78.0838,78.0977 C76.0298,83.6587 79.5368,91.9707 70.1958,93.7927 C62.8228,95.2307 70.9508,86.3277 71.8748,82.6487 C74.4078,72.5397 76.4258,62.4227 77.3868,52.0137 C80.0308,23.3437 48.7328,51.7707 35.2418,61.4397 C29.9118,65.2597 26.1268,70.5947 20.9548,74.5577 C15.8668,78.4617 11.9218,82.8307 4.9628,78.2417 C1.1798,75.7477 -2.5992,72.0277 2.7268,69.2087 C9.9438,65.3827 7.7848,75.6417 9.5038,79.4837" id="Stroke-3"></path>
                    <path d="M11.0879,82.5707 C23.6129,103.7667 26.8299,91.1397 40.8519,80.2447 C51.6429,71.8527 61.9379,64.7807 76.1859,62.6447" id="Stroke-5"></path>
                    <path d="M166.9375,119.6591 C174.8375,123.6251 180.7485,128.7921 185.7515,136.0691" id="Stroke-7"></path>
                    <path d="M209.2852,218.8915 C210.8652,226.4275 212.9672,233.6035 216.4722,240.5345 C219.3922,246.3035 235.7732,265.8915 226.7172,256.8135 C214.8812,244.9585 207.4412,234.3635 209.5062,216.2305 C211.1702,201.6235 218.4652,188.3945 211.7932,172.3525 C208.7402,165.0095 213.5492,157.9645 209.8772,150.5695 C206.4352,143.6345 201.8552,137.6455 197.1252,131.6305" id="Stroke-9"></path>
                    <path d="M210.5605,210.2377 C194.9665,183.5057 201.7855,150.9397 178.4495,125.7257" id="Stroke-11"></path>
                    <path d="M77.3516,52.3622 C59.9006,57.3482 43.4256,64.9802 25.9296,69.8552" id="Stroke-13"></path>
                    <path d="M211.123,233.0482 C209.225,229.4132 207.822,225.6472 206.646,221.7352" id="Stroke-15"></path>
                    <path d="M180.0195,127.5146 C176.2465,124.2336 172.0785,121.8436 167.6345,119.6776" id="Stroke-17"></path>
                    <path d="M33.9121,86.1816 C25.4471,87.2636 18.2501,88.2426 10.6831,82.1976" id="Stroke-19"></path>
                    <path d="M141.5488,124.2528 C112.6758,132.8978 72.5138,155.5188 70.1248,108.5268" id="Stroke-21"></path>
                    <path d="M70.1855,93.7929 C70.2495,92.1139 70.3305,90.4349 70.4125,88.7559" id="Stroke-23"></path>
                    <path d="M215.9648,193.5614 C200.0568,171.2634 205.8358,140.3814 178.0568,122.2194" id="Stroke-25"></path>
                    <path d="M90.6738,43.8778 C87.7378,40.0618 84.4198,39.0078 79.8688,38.7668" id="Stroke-27"></path>
                    <path d="M75.0273,38.9062 C72.8103,39.1212 70.6293,39.4982 68.4513,39.9562" id="Stroke-29"></path>
                    <path d="M204.8145,88.6684 C188.1405,78.8574 168.9105,76.2484 152.3005,66.2124 C134.8535,55.6654 124.5565,40.7244 113.9965,24.4374" id="Stroke-31"></path>
                    <path d="M193.7305,124.5502 C173.2595,104.4252 150.3125,113.5982 128.1115,110.0502 C99.0315,105.4012 91.4555,87.2482 82.9475,63.3572" id="Stroke-33"></path>
                    <path d="M225.1016,255.0678 C218.8376,248.1178 215.3416,240.4428 212.7346,231.6558" id="Stroke-35"></path>
                    <path d="M205.9395,46.808 C179.6735,37.481 159.0625,23.225 139.9215,3.258" id="Stroke-37"></path>
                    <path d="M213.3828,200.7729 C196.7068,175.4749 205.7168,140.6099 173.1488,120.6489" id="Stroke-39"></path>
                    <path d="M77.5078,42.913 C67.0098,45.649 56.9958,49.618 46.8728,53.375" id="Stroke-41"></path>
                    <path d="M209.2363,220.3046 C202.1093,206.5016 200.4533,191.9716 197.8223,177.2606" id="Stroke-43"></path>
                    <path d="M53.4414,70.7685 C39.3964,75.2125 26.5524,81.4525 10.6174,79.3945" id="Stroke-45"></path>
                    <path d="M212.5605,163.5414 C189.5425,132.0824 191.0445,112.0324 142.7445,121.2434 C108.9605,127.6854 81.9555,129.3524 73.7795,88.3524" id="Stroke-47"></path>
                    <path d="M216.25,184.703 C203.998,167.835 201.021,147.134 188.836,130.243" id="Stroke-49"></path>
                    <path d="M79.7949,73.2167 C80.4529,64.5797 81.3989,56.5097 77.6739,47.9647" id="Stroke-51"></path>
                    <path d="M207.9551,66.5429 C181.7601,55.7419 157.0781,46.2729 137.8851,22.6579" id="Stroke-53"></path>
                    <path d="M197.5859,107.5951 C178.7419,93.5161 155.9219,95.5171 136.3539,85.2051 C114.5199,73.7011 105.8649,55.2471 95.4649,35.4781" id="Stroke-55"></path>
                    <path d="M217.9258,246.7187 C217.6698,246.3727 217.4178,246.0247 217.1738,245.6727" id="Stroke-57"></path>
                    <path d="M26.4121,93.4213 C19.9981,92.0413 15.5431,89.4793 11.8591,83.8503" id="Stroke-59"></path>
                    <path d="M226.5996,256.745 C223.0076,253.396 219.8986,249.756 217.1616,245.681" id="Stroke-61"></path>
                    <path d="M215.5859,243.2079 C211.4879,236.4289 208.7499,229.3139 206.6129,221.7429" id="Stroke-63"></path>
                    <path d="M205.7637,218.5995 C203.1447,208.4425 201.4517,198.1425 199.6717,187.8295" id="Stroke-65"></path>
                    <path d="M197.8184,177.2597 C197.4704,175.3447 197.1074,173.4287 196.7364,171.5177 C196.3794,169.6987 196.0094,167.8867 195.6234,166.0797 C194.9454,162.9167 194.2134,159.7677 193.3864,156.6417 C192.0194,151.4797 190.3964,146.3787 188.2914,141.4667" id="Stroke-67"></path>
                    <path d="M178.4512,125.7255 C176.6522,123.7695 174.7032,122.0515 172.5352,120.5175" id="Stroke-69"></path>
                    <path d="M190.7402,132.6928 C176.2222,112.6088 160.6382,118.5328 141.5492,124.2528" id="Stroke-71"></path>
                    <path d="M121.9297,130.6459 C98.5257,138.4919 73.7697,146.2959 70.4907,113.3339" id="Stroke-73"></path>
                    <path d="M70.1191,108.5263 C69.8591,103.4653 69.7381,98.4063 69.7541,93.3403" id="Stroke-75"></path>
                    <path d="M73.9688,38.6308 C80.2388,38.6688 86.4118,38.7698 92.6168,40.1318" id="Stroke-77"></path>
                    <path d="M11.502,82.9179 C11.789,83.2449 11.168,82.6389 11,82.5019" id="Stroke-79"></path>
                    <path d="M10.6582,82.2274 C8.8752,80.8114 7.0002,79.5364 5.0842,78.3174" id="Stroke-81"></path>
                </g>
            </g>
        </g>
    </g>
</svg>