<?xml version="1.0" encoding="UTF-8"?>
<svg width="254px" height="148px" viewBox="0 0 254 148" version="1.1" xmlns="http://www.w3.org/2000/svg" xmlns:xlink="http://www.w3.org/1999/xlink">
    <!-- Generator: Sketch 50.2 (55047) - http://www.bohemiancoding.com/sketch -->
    <title>Group</title>
    <desc>Created with Sketch.</desc>
    <defs></defs>
    <g id="Islas-black" stroke="none" stroke-width="1" fill="none" fill-rule="evenodd">
        <g id="Factores-home-black" transform="translate(-266.000000, -459.000000)" stroke="#E63A66" stroke-width="2.179">
            <g id="Group-7" transform="translate(20.000000, 128.000000)">
                <g id="Group" transform="translate(247.000000, 332.000000)">
                    <path d="M213.4297,53.1252 C205.8397,53.2592 211.8827,45.7352 213.5277,41.7352" id="Stroke-1"></path>
                    <path d="M213.5273,41.7355 C211.3943,38.2295 209.1363,35.2985 210.0003,30.6365" id="Stroke-3"></path>
                    <path d="M210,30.6335 C207.631,30.2845 207.545,33.6095 205.061,33.0045" id="Stroke-5"></path>
                    <path d="M205.0566,33.0041 C199.8696,10.6931 179.7206,26.6251 167.5056,21.6261" id="Stroke-7"></path>
                    <path d="M167.5078,21.6261 C164.7248,23.2401 163.2928,25.1341 162.7518,28.3551" id="Stroke-9"></path>
                    <path d="M162.748,28.3522 C159.478,32.6302 154.875,31.0852 150.99,32.6142" id="Stroke-11"></path>
                    <path d="M150.9902,32.612 C148.8632,34.857 146.3322,36.629 144.2112,38.887" id="Stroke-13"></path>
                    <path d="M144.2109,38.8844 C142.9199,38.7244 141.6209,38.6414 140.3219,38.6384 C138.9569,38.6234 137.5939,38.7064 136.2359,38.8714 C135.0059,39.0264 133.7829,39.2414 132.5719,39.4934 C129.6579,40.1154 126.8069,40.9764 123.8809,41.5244 C122.3749,41.8104 120.8399,42.0074 119.3049,42.0604 C117.5699,42.1094 115.8359,41.9754 114.1309,41.6344 C112.3109,41.2674 110.5349,40.6744 108.8459,39.8934" id="Stroke-15"></path>
                    <path d="M108.8457,39.8981 C102.5997,42.3741 96.8377,45.3781 89.6507,45.2301" id="Stroke-17"></path>
                    <path d="M89.6543,45.2301 C88.2833,46.7791 89.3593,50.0551 86.0703,50.2141" id="Stroke-19"></path>
                    <path d="M86.0703,50.2135 C83.8283,50.7425 88.3613,50.3565 89.5193,50.3815" id="Stroke-21"></path>
                    <path d="M95.1074,50.6837 C96.2124,50.7607 97.3124,50.8497 98.4204,50.9447" id="Stroke-23"></path>
                    <path d="M89.1426,46.8752 C86.3786,46.5952 83.7166,45.8582 80.9706,45.5032" id="Stroke-25"></path>
                    <path d="M80.9707,45.5036 C80.4647,45.6276 79.9397,45.7046 79.4277,45.7846 C77.0237,46.1426 74.6157,46.4526 72.2307,46.8856 C70.1817,47.2616 68.1507,47.7216 66.1447,48.2656 C64.1347,48.8136 62.1407,49.4396 60.1857,50.1456 C59.1407,50.5176 58.1057,50.9146 57.0837,51.3246 C55.9507,51.7846 54.8317,52.2656 53.7047,52.7326 C53.4627,52.8386 53.2287,52.9406 52.9827,53.0286" id="Stroke-27"></path>
                    <path d="M52.9785,53.0285 C51.2165,58.2505 46.0525,57.5395 42.9665,60.3715" id="Stroke-29"></path>
                    <path d="M42.9668,60.3712 C40.5038,61.6222 37.7968,61.8192 35.2678,62.7712" id="Stroke-31"></path>
                    <path d="M35.2715,62.7702 C36.5135,58.9922 35.9725,55.8842 31.4025,56.1962" id="Stroke-33"></path>
                    <path d="M31.4023,56.196 C30.2543,53.91 34.4983,53.401 32.8303,51.109" id="Stroke-35"></path>
                    <path d="M32.8281,51.1086 C31.5491,51.6196 31.0021,50.8906 30.2991,50.0246" id="Stroke-37"></path>
                    <path d="M30.2988,50.029 C23.7808,55.458 16.3478,57.276 8.6658,59.528" id="Stroke-39"></path>
                    <path d="M8.666,59.5285 C12.588,44.2075 10.117,28.0275 26.031,16.2165" id="Stroke-41"></path>
                    <path d="M26.0313,16.2169 C27.8453,15.1999 29.6813,14.2159 31.5273,13.2669" id="Stroke-43"></path>
                    <path d="M33.8672,12.1056 C35.5312,11.3136 37.2112,10.5866 38.9222,9.9136" id="Stroke-45"></path>
                    <path d="M59.8652,50.2658 C60.2562,50.5328 60.6722,50.7538 61.1212,50.9128" id="Stroke-47"></path>
                    <path d="M61.1211,50.9142 C57.9491,54.5852 66.7561,62.8962 59.1371,62.2622" id="Stroke-49"></path>
                    <path d="M59.1367,62.2638 C58.3127,63.9608 57.4807,65.6588 56.6427,67.3518" id="Stroke-51"></path>
                    <path d="M56.6406,67.3571 C54.8986,68.4191 53.2616,66.9451 51.5176,67.8281" id="Stroke-53"></path>
                    <path d="M51.5176,67.8249 C47.9806,75.1319 41.3826,73.4689 35.7366,75.2299" id="Stroke-55"></path>
                    <path d="M35.7363,75.2301 C34.8323,76.5841 36.5563,77.5991 35.7653,78.9431" id="Stroke-57"></path>
                    <path d="M35.7598,78.9435 C33.1058,85.5935 26.1188,85.5515 22.3218,90.3045" id="Stroke-59"></path>
                    <path d="M22.3223,90.3048 C13.7633,91.6108 9.0703,96.2008 4.2153,102.6228" id="Stroke-61"></path>
                    <path d="M4.2148,102.6227 C5.8068,106.0137 9.1108,106.8087 11.4958,108.9947" id="Stroke-63"></path>
                    <path d="M11.4961,108.9894 C7.6701,110.2954 4.3301,112.6234 0.1621,113.2274" id="Stroke-65"></path>
                    <path d="M0.1621,113.2277 C-0.8179,117.6347 8.4941,113.0457 6.1781,117.2627" id="Stroke-67"></path>
                    <path d="M6.1758,117.2648 C4.8948,117.3598 1.5628,114.9898 2.3128,117.4518" id="Stroke-69"></path>
                    <path d="M2.3164,117.4533 C4.0804,119.3473 6.2984,119.7923 8.5024,120.6143" id="Stroke-71"></path>
                    <path d="M8.502,120.6144 C10.244,125.6514 15.84,126.9384 17.315,132.2664" id="Stroke-73"></path>
                    <path d="M17.3145,132.2668 C29.0395,138.9008 42.4905,139.3898 54.2875,145.7098" id="Stroke-75"></path>
                    <path d="M54.2871,145.7057 C58.4261,145.9837 62.0411,143.7287 66.2931,144.4417" id="Stroke-77"></path>
                    <path d="M66.2949,144.4416 C68.4549,143.6366 70.7029,143.6146 72.9039,143.1906" id="Stroke-79"></path>
                    <path d="M72.9043,143.1906 C77.6723,144.7276 82.3513,145.0556 87.2753,144.8876" id="Stroke-81"></path>
                    <path d="M87.2773,144.8874 C89.5173,144.1254 91.3773,142.7514 93.4473,141.7264" id="Stroke-83"></path>
                    <path d="M93.4473,141.7262 C98.0953,142.1422 101.9593,140.4532 106.1073,139.1402" id="Stroke-85"></path>
                    <path d="M106.1074,139.1398 C110.5844,138.9768 114.8784,138.4798 119.1734,137.0278" id="Stroke-87"></path>
                    <path d="M119.1699,137.028 C121.8629,134.731 125.4549,134.569 128.1019,132.164" id="Stroke-89"></path>
                    <path d="M128.1016,132.1598 C130.5156,131.5828 132.9276,131.0088 135.3416,130.4468" id="Stroke-91"></path>
                    <path d="M171.9375,133.6501 C174.8285,134.6511 177.6115,135.8411 180.3185,137.2531" id="Stroke-93"></path>
                    <path d="M180.3242,137.2531 C175.7522,138.9431 173.9292,134.9401 170.7972,133.6201" id="Stroke-95"></path>
                    <path d="M170.7969,133.6203 C170.4589,134.3683 170.0449,135.0533 169.5449,135.7003" id="Stroke-97"></path>
                    <path d="M169.1875,136.2692 C168.1585,137.9812 167.8375,139.2942 169.1735,141.0192" id="Stroke-99"></path>
                    <path d="M169.1738,141.0187 C168.2948,140.3507 166.9008,140.7667 166.3668,139.3557" id="Stroke-101"></path>
                    <path d="M166.3672,139.3556 C168.0782,140.3966 165.5252,137.4246 166.4182,136.3466" id="Stroke-103"></path>
                    <path d="M166.418,136.3468 C167.576,135.2818 168.647,136.8618 169.822,136.0938" id="Stroke-105"></path>
                    <path d="M169.8223,136.0939 C166.1173,131.5029 171.8613,129.5939 173.2933,126.4779" id="Stroke-107"></path>
                    <path d="M173.293,126.4782 C166.43,123.3122 158.277,124.0372 153.139,116.1512" id="Stroke-109"></path>
                    <path d="M153.1387,116.151 C161.5877,113.687 153.6507,107.346 150.4067,103.195" id="Stroke-111"></path>
                    <path d="M150.4062,103.195 C155.8452,94.932 142.4672,88.904 149.9312,80.752" id="Stroke-113"></path>
                    <path d="M149.9316,80.7462 C159.7986,82.1342 165.9316,73.9792 175.3686,74.4082" id="Stroke-115"></path>
                    <path d="M175.373,74.4079 C176.135,72.2849 175.578,70.6669 174.746,68.7869" id="Stroke-117"></path>
                    <path d="M240.9629,67.4821 C241.5179,67.2871 242.0839,67.1661 242.6659,67.1001" id="Stroke-119"></path>
                    <path d="M242.666,67.0998 C244.342,66.6288 246.004,66.1328 247.672,65.6738 C248.322,65.5028 248.975,65.3288 249.629,65.1918 C250.164,65.0748 250.697,64.9778 251.258,64.9888 C251.393,64.9908 251.527,64.9958 251.641,65.0738 C251.701,65.1098 251.758,65.1768 251.773,65.2438 C251.807,65.3468 251.738,65.4578 251.662,65.5648 C251.502,65.7678 251.322,65.9108 251.125,66.0508 C250.494,66.5238 249.785,66.9158 249.07,67.2698 C248.02,67.8028 246.936,68.2688 245.842,68.7178 C244.396,69.3088 242.93,69.8698 241.465,70.4248" id="Stroke-121"></path>
                    <path d="M241.4648,70.4206 C240.8578,70.6206 240.2988,70.9456 239.7148,71.1936 C239.3278,71.3596 238.9338,71.4876 238.5368,71.6396" id="Stroke-123"></path>
                    <path d="M238.543,71.6359 C246.264,68.8669 230.676,69.3629 226.953,67.4899" id="Stroke-125"></path>
                    <path d="M226.9531,67.4923 C227.0901,67.3373 227.1211,67.1343 227.1191,66.9343 C227.1191,66.6843 227.0551,66.4443 226.9841,66.2073 C226.7401,65.3833 226.3381,64.6243 225.9001,63.8733 C224.5861,61.6123 223.0391,59.4923 221.2481,57.5773 C220.0371,56.2763 218.7071,55.0713 217.1621,54.1923 C216.0191,53.5573 214.7541,53.0993 213.4321,53.1233" id="Stroke-127"></path>
                    <path d="M166.75,140.1266 C160.49,137.3626 154.209,134.7886 147.6,132.9016" id="Stroke-129"></path>
                    <path d="M135.3555,130.4425 C96.4045,126.1325 59.7405,142.2165 20.0275,133.6615" id="Stroke-131"></path>
                    <path d="M155.752,118.8029 C129.133,115.1429 104.178,119.6789 78.469,123.9159 C50.766,128.4839 27.285,119.1599 2.057,112.9069" id="Stroke-133"></path>
                    <path d="M170.6152,134.0045 C170.0042,133.7055 169.3792,133.4255 168.7522,133.1515" id="Stroke-135"></path>
                    <path d="M211.4512,38.6745 C194.0452,55.3365 180.3342,69.7635 152.5292,62.3305" id="Stroke-137"></path>
                    <path d="M117.7285,42.0524 C80.4005,13.9094 51.5405,20.3874 13.8715,40.7174" id="Stroke-139"></path>
                    <path d="M195.0879,24.8146 C168.7809,48.9986 144.3539,58.1726 108.3319,52.4986" id="Stroke-141"></path>
                    <path d="M103.3809,51.7121 C101.7289,51.4461 100.0779,51.1901 98.4239,50.9411" id="Stroke-143"></path>
                    <path d="M46.6387,57.5045 C43.9647,58.8515 41.3597,60.2975 38.7797,61.8195" id="Stroke-145"></path>
                    <path d="M225.3672,62.9787 C214.0412,70.8317 204.3122,76.3167 189.4632,72.7777" id="Stroke-147"></path>
                    <path d="M141.6289,38.6715 C124.4939,22.4815 110.3049,5.6285 84.2559,1.0675" id="Stroke-149"></path>
                    <path d="M147.7969,86.8664 C100.3069,82.4414 57.9019,108.3294 8.6059,96.3184" id="Stroke-151"></path>
                    <path d="M103.3672,51.7121 C88.1482,52.8681 73.9282,56.7201 59.5962,61.4941" id="Stroke-153"></path>
                    <path d="M168.7344,133.3683 C115.6794,120.2753 63.2034,136.3253 10.1664,123.4523" id="Stroke-155"></path>
                    <path d="M150.7363,102.6227 C102.0353,98.0687 55.8083,118.2197 5.5603,104.2177" id="Stroke-157"></path>
                    <path d="M61.2871,145.0446 C57.7731,144.9996 54.2731,144.8026 50.7791,144.4686" id="Stroke-159"></path>
                    <path d="M168.3789,139.2414 C167.8219,138.8874 167.2439,138.5504 166.6719,138.2114" id="Stroke-161"></path>
                    <path d="M132.3555,130.1833 C113.5435,132.7523 96.8185,141.8603 77.8845,144.1093" id="Stroke-163"></path>
                    <path d="M203.6289,29.4176 C183.4859,48.9336 167.0179,64.4896 135.1309,58.0336" id="Stroke-165"></path>
                    <path d="M98.918,44.2628 C73.34,33.5938 54.32,37.8468 31.432,51.0438" id="Stroke-167"></path>
                    <path d="M180.1426,24.4342 C151.5036,46.2442 121.4126,44.9502 89.4136,47.4242" id="Stroke-169"></path>
                    <path d="M233.4707,69.9928 C225.9337,74.0128 218.7967,76.5568 209.9727,76.0648" id="Stroke-171"></path>
                    <path d="M147.0898,36.2824 C139.9238,30.1574 132.6658,24.2374 124.7168,19.0944" id="Stroke-173"></path>
                    <path d="M214.6699,53.2472 C200.9589,64.3542 189.6409,72.8202 170.1469,67.4162" id="Stroke-175"></path>
                    <path d="M130.3008,40.0221 C94.5608,7.6101 65.0688,-1.2639 20.6548,23.2721" id="Stroke-177"></path>
                    <path d="M173.127,74.4543 C122.148,65.0823 76.4,81.7823 28.129,86.5683" id="Stroke-179"></path>
                    <path d="M251.0859,64.9826 C245.4939,67.2586 239.8689,69.0866 233.8929,70.1166" id="Stroke-181"></path>
                    <path d="M238.543,71.6359 C230.523,74.5879 222.639,76.2169 214.02,76.1329" id="Stroke-183"></path>
                    <path d="M209.9707,76.0041 C203.1617,75.5401 196.5097,74.5101 189.8807,72.8861" id="Stroke-185"></path>
                    <path d="M174.7402,68.7873 C173.9312,68.5483 173.1192,68.3073 172.3042,68.0653" id="Stroke-187"></path>
                    <path d="M170.1367,67.4254 C143.6327,59.5704 117.7677,51.4274 89.5197,50.4034" id="Stroke-189"></path>
                    <path d="M167.2148,140.6632 C164.7758,139.4482 162.3088,138.3212 159.8048,137.2572" id="Stroke-191"></path>
                    <path d="M147.5977,132.9259 C143.5687,131.7889 139.5157,130.9619 135.3597,130.4399" id="Stroke-193"></path>
                    <path d="M168.8594,132.6491 C169.8964,132.9601 170.9204,133.2921 171.9374,133.6501" id="Stroke-195"></path>
                    <path d="M31.5313,13.2731 C48.5353,4.3791 63.7693,-2.5469 84.2633,1.0671" id="Stroke-197"></path>
                    <path d="M92.7754,3.1501 C104.4494,6.7521 114.6034,12.5531 124.7164,19.0901" id="Stroke-199"></path>
                    <path d="M130.5449,22.9543 C136.4569,27.0053 142.3129,31.1533 148.1069,35.3843" id="Stroke-201"></path>
                    <path d="M231.9375,69.5265 C234.9945,69.0465 237.9885,68.3575 240.9625,67.4845" id="Stroke-203"></path>
                </g>
            </g>
        </g>
    </g>
</svg>