<?xml version="1.0" encoding="UTF-8"?>
<svg width="230px" height="210px" viewBox="0 0 230 210" version="1.1" xmlns="http://www.w3.org/2000/svg" xmlns:xlink="http://www.w3.org/1999/xlink">
    <!-- Generator: Sketch 50.2 (55047) - http://www.bohemiancoding.com/sketch -->
    <title>Group</title>
    <desc>Created with Sketch.</desc>
    <defs></defs>
    <g id="Islas-black" stroke="none" stroke-width="1" fill="none" fill-rule="evenodd">
        <g id="Factores-home-black" transform="translate(-230.000000, -211.000000)" stroke="#E63A66" stroke-width="2.179">
            <g id="Group-7" transform="translate(20.000000, 128.000000)">
                <g id="Group" transform="translate(210.000000, 84.000000)">
                    <path d="M208.9795,140.7224 C210.9165,141.1064 212.8645,141.3944 214.8345,141.5814" id="Stroke-1"></path>
                    <path d="M215.3076,141.6257 C219.6866,141.9657 223.9386,141.7967 228.2726,141.0977" id="Stroke-3"></path>
                    <path d="M228.2725,141.096 C222.7255,120.142 211.9895,112.07 190.8685,109.653" id="Stroke-5"></path>
                    <path d="M190.8682,109.657 C185.9342,92.827 188.2042,74.888 175.9232,59.219" id="Stroke-7"></path>
                    <path d="M175.9229,59.218 C161.1519,66.603 159.0319,78.909 154.9409,92.252 C152.9739,98.657 151.3569,105.147 149.6939,111.635 C148.0209,118.153 149.6009,126.117 139.7609,127.109" id="Stroke-9"></path>
                    <path d="M139.7607,127.1091 C133.6277,128.2031 127.6437,128.0671 121.5007,127.4701" id="Stroke-11"></path>
                    <path d="M90.4639,118.1751 C84.6009,114.7871 79.7509,110.7681 75.6179,105.3421 C71.3959,99.8001 61.1749,95.3031 69.5419,87.3601" id="Stroke-13"></path>
                    <path d="M69.542,87.3631 C61.646,81.4461 60.142,91.3691 57.263,96.6391 C54.462,101.7711 52.062,107.0831 49.671,112.4091 C44.899,123.0511 40.329,133.7891 35.528,144.4251 C25.87,165.8131 17.88,187.1581 0.784,204.8781" id="Stroke-15"></path>
                    <path d="M17.5771,202.2424 C55.8411,194.8214 70.2821,161.5434 99.1491,144.4594" id="Stroke-17"></path>
                    <path d="M109.5674,139.3635 C118.7454,135.8695 126.9404,134.7565 136.6394,137.5575" id="Stroke-19"></path>
                    <path d="M136.6396,137.5574 C165.3096,135.2764 190.3346,143.9654 216.6596,151.5114" id="Stroke-21"></path>
                    <path d="M216.6611,151.51 C216.3411,150.857 215.9211,150.268 215.4661,149.704 C214.6261,148.676 213.6711,147.75 212.7981,146.751 C212.6181,146.548 212.4401,146.335 212.2701,146.115 C212.1261,145.927 211.9891,145.733 211.9361,145.499 C211.9051,145.352 211.9091,145.194 212.0111,145.091 C212.0691,145.039 212.1551,145 212.2511,144.975 C212.4251,144.92 212.5851,144.913 212.7611,144.91 C213.2391,144.902 213.7271,144.954 214.2161,145.023 C214.9321,145.125 215.6491,145.257 216.3561,145.393 C218.3211,145.759 220.2781,146.172 222.2351,146.534" id="Stroke-23"></path>
                    <path d="M222.2354,146.5344 C221.8134,146.3014 221.3804,146.0944 220.9424,145.8904 C220.3994,145.6364 219.8584,145.3984 219.3134,145.1664 C216.3354,143.8934 213.3074,142.7594 210.3214,141.5114 C209.8834,141.3304 209.4444,141.1464 209.0104,140.9404 C208.9264,140.8954 208.8424,140.8544 208.7514,140.7954 C208.7144,140.7664 208.6724,140.7424 208.6824,140.7224 C208.6964,140.7064 208.7274,140.6924 208.7564,140.6934 C208.8374,140.6824 208.9014,140.7264 208.9794,140.7224" id="Stroke-25"></path>
                    <path d="M68.1123,150.5842 C72.2983,145.9822 71.4993,140.6582 72.6573,135.5092" id="Stroke-27"></path>
                    <path d="M72.6572,135.5061 C75.4032,137.2821 78.2492,138.7901 81.2512,140.0681" id="Stroke-29"></path>
                    <path d="M103.042,143.0882 C143.179,128.4952 131.448,93.5642 139.944,65.5652 C144.417,50.7992 156.315,41.0202 161.31,26.6482 C166.048,13.0122 143.556,20.2792 145.29,7.5342 C145.698,4.5592 152.28,5.9262 149.806,2.1762 C146.935,-2.1608 143.661,1.5332 140.511,2.0132 C97.546,8.4902 107.728,43.4922 102.192,72.0212 C99.345,86.6912 95.911,101.1372 91.368,115.3962 C89.319,121.8132 87.065,128.1172 84.222,134.2422 C80.636,141.9632 81.079,154.0242 68.112,150.5842" id="Stroke-31"></path>
                    <path d="M177.9912,62.0789 C170.1412,68.2869 163.9112,75.6369 157.9272,83.5099" id="Stroke-33"></path>
                    <path d="M190.3213,107.1267 C181.7823,111.6527 173.5073,116.3877 164.0203,119.0527" id="Stroke-35"></path>
                    <path d="M146.9775,121.0593 C140.0455,120.6963 133.7545,118.9723 127.4075,116.3273" id="Stroke-37"></path>
                    <path d="M96.21,98.5139 C86.487,92.5809 77.589,86.9569 65.315,86.6799" id="Stroke-39"></path>
                    <path d="M146.2041,1.4407 C138.4051,2.5627 130.8271,4.2317 123.3371,6.7217" id="Stroke-41"></path>
                    <path d="M158.9209,17.1292 C126.0519,28.6412 115.2299,53.5822 100.5599,80.0192" id="Stroke-43"></path>
                    <path d="M216.4541,145.4041 C185.8291,135.5191 160.2311,115.8181 124.4721,136.1461" id="Stroke-45"></path>
                    <path d="M226.8174,136.1878 C202.0184,135.9738 179.9634,127.4228 156.8724,121.2468" id="Stroke-47"></path>
                    <path d="M74.4268,150.3904 C56.1008,169.2854 43.5148,192.2904 15.8878,202.8084" id="Stroke-49"></path>
                    <path d="M215.8154,118.9939 C199.5574,120.5629 183.7704,121.3359 167.4604,117.9819" id="Stroke-51"></path>
                    <path d="M81.083,111.325 C52.437,128.055 37.618,154.297 18.724,178.654" id="Stroke-53"></path>
                    <path d="M141.3271,61.2649 C134.0031,71.2369 94.9341,148.3919 75.7841,150.2229" id="Stroke-55"></path>
                    <path d="M72.3936,150.1643 C71.1786,150.0043 70.0106,149.7173 68.8566,149.3183" id="Stroke-57"></path>
                    <path d="M187.4873,85.6868 C172.1823,97.4998 161.6303,113.8908 145.1983,124.7488" id="Stroke-59"></path>
                    <path d="M91.5264,114.8967 C84.5634,109.2717 77.9754,103.2097 71.0344,97.5557" id="Stroke-61"></path>
                    <path d="M145.5908,6.6189 C131.1108,10.3139 119.4228,16.7009 108.4328,26.8039" id="Stroke-63"></path>
                    <path d="M212.54,146.5623 C193.114,139.7833 175.792,131.6673 153.505,137.4793" id="Stroke-65"></path>
                    <path d="M215.3076,141.6257 C193.6186,136.8987 174.0776,126.0697 151.6746,123.1067" id="Stroke-67"></path>
                    <path d="M91.2236,146.929 C86.1986,151.606 81.4146,156.512 76.6376,161.433" id="Stroke-69"></path>
                    <path d="M222.6162,126.8489 C201.8092,127.9699 182.3112,125.3619 162.3892,119.5209" id="Stroke-71"></path>
                    <path d="M89.0693,122.2249 C54.3483,145.2489 41.0733,185.7879 4.2763,207.3419" id="Stroke-73"></path>
                    <path d="M203.7686,112.5672 C193.1536,114.8672 182.6846,117.3012 171.6666,117.5022" id="Stroke-75"></path>
                    <path d="M148.8799,114.7376 C142.4519,113.0256 136.3249,110.6496 130.2429,108.0096" id="Stroke-77"></path>
                    <path d="M71.0264,97.6013 C62.9694,100.9863 56.3974,105.9063 50.0084,111.6683" id="Stroke-79"></path>
                    <path d="M68.5225,86.6839 C69.7825,86.9779 71.0435,87.2829 72.3075,87.5919" id="Stroke-81"></path>
                    <path d="M76.6045,88.6814 C83.5165,90.4994 90.3775,92.4984 97.1805,94.6804" id="Stroke-83"></path>
                    <path d="M130.6963,106.4329 C136.8703,108.7349 143.0873,110.9069 149.3503,112.9609" id="Stroke-85"></path>
                    <path d="M171.6689,117.4983 L171.6749,117.4983 C170.9579,117.5693 170.2389,117.6713 169.5229,117.7983 C168.5749,117.9663 167.6259,118.1743 166.6729,118.3943 C164.3509,118.9353 162.0479,119.5933 159.7739,120.3063 C154.3369,122.0073 149.0209,124.0723 143.7489,126.2183" id="Stroke-87"></path>
                    <path d="M103.0459,143.0979 C94.9329,146.0199 86.8119,148.4679 78.2609,149.8549" id="Stroke-89"></path>
                    <path d="M75.7842,150.2234 C74.0952,150.4524 72.3932,150.6164 70.6902,150.7384" id="Stroke-91"></path>
                </g>
            </g>
        </g>
    </g>
</svg>