<?xml version="1.0" encoding="UTF-8"?>
<svg width="276px" height="120px" viewBox="0 0 276 120" version="1.1" xmlns="http://www.w3.org/2000/svg" xmlns:xlink="http://www.w3.org/1999/xlink">
    <!-- Generator: Sketch 50.2 (55047) - http://www.bohemiancoding.com/sketch -->
    <title>Group</title>
    <desc>Created with Sketch.</desc>
    <defs></defs>
    <g id="Islas-black" stroke="none" stroke-width="1" fill="none" fill-rule="evenodd">
        <g id="Factores-home-black" transform="translate(-237.000000, -685.000000)" stroke="#E63A66" stroke-width="2.179">
            <g id="Group-7" transform="translate(20.000000, 128.000000)">
                <g id="Group" transform="translate(218.000000, 558.000000)">
                    <path d="M10.9072,77.8791 C24.9252,70.3581 38.9012,72.2861 53.2942,71.5151" id="Stroke-1"></path>
                    <path d="M53.2979,71.5149 C51.6709,74.3639 52.2179,77.7589 50.0399,80.5109" id="Stroke-3"></path>
                    <path d="M50.04,80.511 C82.769,98.118 112.433,143.846 149.833,97.64" id="Stroke-5"></path>
                    <path d="M149.833,97.6399 C168.017,99.5379 175.378,83.0669 190.562,80.1799" id="Stroke-7"></path>
                    <path d="M190.5576,80.1799 C199.0146,81.2289 207.3286,81.5919 215.8466,80.6839" id="Stroke-9"></path>
                    <path d="M215.8467,80.6819 C226.5677,73.7219 238.1147,68.5019 249.4407,62.7499 C257.9657,58.4179 279.8937,54.6539 266.6847,43.9109" id="Stroke-11"></path>
                    <path d="M266.6846,43.9114 C265.4136,42.8934 264.1336,41.8834 262.8546,40.8764 C261.8726,40.1024 260.8816,39.3394 259.8876,38.5784 C257.9636,37.1034 256.0146,35.6594 254.0416,34.2564 C252.3276,33.0434 250.6046,31.8614 248.8506,30.7184 C246.3306,29.0614 243.7686,27.4754 241.2316,25.8554" id="Stroke-13"></path>
                    <path d="M241.2314,25.8557 C240.9694,25.6907 240.6884,25.5007 240.4424,25.3217 C240.3834,25.2797 240.3234,25.2337 240.2524,25.1687 C240.2234,25.1337 240.1864,25.0897 240.2004,25.0697 C240.2114,25.0587 240.2414,25.0497 240.2664,25.0497 C240.3234,25.0497 240.3744,25.0627 240.4244,25.0837 C240.6224,25.1427 240.8074,25.2067 240.9874,25.2797 C241.9544,25.6577 242.8994,26.1377 243.8484,26.5477 C243.9544,26.5907 244.0594,26.6377 244.1844,26.6757 C244.2394,26.6917 244.2954,26.7037 244.3114,26.6787 C244.3274,26.6637 244.3274,26.6267 244.3114,26.5987 C244.2764,26.5387 244.1904,26.5027 244.1704,26.4547" id="Stroke-15"></path>
                    <path d="M244.0225,26.3176 C243.1165,25.6226 242.2065,24.9356 241.2705,24.2786 C240.4055,23.6696 239.5205,23.0816 238.6145,22.5256 C237.1005,21.5926 235.5345,20.7416 233.9075,20.0196 C232.6495,19.4606 231.3505,18.9766 230.0425,18.5516 C227.0205,17.5616 223.9055,16.8636 220.8955,15.8406 C219.4525,15.3546 218.0225,14.7776 216.6635,14.0986" id="Stroke-17"></path>
                    <path d="M216.6631,14.0969 C217.8171,10.7699 220.1061,10.9799 222.9661,11.2599" id="Stroke-19"></path>
                    <path d="M223.1982,11.2825 C229.9682,12.0625 234.5652,15.5195 239.5262,19.4965" id="Stroke-21"></path>
                    <path d="M242.2529,21.8098 C191.6459,-22.7902 145.4149,15.1818 96.8019,14.7738 C84.0559,14.6678 71.3139,14.8168 58.5709,14.0318 C45.9829,13.2558 34.4269,6.8988 20.8019,13.3348 C6.5189,20.0838 2.9419,30.4408 0.3309,44.4768 C-2.2881,58.5088 17.3939,62.5798 10.9069,77.8758" id="Stroke-23"></path>
                    <path d="M223.1982,11.2825 C201.9622,2.8935 187.6902,12.8805 170.4422,20.7995 C153.2252,28.7035 135.6062,32.6275 117.0462,35.1365 C78.9462,40.2865 46.5572,50.5965 15.8562,75.4765" id="Stroke-25"></path>
                    <path d="M97.9619,14.7825 C61.5149,19.7865 31.7199,32.0035 2.8879,55.1255" id="Stroke-27"></path>
                    <path d="M272.1045,51.4407 C235.2065,24.1677 205.2905,29.1717 166.5615,45.7027 C131.8425,60.5197 94.1335,65.6507 61.2155,86.9877" id="Stroke-29"></path>
                    <path d="M263.4619,41.4914 C226.7979,13.0884 196.6319,24.6044 159.5379,37.4504 C124.3759,49.6264 86.6749,50.1474 53.2979,71.5204" id="Stroke-31"></path>
                    <path d="M221.251,77.3323 C216.411,78.1163 211.81,79.4813 207.245,81.2163" id="Stroke-33"></path>
                    <path d="M254.29,60.2375 C220.753,46.5425 196.776,55.4555 168.032,71.8795 C141.241,87.1865 112.333,95.1665 83.591,104.6785" id="Stroke-35"></path>
                    <path d="M178.1689,1.7004 C150.3989,13.3694 122.8959,23.6454 92.6299,27.8804 C61.0949,32.2884 36.1079,44.6574 11.2939,63.7634" id="Stroke-37"></path>
                    <path d="M37.8193,11.7864 C24.4503,18.0224 13.5963,26.8414 2.8953,36.6234" id="Stroke-39"></path>
                    <path d="M274.1963,50.2043 C236.7553,20.5293 205.3893,23.7173 164.1203,39.7313 C127.0143,54.1223 86.9713,57.4363 52.3973,81.7943" id="Stroke-41"></path>
                    <path d="M244.167,26.4543 C203.192,-0.2397 174.755,30.6163 140.388,38.1423 C104.815,45.9253 69.368,48.0633 37.31,71.2453" id="Stroke-43"></path>
                    <path d="M240.4912,67.1809 C203.3802,60.0449 182.1782,80.8829 155.4272,97.3409" id="Stroke-45"></path>
                    <path d="M144.7744,103.5129 C131.5924,110.5479 117.9444,114.5999 103.4154,117.4159" id="Stroke-47"></path>
                    <path d="M265.458,54.2063 C229.52,32.9913 201.888,39.3583 167.267,56.0053 C135.911,71.0733 101.542,77.2153 70.554,93.5823" id="Stroke-49"></path>
                </g>
            </g>
        </g>
    </g>
</svg>