<?xml version="1.0" encoding="UTF-8"?>
<svg width="174px" height="128px" viewBox="0 0 174 128" version="1.1" xmlns="http://www.w3.org/2000/svg" xmlns:xlink="http://www.w3.org/1999/xlink">
    <!-- Generator: Sketch 50.2 (55047) - http://www.bohemiancoding.com/sketch -->
    <title>Group</title>
    <desc>Created with Sketch.</desc>
    <defs></defs>
    <g id="Page-1" stroke="none" stroke-width="1" fill="none" fill-rule="evenodd">
        <g id="Group" transform="translate(1.000000, -7.000000)">
            <rect id="Rectangle" x="0" y="0" width="172" height="145"></rect>
            <polyline id="Stroke-1_1_" stroke="#FFFFFF" stroke-width="2" stroke-linecap="round" stroke-linejoin="round" points="137.502 109.521 137.502 88.501 158.521 88.501"></polyline>
            <path d="M137.502,88.502 L118.5,69.501" id="Stroke-4" stroke="#FFFFFF" stroke-width="3" stroke-linecap="round" stroke-linejoin="round" stroke-dasharray="0.032,6.467"></path>
            <path d="M169.159013,43.0873227 C146.362808,29.6302163 128.005577,32.9090183 106.044772,43.4685492 C86.1550228,53.0264884 64.0451525,57.1844583 44.3888333,67.5663796 M91.0215286,74.289541 C82.6599176,78.7526191 76.0763067,79.7034653 66.8602662,81.4897114 M152.492246,50.5570792 C128.951983,46.0312035 115.436519,59.4477133 98.4684496,69.8873578 M154.823373,24.7237484 C128.832096,7.79120079 110.793928,27.3637897 88.994875,32.1376847 C66.4295627,37.0746 43.4830238,38.8513314 23.1479818,53.5561459 M171.463499,38.5519322 C147.71391,19.7284756 130.225698,22.9876136 104.048566,33.1456198 C80.5114746,42.274124 55.1113846,44.3762617 33.1803926,59.8276712 M25.1809786,14.8822681 C16.7007497,18.8378898 7.87418196,25.5946702 1.08695414,31.799592 M113.697213,8.21175519 C96.0821364,15.6136394 77.8987091,22.9419425 58.7003691,25.6282892 C38.6970767,28.4243733 22.0176229,36.8716175 6.27759762,48.9915766 M161.531945,46.3464607 C140.258109,37.6594434 124.762297,43.119673 106.530027,53.5377506 C89.5359503,63.2472923 70.9154762,67.7262283 52.6838406,73.7598835 M140.640604,56.8000602 C137.570494,57.2973673 134.375422,58.3427273 131.47975,59.4432731 M166.677552,33.8719166 C143.42083,15.8553155 124.670955,23.5502557 101.141476,31.698735 C78.8375032,39.4222197 54.9229914,39.7527006 33.7512809,53.3100296 M171.684242,40.1967248 C148.279724,22.8969058 130.163535,26.4478311 105.596942,36.9331466 C83.5739733,46.3318713 59.4349121,49.7654474 38.554989,63.3005752 M62.0825653,17.3199612 C38.9634913,20.4941002 20.0639162,28.243592 1.77519173,42.9103473 M141.522944,15.0998399 C128.052517,9.77852647 118.999497,16.1134839 108.058739,21.1366668 C97.1370111,26.1503349 85.9615551,28.6394079 74.1885693,30.2309177 C50.0209637,33.4976676 29.4759617,40.0375104 10.0016924,55.8194009 M153.609284,21.7773303 C121.508868,-6.51272324 92.1829692,17.573055 61.3467537,17.3148866 C53.2617064,17.2476487 45.1791964,17.3421624 37.0960521,16.8435866 C29.1112275,16.3519883 21.7810214,12.3196138 13.1384066,16.4020996 C4.07840894,20.6831277 1.80944503,27.2527836 0.153234578,36.1554698 C-1.50805043,45.0562531 10.9766428,47.6392056 6.86180667,57.3417697 M141.522944,15.0998399 C145.817293,15.5946098 148.733263,17.7874553 151.880127,20.3101473 M137.377026,16.8848174 C138.109032,14.7750679 139.560991,14.9082752 141.375147,15.0852506 M154.732031,24.6368465 C154.157971,24.1959938 153.580105,23.7602158 152.986381,23.3441016 C152.437694,22.9571662 151.876321,22.5841858 151.301626,22.2315037 C150.341265,21.6396828 149.348554,21.0998762 148.31588,20.6418969 C147.517905,20.2873118 146.693923,19.9803008 145.864232,19.7107146 C143.947316,19.0827375 141.971408,18.6399818 140.062104,17.9917064 C139.147414,17.6827924 138.239702,17.3167896 137.37766,16.8860861 M152.961643,24.3437905 C152.794816,24.2391276 152.617207,24.1186068 152.461164,24.0050634 C152.423105,23.978422 152.38568,23.9498776 152.340009,23.9086467 C152.322248,23.8858112 152.298778,23.8585354 152.307658,23.845849 C152.314002,23.8382372 152.333666,23.8331626 152.349524,23.8331626 C152.38568,23.8331626 152.41803,23.8407744 152.449112,23.8540952 C152.575342,23.8915201 152.692691,23.9321166 152.806869,23.978422 C153.420256,24.2181951 154.019689,24.5226688 154.621659,24.7833745 C154.688897,24.8106503 154.755501,24.839829 154.834791,24.8639332 C154.869678,24.8747166 154.904566,24.8816942 154.915349,24.8658361 C154.925499,24.8563213 154.925499,24.8334858 154.915349,24.8150905 C154.893148,24.7770313 154.838597,24.7548301 154.825276,24.7237484 M169.106999,35.7970788 C168.300778,35.1513407 167.488848,34.5106772 166.677552,33.8719166 C166.054649,33.3809526 165.426038,32.8969662 164.795523,32.4142484 C163.575091,31.4786259 162.338801,30.5626673 161.086652,29.6727158 C160.000696,28.9032852 158.907127,28.1535186 157.79453,27.4284904 C156.195408,26.3774216 154.570913,25.3713895 152.961643,24.3437905 M136.85942,59.1210383 C143.660603,54.7061687 150.985101,51.3956507 158.168779,47.74704 C163.57636,44.9991643 177.485736,42.6115824 169.106999,35.7970788 M120.818093,58.8026095 C126.18254,59.4680116 131.45628,59.6982699 136.85942,59.122307 M94.9853965,69.877843 C106.520512,71.0824173 111.18911,60.6338924 120.821265,58.8026095 M31.6846652,59.0125696 C52.4453361,70.1816824 71.2624495,99.1872493 94.9853965,69.8784773 M33.7512809,53.3062236 C32.7192417,55.1134023 33.0662149,57.2669199 31.6846652,59.0125696 M6.86244099,57.3436727 C15.7543437,52.572315 24.619605,53.795919 33.7487436,53.306858" id="Stroke-1" stroke="#FFFFFF" stroke-width="2" stroke-linecap="round" stroke-linejoin="round"></path>
            <path d="M65.9492587,99 L82.9992587,99 C83.7992587,99 84.0492587,99.25 84.0492587,100.05 L84.0492587,103.1 C84.0492587,103.95 83.7992587,104.2 82.9992587,104.2 L69.5992587,104.2 L68.4992587,112.3 L73.5992587,112.3 C80.4992587,112.3 86.3992587,114.55 86.3992587,123.05 C86.3992587,131.1 80.4992587,134.65 72.9992587,134.65 C68.1492587,134.65 64.5492587,132.65 61.3492587,129.5 C60.7992587,128.95 60.9492587,128.65 61.4492587,128.05 L63.4992587,125.85 C63.9992587,125.3 64.4492587,125.2 64.9492587,125.75 C66.9992587,127.7 69.1992587,129.35 72.9992587,129.35 C78.0492587,129.35 80.4492587,127.45 80.4492587,123.25 C80.4492587,119.5 78.0992587,117.6 73.1492587,117.6 L63.7492587,117.6 C62.9492587,117.6 62.5992587,117.35 62.6992587,116.55 L64.8492587,100.05 C64.9992587,99.2 65.0992587,99 65.9492587,99 Z" id="5" fill="#FFFFFF"></path>
        </g>
    </g>
</svg>