<?xml version="1.0" encoding="UTF-8"?>
<svg width="158px" height="124px" viewBox="0 0 158 124" version="1.1" xmlns="http://www.w3.org/2000/svg" xmlns:xlink="http://www.w3.org/1999/xlink">
    <!-- Generator: Sketch 50.2 (55047) - http://www.bohemiancoding.com/sketch -->
    <title>Group</title>
    <desc>Created with Sketch.</desc>
    <defs></defs>
    <g id="Page-1" stroke="none" stroke-width="1" fill="none" fill-rule="evenodd">
        <g id="Group" transform="translate(-2.000000, -10.000000)">
            <rect id="Rectangle" x="0" y="0" width="172" height="145"></rect>
            <polyline id="Stroke-1_1_" stroke="#FFFFFF" stroke-width="2" stroke-linecap="round" stroke-linejoin="round" points="137.502 109.521 137.502 88.501 158.521 88.501"></polyline>
            <path d="M137.502,88.502 L118.5,69.501" id="Stroke-4" stroke="#FFFFFF" stroke-width="3" stroke-linecap="round" stroke-linejoin="round" stroke-dasharray="0.032,6.467"></path>
            <path d="M78.642013,100.233643 C79.240555,100.668904 79.851693,101.078973 80.4819582,101.466182 M55.7453311,76.3050244 C62.9152395,83.1185134 68.6207493,91.622662 76.0057222,98.2696042 M40.7719835,67.2018672 C46.0137748,68.6415404 50.13779,71.2274473 54.1143857,74.8145008 M33.3590195,65.8191092 C35.3300562,66.0663635 37.2759009,66.3957249 39.2189465,66.8090595 M29.7705664,65.1683172 C30.622894,65.3306653 31.4831524,65.5933147 32.4017254,65.7239396 M99.6805554,113.664684 C93.266872,119.125738 88.7318548,124.680096 78.9457159,121.139228 M16.9996482,73.8945282 C15.4186202,73.8180193 8.63732091,74.3913694 7.05675941,74.4940032 C7.99352667,73.7942269 8.70869809,73.2278746 8.19319619,71.9150942 C6.75865469,70.8201774 5.37123147,73.1107787 4.00433502,71.5484114 C3.87417662,68.2762572 6.70360562,68.5953552 8.63872046,67.6861125 C11.21623,71.3977262 13.6192619,68.8178841 16.5466596,68.5039178 M22.0604307,54.3698352 C23.2085304,54.9800402 24.2815208,54.5116566 34.5463067,65.9861225 M95.1441386,30.5937678 C95.0928217,30.5998325 95.0419713,30.6068303 94.9901878,30.6124285 M47.9899432,29.3043132 C50.4601537,24.8677312 52.6238621,20.9214592 55.7234048,16.8692877 M4.11350013,70.3718541 C6.40223528,69.7933723 7.42997346,69.5829729 9.75463046,69.1896986 M55.7453311,76.3148213 C61.4550395,71.3380119 76.9737462,24.0443277 88.591433,23.3758081 C89.177379,23.4476518 89.839834,23.5222946 90.4276461,23.5843414 C89.6373653,23.7196315 91.1124939,24.171687 91.4852414,24.3498968 M17.7577392,65.801848 C18.1925336,65.9408703 18.561549,66.06683 18.9898121,66.2217139 M42.8148639,67.8395968 C47.8784455,61.4091187 63.9495089,18.8207306 73.7221188,14.3962781 M77.885788,99.673822 C96.5534882,95.4117176 99.7915866,77.3868786 111.602412,67.699175 M13.4097955,53.5189072 C23.9456281,53.035595 28.3812771,59.4432137 34.2556662,65.9376047 M65.2095729,86.5950022 C81.1014935,83.4058882 90.9072261,46.3200747 100.254838,38.9099098 M79.4593517,120.321889 C85.3976538,123.021626 91.3718776,120.641454 95.950281,115.89697 M18.6604507,70.1633207 C22.8829011,67.5876773 28.0771076,64.9537191 33.3557538,65.8205088 M86.9422934,115.224718 C92.1612253,113.532659 95.8817029,110.510558 100.010383,107.191753 M15.3407117,63.3115773 C21.3746499,60.8297039 24.9742993,61.6335136 30.3000638,65.2798149 M21.5948461,94.6788185 C47.1912651,77.5100393 62.823802,103.656482 83.1704989,106.66692 M13.0557087,86.575875 C26.3631221,74.1128584 37.6047958,59.2225509 55.7453311,76.3045579 M72.7130413,131.376023 C73.3372418,131.448333 73.9129245,131.486587 74.5403906,131.499183 M40.2779414,109.270555 C43.3429618,110.82779 50.8655574,117.343175 53.3866183,119.607184 M49.5229199,71.2395767 C53.5228414,66.4675686 71.4874997,20.6756044 80.3765253,18.4820389 M34.0060793,65.376384 C48.4634585,49.6024923 47.0690375,26.8522969 65.2730192,12.4886878 M8.22305331,73.3356401 C11.2983371,72.747828 14.2691209,72.5896786 17.3765944,72.3718149 M70.194313,92.314041 C83.450876,90.8641044 86.45245,81.3849341 91.9340313,72.2663819 C94.3006749,68.324775 103.684209,49.5661039 110.380602,48.6848522 M60.5290022,81.2445123 C83.4723358,69.8978722 73.5849626,42.9648804 93.4119589,30.0777994 M94.9463352,116.283713 C97.1156418,114.808585 95.605991,115.981876 98.3001299,113.803706 M19.306111,65.801848 C22.8525775,64.404628 26.0295621,63.9264475 29.7696334,65.1767145 M82.9573004,107.546306 C94.4616234,104.882957 99.4589595,96.6349266 107.053865,89.5853798 M14.0013398,58.3301028 C22.6902294,56.2009167 26.9327401,60.313269 32.4936294,65.7244061 M79.042285,100.519152 C79.4798785,100.825654 79.9202711,101.124225 80.3685945,101.412066 M16.2275616,90.5636671 C48.4336014,62.8464593 52.3458176,81.1745347 78.642013,100.23271 M82.7254412,115.874577 C84.1525184,116.386814 85.5609349,116.802947 87.980295,116.391945 M18.256913,75.3136746 C25.1123885,69.6888724 30.423691,64.099992 40.7673183,67.209798 M26.9854566,100.23271 C51.6152511,90.8407785 58.9988246,120.633989 81.353413,117.452806 M93.4119589,30.0777994 C95.2906251,29.907987 98.0066904,29.444735 99.8419705,28.9586237 M93.7240592,27.7321491 C95.6283838,27.5651358 96.7811487,27.2833592 98.6299578,26.7902501 M81.1313507,17.1459326 C76.0491084,14.7349698 70.7032836,13.4851693 65.2730192,12.4886878 M92.3011806,24.6148787 C87.9546365,22.8915629 76.1899967,24.6195439 81.1318172,17.1449996 M110.326953,48.4847162 C107.022142,44.1904221 102.786163,41.0820156 98.7825091,37.6181227 C96.7386956,35.8514207 94.9901878,33.9974799 93.720327,31.5501288 C92.550301,29.3005811 95.2962233,26.5481275 92.3030467,24.6144122 M106.730569,91.0679726 C109.80212,76.9147629 114.554068,63.8564698 110.326953,48.4847162 M99.6688924,113.654887 C96.0477831,115.048841 99.3754529,109.802385 99.8475687,107.836013 C100.32295,105.867776 100.956947,103.958319 101.676784,102.066591 C103.120189,98.2822001 104.854702,94.652227 106.731035,91.0661065 M86.9045055,111.013464 C84.5289981,119.439705 94.3958445,117.974373 99.79112,113.54059 M82.5794212,108.673412 C83.8735409,110.160204 84.9689241,110.633253 86.904039,111.013464 M81.6440535,111.097438 C82.9950883,107.433409 85.0160424,104.148658 80.4828913,101.464316 M84.0942037,114.753536 C83.2973917,113.52053 83.6178893,111.687582 81.6431204,111.097438 M72.4979767,126.752834 C78.9438498,124.649773 79.2998027,118.009362 84.0942037,114.753069 M74.8688189,132.054806 C74.207297,130.224191 69.4455523,128.988852 72.4979767,126.750968 M65.0990082,128.298406 C69.611166,127.145642 71.0811629,131.805219 74.8683524,132.054806 M59.3510453,120.739889 C59.5175921,121.073449 59.7060652,121.394413 59.9164646,121.703248 C60.0993395,121.970096 60.3018081,122.220149 60.5224709,122.454808 C60.7198079,122.66474 60.9297408,122.859745 61.1527361,123.044486 C61.6845662,123.489077 62.2705122,123.868356 62.7827485,124.336273 C63.0845854,124.610585 63.3570316,124.913355 63.6019533,125.24085 C63.9033237,125.639256 64.1529106,126.072185 64.3763725,126.518642 C64.6618812,127.093858 64.8923409,127.691934 65.0980752,128.297473 M41.063557,110.451777 C47.4716422,113.376842 50.4065041,121.143427 59.3510453,120.739889 M24.9980917,105.554276 C30.0294836,109.045227 36.9843274,103.294931 41.0640235,110.451777 M15.1279797,88.409289 C16.8526951,95.2820257 32.5430802,95.8959628 24.9976252,105.554276 M11.0459511,90.4792274 C13.2945657,91.7420905 13.0085904,86.5012322 15.1270467,88.409289 M13.4835053,86.6603147 C12.4846912,87.8303407 11.588511,88.9938355 11.0459511,90.4801605 M6.75725514,88.2511396 C9.10617106,88.0589343 10.7809691,85.9927281 13.4816393,86.6603147 M17.4689648,74.0270192 C17.6107862,74.0573428 17.752141,74.1081932 17.8771677,74.1856351 C17.9853998,74.2532802 18.0829019,74.3442511 18.1477479,74.4515501 C18.2177255,74.5709786 18.2513148,74.7048692 18.2667099,74.8415588 C18.3133616,75.2217706 18.2139934,75.5954512 18.0857011,75.9542032 C17.8850985,76.5084261 17.6107862,77.024861 17.3154806,77.5287 C16.9338692,78.1766929 16.5084052,78.8008933 16.0619479,79.4064331 C15.4960621,80.1803858 14.8947209,80.9282134 14.2733196,81.6573804 C13.0659721,83.0667299 11.7783836,84.4093675 10.3872283,85.6377082 C9.76955903,86.1812012 9.13509514,86.7055669 8.46564245,87.1874795 C7.91795083,87.5765552 7.35299806,87.9418384 6.75725514,88.2502065 M19.506247,65.7244061 C15.8431511,68.7609689 21.764192,72.1226945 17.2935542,73.983633 M12.9684699,53.6938513 C15.1144507,57.6396568 11.9757206,65.214969 19.6471353,65.4463617 M22.0604307,54.3698352 C18.9207675,52.2495129 16.3446575,52.2966312 12.9689365,53.6924517 M17.7577392,73.3356401 C16.9422665,70.6363695 16.55599,67.9692886 17.7577392,65.4463617 M50.879553,22.4203801 C44.5671038,35.78051 42.751884,50.6097037 30.6928716,61.8383149 M60.9423367,12.0860831 C60.6689574,12.3897861 60.3867143,12.6836921 60.0984065,12.972933 C59.7774424,13.2999618 59.4541457,13.6167272 59.1177865,13.9264949 C58.0312672,14.9299742 56.8691719,15.8434156 55.7658579,16.8301002 C55.2284296,17.3115463 54.7073295,17.8130527 54.2025575,18.3308872 C52.979815,19.5918842 51.8779005,20.9723096 50.8823521,22.4213132 M65.2730192,12.4886878 C61.4424436,12.8749643 61.8063272,11.6788133 60.9423367,12.0856166 M102.364897,27.4293792 C99.2504262,27.4494394 96.5045038,25.6939338 93.3956308,25.6939338 M95.1441386,30.5937678 C97.9968935,30.292864 100.080827,28.8275323 102.36583,27.4289126 M93.4618763,30.7808413 C94.0081684,30.7211271 94.4429627,30.6674776 94.9892548,30.612895" id="Stroke-1" stroke="#FFFFFF" stroke-width="2.179" stroke-linecap="round" stroke-linejoin="round"></path>
            <path d="M139.05,40.5 C133.1,40.5 128,36.8 128,29.55 C128,22.7 132.8,17 140.45,17 C151.75,17 154.3,25.05 154.3,33.85 C154.3,44.1 150.95,53.3 140,53.3 C135.55,53.3 132.05,51.75 128.8,48.7 C128.2,48.15 128.35,47.85 128.9,47.2 L131.05,44.9 C131.6,44.3 131.95,44.15 132.6,44.8 C134.95,47 137.15,48 140.45,48 C145.7,48 148.3,42.9 148.3,35.8 C147.05,38.2 144.4,40.5 139.05,40.5 Z M140.8,22.1 C136.4,22.1 134,25.3 134,29.15 C134,33.05 137.1,35.7 140.8,35.7 C144.7,35.7 147.9,32.6 147.9,28.95 C147.9,26.2 146.15,22.1 140.8,22.1 Z" id="9" fill="#FFFFFF"></path>
        </g>
    </g>
</svg>