<?xml version="1.0" encoding="UTF-8"?>
<svg width="155px" height="126px" viewBox="0 0 155 126" version="1.1" xmlns="http://www.w3.org/2000/svg" xmlns:xlink="http://www.w3.org/1999/xlink">
    <!-- Generator: Sketch 50.2 (55047) - http://www.bohemiancoding.com/sketch -->
    <title>Group</title>
    <desc>Created with Sketch.</desc>
    <defs></defs>
    <g id="Page-1" stroke="none" stroke-width="1" fill="none" fill-rule="evenodd">
        <g id="Group" transform="translate(-5.000000, -8.000000)">
            <rect id="Rectangle" x="0" y="0" width="172" height="145"></rect>
            <polyline id="Stroke-1_1_" stroke="#FFFFFF" stroke-width="2" stroke-linecap="round" stroke-linejoin="round" points="137.502 109.521 137.502 88.501 158.521 88.501"></polyline>
            <path d="M137.502,88.502 L118.5,69.501" id="Stroke-4" stroke="#FFFFFF" stroke-width="3" stroke-linecap="round" stroke-linejoin="round" stroke-dasharray="0.032,6.467"></path>
            <path d="M141.548484,10.385932 C142.645407,10.3766326 143.734243,10.2860647 144.821462,10.1635554 M141.023271,10.3831017 C140.815854,10.3467128 141.233113,10.385932 141.33662,10.385932 M131.877934,44.6331332 C129.517508,46.5176733 126.519064,49.5043925 123.782619,50.874232 M111.302443,18.5346173 C112.93307,20.3528488 114.350619,22.0142038 115.878548,23.917747 M85.1897762,25.9340958 C91.584517,15.9073395 98.497193,5.48717882 109.709419,16.8461728 M35.0640809,34.7074571 C44.7629329,37.3185621 50.5588744,43.7035992 60.2403406,46.3442196 C70.7348963,49.661269 74.3523562,42.1942689 79.7734921,34.2707904 M65.4989394,44.8923029 C66.7656771,45.0807165 69.1062913,44.9731671 70.3839457,44.8914943 M42.6374174,31.444991 C43.3482137,32.057133 44.0634576,32.6660404 44.7815317,33.2692873 C45.4660471,33.8426145 46.1529885,34.4098768 46.8455903,34.9698614 C48.056936,35.9503398 49.2848589,36.9081762 50.5414886,37.8296238 C52.6168682,39.350275 54.7694732,41.1895313 57.0453961,42.3927905 M20.3463924,14.0369506 C24.4029449,17.0499506 34.9528926,24.7195155 38.7425933,28.0450557 M132.546681,10.8177468 C135.368842,9.3925153 137.521851,9.14749678 140.607225,10.1413178 M63.8185814,57.4808371 C75.1436124,57.0502352 83.08852,49.3907783 93.5442609,47.3299542 C105.20973,45.0297721 114.3769,49.5023709 124.26174,53.7606796 M72.5474673,75.9490071 C85.6341249,72.0650997 97.1540387,68.1096274 111.497326,71.1468867 M118.368761,34.6965404 C120.736465,38.1324602 122.98732,41.5202658 126.969882,43.5944325 M42.5161211,41.4697257 C60.6673035,46.289232 64.9268252,53.836692 80.2372483,35.7603089 C90.9456898,23.1171914 99.2071807,13.2307345 114.686206,26.1196792 M128.759002,27.6342656 C132.676873,21.7162192 134.742953,16.1466975 141.33662,12.0933795 M25.3252011,18.7719537 C32.1748031,21.7869754 37.1948525,26.7297995 42.6358002,31.4457996 M128.654687,45.0160251 C131.760681,40.8127041 134.357231,36.6372812 137.013215,32.1638737 M30.1887783,27.5137779 C44.0982292,31.9439231 51.030717,47.8131178 69.2789364,45.4320714 M79.2070384,82.7893097 C91.8736065,78.3312664 103.331255,77.3726214 116.549317,79.0598529 M8.85356812,10.5488733 C13.3059509,11.2564351 16.9383707,13.0746666 20.576451,15.5778179 M60.1299609,49.9592536 C73.8950692,51.302408 79.7152699,40.9170189 89.1104768,35.5237812 C101.414773,28.4606977 109.713462,33.0089046 120.135644,39.3846423 M66.8404765,66.7616212 C76.0593995,65.3901644 84.0556558,60.5443772 93.3182454,59.2760223 C103.05106,57.9454019 111.711212,60.5645933 120.600613,63.4696396 M122.991768,48.012448 C125.248283,48.5534295 126.875675,48.6334851 128.654687,47.3465314 M79.7734921,34.2707904 C87.9759521,22.2883334 96.1763905,1.65098122 111.301635,18.5366389 M131.526984,16.2692068 C134.371382,13.300682 136.881407,10.4312159 141.548484,10.4049351 M64.3704795,44.6966116 C66.7774024,44.7839449 69.2813623,44.571272 71.6025691,44.0367597 M125.599638,41.7717535 C130.629391,34.6193151 134.389172,26.988565 139.470274,19.8636204 M27.8764666,22.945355 C41.8154329,28.2407471 49.1198959,42.5096393 65.4997481,44.8914943 M25.7347783,19.3157655 C22.861269,16.9702994 19.8996177,14.917966 16.4883615,13.3819505 C13.6471978,12.1042962 1.57740751,9.72446284 7.71944773,10.3843147 C15.7444108,11.2422838 21.7404912,12.9606481 26.4572999,20.3799383 C30.2575129,26.3582285 31.5286981,33.5248182 38.8861273,37.5154664 C42.2533125,39.3425929 42.58526,43.4387689 46.200294,45.0985066 C49.5897169,46.6551425 53.1194392,47.512303 56.7126399,48.3346919 M72.0788593,43.6550807 C67.9179919,44.561164 63.600248,44.6108955 59.5206492,43.3999541 M141.284462,10.3871449 C130.172508,6.23759858 132.789274,11.9433765 130.833978,20.2719846 C129.331521,26.6841113 127.684721,32.4371947 122.991768,37.5526639 M58.370356,47.8050314 C65.4698283,55.5550562 64.4772203,65.9901767 70.5569951,74.0110966 C72.3012358,76.3133003 74.9301309,77.2541553 76.9424365,79.110393 C78.6810168,80.7159517 78.4934119,84.1660227 82.0878255,83.993782 C86.5236311,83.7819178 90.6622608,82.1557387 95.1073658,81.970964 C102.409807,81.6677233 122.942036,87.2639302 114.918286,76.0561522 C112.476591,72.6473219 109.864273,69.6767755 109.415073,65.076007 C108.956977,60.3798186 113.982687,63.9847446 116.452684,64.3029452 C119.96219,64.7541674 121.485672,63.2108742 122.947697,60.3195748 C125.57174,55.1256673 123.814156,50.9660129 122.449573,46.1647011 C121.104801,41.4442535 119.100178,36.9797411 117.532221,32.3486484 C116.617243,29.6433366 112.786301,27.589386 115.735823,24.0786668 C118.064308,21.3070464 117.712953,27.1054137 118.480758,28.7635341 C120.592122,33.3186145 122.899582,37.7212658 125.691419,41.9124572 C133.380391,53.4570345 136.502962,33.3267009 138.630499,25.6187254 C139.470678,22.573784 139.274178,19.4277624 140.012468,16.3771605 C140.736607,13.3738641 140.892271,10.5419999 144.889388,10.1542561 C147.061805,9.94279617 149.60458,10.1934752 148.461969,12.8623981 C146.916654,16.4814753 144.288972,11.826932 142.480848,10.9075061 M56.7130442,48.3346919 C57.2588776,48.1377875 57.812393,47.9606949 58.3707603,47.8050314" id="Stroke-1" stroke="#FFFFFF" stroke-width="2" stroke-linecap="round" stroke-linejoin="round"></path>
            <path d="M33.55,102.5 L39.95,98.65 C40.6,98.25 41.5,97.65 42.2,97.65 L44.65,97.65 C45.45,97.65 45.7,97.9 45.7,98.7 L45.7,131.6 C45.7,132.4 45.45,132.65 44.65,132.65 L40.7,132.65 C39.9,132.65 39.65,132.4 39.65,131.6 L39.65,105.2 L34.05,106.55 C33.25,106.6 33,106.35 33,105.55 L33,103.65 C33,103.15 33.05,102.85 33.55,102.5 Z M56.8,115.15 C56.8,121.55 58.65,128 64.85,128 C71.05,128 72.9,121.55 72.9,115.15 C72.9,108.8 71.05,102.3 64.85,102.3 C58.65,102.3 56.8,108.8 56.8,115.15 Z M50.7,115.15 C50.7,105.2 55.15,97 64.85,97 C74.55,97 79,105.2 79,115.15 C79,125.1 74.55,133.3 64.85,133.3 C55.15,133.3 50.7,125.1 50.7,115.15 Z" id="10" fill="#FFFFFF"></path>
        </g>
    </g>
</svg>