<?xml version="1.0" encoding="UTF-8"?>
<svg width="167px" height="136px" viewBox="0 0 167 136" version="1.1" xmlns="http://www.w3.org/2000/svg" xmlns:xlink="http://www.w3.org/1999/xlink">
    <!-- Generator: Sketch 50.2 (55047) - http://www.bohemiancoding.com/sketch -->
    <title>Group</title>
    <desc>Created with Sketch.</desc>
    <defs></defs>
    <g id="Page-1" stroke="none" stroke-width="1" fill="none" fill-rule="evenodd">
        <g id="Group" transform="translate(1.000000, 1.000000)">
            <polyline id="Stroke-1_1_" stroke="#FFFFFF" stroke-width="2" stroke-linecap="round" stroke-linejoin="round" points="139.502 102.521 139.502 81.501 160.521 81.501"></polyline>
            <path d="M139.502,81.502 L120.5,62.501" id="Stroke-4" stroke="#FFFFFF" stroke-width="3" stroke-linecap="round" stroke-linejoin="round" stroke-dasharray="0.032,6.467"></path>
            <path d="M151.501602,44.8508957 C153.505658,44.5362255 155.957463,44.7538724 157.907107,44.181566 M85.5218192,14.9893505 C89.397507,17.6450357 93.2358278,20.3643106 97.0348147,23.1379972 M60.7612088,2.00658295 C68.41425,4.36792049 75.0708356,8.17084082 81.7005431,12.4555999 M20.6119151,8.6428461 C31.7591065,2.81226975 41.7459516,-1.72815884 55.1810575,0.64104545 M110.504665,86.9006662 C111.184484,87.1052019 111.990171,87.3228487 112.656878,87.5575403 M96.7004776,87.0822572 C94.0592147,86.3375377 91.4022184,85.7953872 88.677699,85.4525278 M111.47621,44.1428878 C94.1011708,38.9934413 77.1450366,33.6551927 58.626696,32.9838963 M114.494421,45.0357644 C113.964071,44.8790849 113.020716,44.5572035 112.486432,44.3985573 M137.589902,49.7669618 C133.12683,49.4627807 128.76537,48.7868953 124.419643,47.7229167 M156.3213,46.9028076 C151.063686,48.8386848 144.902706,49.8908632 139.251754,49.8357959 M164.544026,42.5413476 C160.878118,44.0334088 158.125409,44.5585147 154.20711,45.2337444 M113.436998,48.7508394 C80.0170576,42.6069039 49.5484611,53.4787589 17.9037848,56.6162829 M85.3612063,26.1784979 C61.9313886,4.93039345 40.8006299,-0.00140618339 11.6844596,16.0834849 M140.671047,34.8483171 C131.682625,42.1296541 124.262308,47.6796496 111.482765,44.1369877 M96.3674517,23.7266927 C91.669688,19.71137 86.9122681,15.8304376 81.7005431,12.4588777 M153.420435,45.0927984 C148.479457,47.7281612 143.3759,50.1288325 137.591213,49.8062956 M119.811036,14.1187629 C101.037026,28.4165896 78.9897906,29.9440511 58.0124336,31.5659137 M65.0046674,28.5654024 C48.2366798,21.5712019 35.5508823,24.751993 20.5470144,33.4041121 M133.432978,18.6677138 C120.227974,31.4616792 112.762424,42.7203163 91.8591457,38.4880023 M86.708388,85.2847037 C74.3759389,86.9688448 62.6275964,92.9803565 50.2151686,94.455373 M110.32373,91.2227924 C109.959237,90.9900676 109.380375,90.41055 109.005393,90.1876586 M98.7582896,67.2173904 C66.8317212,64.2313015 36.3139575,77.454005 3.37323331,68.2748134 M110.471887,87.4165942 C75.6909981,78.8333093 41.374903,89.311171 6.60581393,80.8721099 M67.704931,33.8420281 C57.7279193,34.5998588 50.2020573,36.5337693 40.80653,39.6634266 M96.8309347,56.887686 C65.6982529,53.9868202 38.4930485,71.100945 6.17642024,63.2263236 M92.7874227,25.2928324 C81.5550082,14.6792692 72.2525707,3.6310678 55.175813,0.64104545 M147.683604,41.2275996 C140.258698,46.375735 133.880727,49.9714975 124.145618,47.6514604 M67.7134533,33.8420281 C66.6311189,33.6676483 65.5487846,33.4998242 64.463828,33.3365891 M129.548767,14.343621 C112.302874,30.197754 100.734156,38.828895 77.1194696,35.1092311 M77.1194696,27.5092905 C52.648618,9.0597841 32.3130571,14.1934971 7.61931416,27.5210907 M138.512279,24.9348951 C127.100896,35.857884 118.745091,45.7772061 100.51782,40.9044071 M111.790224,87.7896095 C111.38902,87.5935962 110.882925,87.3339933 110.471887,87.1543691 M101.359563,77.4297492 C83.9091345,75.030389 68.2359369,78.3980155 51.3820705,81.1762911 C33.2216673,84.1709024 18.1915769,77.90241 1.65303629,73.8025197 M88.6750767,85.4544945 C63.1402465,82.6290184 39.1046887,93.173092 13.0703196,87.565407 M109.156173,91.5853187 C105.052349,89.7733428 101.035059,88.3042264 96.7017888,87.0665237 M148.723326,44.1868105 C148.812483,44.0851983 148.833461,43.952119 148.83215,43.8210064 C148.83215,43.6571157 148.789538,43.4997806 148.743649,43.3444122 C148.583692,42.8042284 148.3195,42.3066561 148.033019,41.8143284 C147.171609,40.3321007 146.157453,38.9423074 144.98334,37.6869044 C144.189453,36.8340171 143.317555,36.0440638 142.30471,35.467824 C141.555402,35.0515416 140.726115,34.7512938 139.858805,34.7670273 M156.3213,46.9028076 C161.382246,45.0875539 151.163332,45.4127131 148.723326,44.1848438 M158.2362,46.1062986 C157.838273,46.2374112 157.471813,46.4504692 157.088964,46.6130488 C156.835917,46.7218722 156.57697,46.8057843 156.317367,46.9054298 M159.024186,43.9291743 C160.122254,43.6210597 161.212455,43.295245 162.305278,42.9943416 C162.73205,42.8828959 163.159477,42.7681724 163.588215,42.6790159 C163.939597,42.6016594 164.289012,42.5380698 164.656127,42.545281 C164.744628,42.5465921 164.833129,42.54987 164.907208,42.6010039 C164.947197,42.6246041 164.983908,42.6685268 164.994397,42.7124496 C165.016031,42.7799725 164.971453,42.8533956 164.92163,42.9235408 C164.81674,43.0559645 164.698739,43.14971 164.569593,43.2414888 C164.155932,43.5522256 163.691138,43.8092063 163.222411,44.04062 C162.533414,44.390035 161.822784,44.6955273 161.105598,44.989875 C160.15831,45.3773127 159.196599,45.7450835 158.2362,46.1089209 M157.907107,44.1802549 C158.270944,44.0524201 158.642649,43.973097 159.024186,43.9298298 M114.909393,48.7206835 C115.408276,47.3289234 115.043783,46.2682227 114.498355,45.0357644 M98.2305614,52.8756411 C104.699,53.7855624 108.719568,48.4387914 114.90677,48.7206835 M98.5419538,67.5923724 C102.10756,62.1748007 93.3367844,58.2237231 98.2305614,52.8795744 M100.332952,76.0851897 C105.871802,74.4705383 100.6686,70.3129584 98.5419538,67.5923724 M113.545822,82.8558432 C109.046038,80.7803311 103.701889,81.2556142 100.332952,76.0858452 M111.270363,89.1590804 C108.841502,86.1500467 112.607056,84.8979216 113.545822,82.8558432 M109.038827,89.3249378 C109.797969,88.6267633 110.499421,89.6625527 111.270363,89.1590804 M109.005393,91.2975266 C110.127061,91.9799675 108.453409,90.0316346 109.038827,89.3249378 M110.844903,92.3877276 C110.269318,91.9498116 109.354808,92.2225258 109.005393,91.2975266 M110.85408,89.2744595 C110.179506,90.3967831 109.969071,91.2575372 110.844903,92.3883832 M111.908881,87.5378734 C111.687956,88.0282344 111.416553,88.4766394 111.088772,88.9014442 M118.155084,89.9195334 C115.157851,91.0274346 113.96276,88.4025608 111.908881,87.5378734 M112.656878,87.5575403 C114.552111,88.2137587 116.376542,88.993223 118.151151,89.9195334 M83.9196235,86.5807516 C85.5021523,86.2024918 87.08337,85.8255431 88.6658988,85.4577723 M78.0647913,89.7713761 C79.8295666,88.2655482 82.1850041,88.159347 83.9196235,86.5833738 M69.5011733,91.155925 C72.4361283,91.0490682 75.2511154,90.723909 78.066758,89.7713761 M61.2017471,92.8518662 C64.2488034,93.1245803 66.7818984,92.0173346 69.5011733,91.1565805 M57.156924,94.9234449 C58.6253849,94.4245615 59.8447319,93.5244737 61.2017471,92.8518662 M47.7345186,93.8116102 C50.8602425,94.8192104 53.9276212,95.034235 57.1556129,94.9241005 M43.4019035,94.6317194 C44.8179193,94.1039913 46.2916247,94.0902245 47.733863,93.8116102 M35.5299043,95.4603509 C38.2432791,95.643253 40.6131389,94.1643031 43.4005923,94.6317194 M11.2917775,86.6502412 C18.9782524,90.9992454 27.7962288,91.3198157 35.5299043,95.4636287 M5.51495728,79.0116224 C6.65694783,82.3136927 10.3248222,83.1574021 11.292433,86.6502412 M1.45964523,76.9393881 C2.61605817,78.1810242 4.07009667,78.4734053 5.51495728,79.0116224 M3.98946243,76.8154867 C3.14968637,76.8777652 0.966006376,75.3247367 1.45767854,76.938077 M0.0475627649,74.1689793 C-0.594888869,77.058045 5.50971277,74.0503225 3.99142912,76.8141756 M7.47771257,71.3907038 C4.96952895,72.2468689 2.7799489,73.7730193 0.0475627649,74.1689793 M2.7039036,67.2173904 C3.74755972,69.4397486 5.91353952,69.9609211 7.47705701,71.3939816 M14.5748364,59.1415112 C8.96387365,59.9983319 5.887317,63.0073655 2.70455916,67.2173904 M23.383635,51.6936612 C21.6444267,56.0531544 17.0633532,56.0256208 14.5741809,59.1415112 M23.3685571,49.2595562 C22.7759282,50.1471883 23.9061186,50.8125846 23.3875684,51.6936612 M33.713995,44.4044574 C31.3952691,49.1946554 27.0698651,48.1044543 23.3685571,49.2595562 M37.0724437,44.0983095 C35.9304532,44.7945173 34.8572967,43.8282176 33.713995,44.4070796 M38.7087287,40.7588721 C38.1685449,41.8720179 37.6231166,42.9845082 37.0737549,44.0943761 M40.0100211,33.3188889 C37.9305756,35.7254603 43.7034624,41.1738435 38.7093843,40.7582166 M39.1866341,32.8934286 C39.4429592,33.0684639 39.7156733,33.2139988 40.0100211,33.3175778 M22.14331,7.87714864 C23.2341667,7.35794283 24.3355123,6.88134861 25.4571804,6.44015479 M17.0063192,10.5721677 C18.1955103,9.90546023 19.3991238,9.26038634 20.6092928,8.63891272 M5.62246959,38.9659076 C8.19293169,28.9220286 6.57369135,18.315021 17.0063192,10.5721677 M19.8036061,32.7380602 C15.5306471,36.2977667 10.6578482,37.48958 5.62246959,38.9652521 M21.4621802,33.4460681 C20.6230597,33.7810607 20.2651223,33.3031554 19.8036061,32.7354379 M20.5273475,36.7809165 C19.7747613,35.2829553 22.5569702,34.9492738 21.4634913,33.4467237 M23.0637203,41.0912425 C23.8779294,38.6145259 23.5232699,36.5770365 20.5273475,36.7815721 M28.1082768,39.5185472 C26.4942809,40.3386563 24.7190166,40.4678022 23.0610981,41.0918981 M34.6717724,34.7047488 C33.5166706,38.1280983 30.1313438,37.661993 28.1082768,39.5185472 M53.0222889,29.7716381 C52.6905741,29.8529279 52.3464035,29.9034062 52.0107553,29.9558513 C50.4347822,30.1905428 48.8561867,30.3937673 47.2926692,30.677626 C45.9494208,30.9241176 44.6179726,31.2256766 43.3029135,31.5823028 C41.985232,31.9415513 40.6780396,32.3519336 39.3964142,32.814761 C38.711351,33.0586304 38.0328434,33.3188889 37.3628581,33.5876697 C36.6201053,33.8892286 35.8865305,34.2045544 35.1477111,34.5107022 C34.9890649,34.5801919 34.8356632,34.6470593 34.6750502,34.7047488 M58.0124336,30.6710704 C56.2004578,30.4875128 54.8224646,30.0043629 53.0222889,29.7716381 M62.2899815,33.1674539 C63.0143785,33.2179322 63.7354977,33.2762773 64.4618613,33.3385558 M56.3656596,32.8593393 C54.8958876,33.2061321 57.8675542,32.9530848 58.626696,32.9694739 M58.715197,29.5926694 C57.8164203,30.6081363 58.521806,32.7557604 56.3656596,32.8593393 M71.2961045,26.0972081 C67.2014587,27.7203818 63.4241053,29.6896927 58.7125748,29.5926694 M94.4807417,25.4324673 C93.63441,25.3275772 92.7828338,25.2731655 91.9312576,25.2711988 C91.0364143,25.2613654 90.1422265,25.3157771 89.2526276,25.423945 C88.4456297,25.5255572 87.6445319,25.6665033 86.8506452,25.8317051 C84.9403349,26.2394652 83.0706696,26.8039049 81.1524925,27.1631533 C80.1658704,27.3506443 79.1589258,27.4797902 78.1526368,27.5145351 C77.0152351,27.5466576 75.8791446,27.4588122 74.7607544,27.2352653 C73.5682855,26.9946737 72.4040058,26.6059249 71.2961045,26.0939303 M98.9248025,21.3201213 C97.5304203,22.7925155 95.8711906,23.954173 94.4807417,25.434434 M106.632911,18.5280789 C104.48922,21.332577 101.471664,20.3197323 98.9248025,21.322088 M109.752735,14.1187629 C107.928303,15.1768414 106.990193,16.4184776 106.635533,18.5300456 M134.368466,21.5777575 C130.968061,6.95149384 117.759124,17.3959218 109.751424,14.1187629 M137.609569,20.0234179 C136.055885,19.7946264 136.000162,21.9743731 134.371088,21.5777575 M139.921739,27.3014771 C138.523423,25.0030736 137.043162,23.0816188 137.609569,20.0253846 M139.857494,34.7683384 C134.881772,34.8561839 138.843338,29.9237287 139.921739,27.3014771" id="Stroke-1" stroke="#FFFFFF" stroke-width="2" stroke-linecap="round" stroke-linejoin="round"></path>
            <path d="M78.45,119.6 L73.6,119.6 C72.55,119.6 72.25,119.3 72.25,118.25 L72.25,114.45 C72.25,113.4 72.55,113.1 73.6,113.1 L77.75,113.1 C81.25,113.1 82.65,111.35 82.65,109.5 C82.65,106.9 81.25,105.4 77.75,105.4 C74.65,105.4 73.45,106.55 71.55,108.6 C70.85,109.35 70.35,109.2 69.65,108.45 L66.9,105.4 C66.2,104.6 66,104.25 66.75,103.5 C69.95,100.35 72.9,98.35 77.75,98.35 C83.45,98.35 90.7,101.4 90.7,108.75 C90.7,112.3 88.7,114.85 86.45,116.3 L86.45,116.35 C88.95,117.65 91.55,119.55 91.55,123.95 C91.55,131.3 85.35,134.65 77.75,134.65 C72.9,134.65 69.3,132.65 66.1,129.5 C65.35,128.75 65.55,128.4 66.25,127.6 L69,124.6 C69.7,123.85 70.2,123.75 70.9,124.45 C72.95,126.4 74.65,127.6 77.75,127.6 C82.25,127.6 83.5,125.8 83.5,123.2 C83.5,121.35 81.95,119.6 78.45,119.6 Z" id="3" fill="#FFFFFF"></path>
        </g>
    </g>
</svg>