<?xml version="1.0" encoding="UTF-8"?>
<svg width="149px" height="142px" viewBox="0 0 149 142" version="1.1" xmlns="http://www.w3.org/2000/svg" xmlns:xlink="http://www.w3.org/1999/xlink">
    <!-- Generator: Sketch 50.2 (55047) - http://www.bohemiancoding.com/sketch -->
    <title>Group</title>
    <desc>Created with Sketch.</desc>
    <defs></defs>
    <g id="Page-1" stroke="none" stroke-width="1" fill="none" fill-rule="evenodd">
        <g id="Group" transform="translate(-11.000000, -1.000000)">
            <rect id="Rectangle" x="0" y="0" width="172" height="145"></rect>
            <polyline id="Stroke-1_1_" stroke="#FFFFFF" stroke-width="2" stroke-linecap="round" stroke-linejoin="round" points="137.502 109.521 137.502 88.501 158.521 88.501"></polyline>
            <path d="M137.502,88.502 L118.5,69.501" id="Stroke-4" stroke="#FFFFFF" stroke-width="3" stroke-linecap="round" stroke-linejoin="round" stroke-dasharray="0.032,6.467"></path>
            <path d="M16.8684226,136.922097 C28.643515,140.043395 43.7159738,136.782318 54.9583802,134.212075 C48.4832666,135.977689 38.187061,139.466804 31.5184063,140.58773 M38.3644736,114.125468 C40.3576778,114.952946 42.3360976,115.807304 44.3077973,116.690784 M73.7878654,80.1437783 C74.4150819,80.6352472 75.0427463,81.1164118 75.680715,81.5917523 M89.8656625,95.2547661 C83.0800768,95.2467019 81.0891127,93.3457881 76.0108996,90.2719796 M127.979365,30.4368764 C131.927244,34.201519 137.909993,37.9885622 141.984212,40.3760167 C141.080572,39.6363493 139.351695,38.3805725 138.471352,37.6158164 M127.356181,23.2265755 C129.584143,25.1185291 129.943448,25.9074778 132.160658,27.8101836 M116.873154,14.8115711 C120.009236,17.1524324 123.06154,19.5820001 126.044402,22.1159544 M79.0941164,132.736324 C73.2094823,132.414651 62.3908949,132.961674 59.3108142,133.330387 M92.6003262,132.771269 C89.6183601,133.232721 82.9183446,132.969738 81.0734322,132.870727 M44.3015251,116.700192 C49.0544816,118.825111 54.8074003,120.545925 58.919252,123.340622 M45.7947482,123.858075 C50.0719162,125.948498 53.5986646,128.247246 57.6545149,130.717135 C69.2486105,124.009503 63.2143405,114.199838 64.1341086,105.133425 C64.7326522,99.259095 64.6977073,92.8323667 72.6974049,94.4720896 C81.4166092,96.2596564 72.9205147,85.5965292 71.9971625,81.1410525 M132.160658,29.4776833 C134.581266,32.3113575 135.687407,35.1100868 138.473144,37.6126803 M122.199565,19.6424817 C124.181569,21.6553984 125.673448,23.4062282 127.508504,25.5526525 M114.014391,12.8707843 C115.007633,13.4626078 115.948458,14.1158089 116.868674,14.8164993 M100.865695,29.3329755 C110.547676,23.8089908 115.953386,19.6975871 126.978955,25.3196864 M130.350691,23.436693 C136.453955,23.9949157 142.483745,22.4138823 148.08882,20.6760447 M77.2518922,131.132442 C83.1710232,130.868563 90.3271146,130.554507 96.1902442,129.23332 M20.777773,119.638701 C26.466178,121.359962 33.950662,122.999685 39.7833268,124.031008 M38.9450968,123.880028 C40.479089,124.143459 47.8125931,125.799758 49.3456892,126.058709 M47.0290205,82.2418173 C56.6509686,76.8419319 64.378275,79.7351916 73.1274961,84.1257066 M84.0092531,111.080781 C89.8092131,110.988938 93.4882854,110.762692 99.1050085,108.710799 M51.6318931,119.957237 C55.9265336,116.981543 59.45597,114.862896 64.5135745,113.333832 M85.7444026,93.8403931 C88.8504679,93.6965813 94.807232,93.8403931 99.7089284,87.9517268 M75.566024,83.5746522 C78.3459368,85.9432902 79.4941909,87.156058 82.7194274,88.9207762 M98.0046917,52.4983182 C105.854305,47.0903686 112.934235,42.3938616 122.741212,40.5538774 M77.1372011,80.1437783 C89.7532116,81.2557435 96.0880975,73.2775505 104.698883,67.3835081 M36.8461618,116.3942 C39.1668626,116.944358 41.4799472,117.908479 43.7343422,118.637395 C47.5169053,120.476035 50.5494968,121.978666 54.2187129,124.03056 M131.656645,27.290938 C133.278,28.9512695 134.661908,30.4731653 136.201724,32.2065227 M106.047846,16.7236852 C114.200764,15.1726686 121.516796,18.2375169 127.356181,23.2256795 M99.6264942,41.8069662 C107.368137,36.7166569 116.364661,32.4264965 126.198518,32.1160244 M141.571593,11.218517 C143.822404,10.5451554 145.785143,9.92913925 148.041778,9.2822103 M137.237975,33.5456298 C141.193023,34.966275 144.054922,34.7418211 148.049395,33.9927455 M66.5300753,131.853293 C71.632481,132.115828 75.9768508,132.542335 81.0738803,132.870727 M12.5831903,126.304667 C23.7135939,130.75656 36.8224172,131.540581 48.4371214,131.59703 M92.9300628,99.1166273 C96.9630644,98.8236276 101.160486,97.7385432 104.790725,96.0244503 M40.403823,110.622465 C48.5002911,103.12006 56.1308269,96.7260367 66.0157579,96.3331304 M83.7977916,123.846875 C88.8957171,123.389007 94.7964797,122.593338 99.6224621,120.622535 M56.361553,129.925498 C58.6822538,128.898207 58.7732002,128.829662 61.1960476,128.060873 M50.0481716,133.223761 C51.7685367,132.357754 51.5427388,132.449148 53.269376,131.597478 M74.4630191,86.8451379 C79.0448351,91.0291194 82.5093099,93.5895065 86.8756322,94.638302 M66.5435157,74.708052 C69.7109586,77.074898 72.7919353,79.5488188 76.0005954,81.8605593 M85.6001428,70.4071393 C95.382031,67.2217759 98.9880775,61.8398109 107.33588,56.7024604 M82.7194274,88.9207762 C87.899787,88.6591374 92.6912725,85.7587094 96.8017802,83.0603347 M78.4574917,83.5813724 C84.1131919,86.4051903 82.4613726,96.3891318 91.1456321,95.1992127 C99.3052698,94.0791833 103.5121,85.6700031 95.1786337,82.2364411 M78.7262988,85.590705 C79.2782492,84.7798038 79.2715291,84.1915644 78.4574917,83.5813724 M71.9976105,81.1423965 C74.1982442,82.690277 76.4383028,84.1722999 78.7267468,85.591601 M50.4755748,127.585085 C44.5743643,129.411181 50.6538835,136.025178 54.2505217,133.123406 M61.0876288,125.358019 C62.2488752,128.451988 57.8776247,126.579299 56.1608437,126.692198 M54.2187129,124.03056 C56.3696172,124.285927 58.9900378,124.838325 61.0898688,125.359363 M40.1072392,124.147491 C41.8688214,123.921693 44.0219658,123.963358 45.7947482,123.858075 M44.41308,120.321471 C41.5699976,120.405249 38.6193923,120.458562 39.4217813,123.662294 M55.2952851,121.773925 C54.4973762,121.588896 52.7823872,121.419547 51.9656618,121.307096 M55.1676017,134.534195 C64.9181291,137.71687 54.9987013,124.256358 50.6010181,119.84613 M31.964626,111.73667 C43.1483429,116.64195 49.0011682,124.991097 55.1676017,134.535987 M38.3644736,114.122332 C36.4106944,113.323975 34.4286905,112.599092 32.4354863,111.901986 M28.4423577,115.053749 C32.3947172,116.719008 35.3170978,117.278127 38.9450968,115.669765 M31.5197503,140.58773 C21.7141175,142.232381 16.7107224,138.988776 12.5186766,130.273603 C9.11109938,123.200842 25.666925,118.135621 28.4405657,115.053749 M41.3356874,120.89179 C41.2841661,122.05214 41.2411569,123.132744 41.1197458,124.288615 M47.0290205,82.2418173 C41.2783419,93.0133634 38.5965437,102.806004 40.9719019,115.223097 M60.8165817,75.6995019 C54.1797358,68.7244072 50.3111545,76.1112247 47.0688936,82.1638632 M66.5453077,74.7053639 C64.1677094,73.1861561 61.0222191,71.9245551 60.8138936,75.6995019 M73.7914495,80.1384022 C71.7682285,78.5103276 69.7060305,76.9382544 67.6039595,75.4141185 M74.2349811,86.3850298 C77.0498389,87.043159 73.238155,83.4684734 72.2973304,82.1692394 M114.014391,12.8707843 C106.988223,9.0989735 103.057368,23.55004 101.434222,27.7564222 C98.816041,34.5263275 100.260879,41.3486502 99.0978403,48.097947 C96.373929,63.8558637 83.2216485,70.2642236 76.0005954,81.8619033 M148.340602,33.2916072 C140.202917,33.5375656 147.332576,25.2408363 148.027442,21.0837354 C148.907785,15.7909248 148.145269,10.6952393 147.781483,5.49830319 C147.234909,-2.37236696 141.760206,10.5245468 139.951134,14.3738637 C137.540383,19.5237586 132.60643,20.726222 129.247238,24.504305 M145.49976,39.0642384 C146.75016,37.2636792 147.542245,35.2955637 148.340602,33.2920552 M141.584585,35.9115798 C142.868587,36.9854639 144.174093,38.0360514 145.49976,39.0642384 M136.002359,31.9825169 C137.585184,34.3045617 141.822927,40.7720591 141.584137,35.9115798 M126.978955,25.3196864 C130.201503,27.4343017 143.157554,34.2351199 136.002807,31.9825169 M132.9738,29.8307165 C131.054517,27.9844602 129.127171,27.1359259 127.181904,25.3196864 M95.1786337,82.2364411 C100.291344,77.9852578 101.872825,72.0683668 105.024588,66.8544063 C106.698359,64.0816616 108.025818,61.575484 107.664721,58.0912967 C107.387401,55.4027783 104.335098,52.2487757 108.428581,50.3339735 C114.058744,47.7028006 119.548232,45.8426559 123.166823,39.8840998 C125.718698,35.6763736 124.987094,27.5655692 132.9738,29.8298205 M97.4496052,119.076894 C98.5983073,116.163026 102.373254,114.196702 99.9817675,110.134132 C98.472416,107.570161 96.5244609,105.496314 99.1050085,102.518828 M101.466478,121.948649 C100.647513,120.022647 98.169112,121.15074 97.4478131,119.076894 M59.3108142,133.330387 C59.3108142,133.330387 69.9613972,130.67099 74.2246769,131.365856 C79.6823558,132.355514 85.0092153,133.544537 90.6792518,133.182096 C94.0362038,132.965258 103.789419,127.771458 98.2219774,129.086372 C95.0263097,129.842168 92.7732587,128.180941 94.3251713,125.003641 C95.9469738,121.68029 99.5987175,124.742898 101.469166,121.948649 M80.3127083,130.67099 C78.5748708,130.885587 76.8554018,131.170971 75.145789,131.534756 M87.4943364,118.278089 C83.9559397,121.897128 82.9452253,126.668901 80.3131563,130.67099 M87.6632369,103.325698 C82.8556229,108.642253 82.7763249,112.854459 87.4916484,118.278089 M95.3676946,101.142536 C92.9703839,103.087803 90.1528381,102.235685 87.6636849,103.325698 M91.7576161,97.0199324 C91.9318927,99.5055015 94.4739112,99.4342676 95.3681427,101.142536 M96.3461523,96.8344555 C94.6719324,96.0777637 93.3502978,95.5253652 91.7585121,97.0199324 M99.1059046,102.518828 C102.419399,101.816794 106.441201,101.794393 105.165711,97.0866861 C103.691305,91.6473756 99.4508736,95.8537578 96.3452563,96.8344555" id="Stroke-1" stroke="#FFFFFF" stroke-width="2.179" stroke-linecap="round" stroke-linejoin="round"></path>
            <path d="M67.3,18.8 L67.3,19 C67.3,19.35 67.25,19.6 66.85,20.3 L48.9,52 C48.5,52.7 48,53 47.2,53 L43.05,53 C42.25,53 41.75,52.7 42.05,51.95 L58.2,23.55 L42.05,23.55 C41.2,23.5 41,23.3 41,22.5 L41,19.05 C41,18.25 41.2,18 42.05,18 L66.45,18 C67.1,18 67.3,18.25 67.3,18.8 Z" id="7" fill="#FFFFFF"></path>
        </g>
    </g>
</svg>