<?xml version="1.0" encoding="utf-8"?>
<!-- Generator: Adobe Illustrator 16.0.4, SVG Export Plug-In . SVG Version: 6.00 Build 0)  -->
<!DOCTYPE svg PUBLIC "-//W3C//DTD SVG 1.1//EN" "http://www.w3.org/Graphics/SVG/1.1/DTD/svg11.dtd">
<svg version="1.1" id="Capa_1" xmlns="http://www.w3.org/2000/svg" xmlns:xlink="http://www.w3.org/1999/xlink" x="0px" y="0px"
	 width="174px" height="147px" viewBox="0 0 174 147" enable-background="new 0 0 174 147" xml:space="preserve">
<title>Group 8</title>
<desc>Created with Sketch.</desc>
<g id="Islas-black">
	<g id="Detalle-Factor-black" transform="translate(-147.000000, -140.000000)">
		<g id="Group-8" transform="translate(117.000000, 124.000000)">
			<g id="Group_1_" transform="translate(148.000000, 87.000000)">
				
					<polyline id="Stroke-1_1_" fill="none" stroke="#FFFFFF" stroke-width="2" stroke-linecap="round" stroke-linejoin="round" points="
					19.502,40.521 19.502,19.501 40.521,19.501 				"/>
				<g id="Group-6" transform="translate(0.000000, 0.415000)">
					
						<path id="Stroke-4" fill="none" stroke="#FFFFFF" stroke-width="3" stroke-linecap="round" stroke-linejoin="round" stroke-dasharray="0.032,6.467" d="
						M19.502,19.087L0.5,0.086"/>
				</g>
			</g>
			<g enable-background="new    ">
				<path fill="#FFFFFF" d="M58.25,66.348c0.75-0.5,2-1.35,2.9-1.35h3.3c1.05,0,1.35,0.3,1.35,1.35V98.65c0,1.05-0.3,1.35-1.35,1.35
					H59c-1.05,0-1.35-0.3-1.35-1.35V75.198H53.1c-1.05,0-1.35-0.3-1.35-1.35v-2.45c0-0.601,0.05-1,0.7-1.45L58.25,66.348z"/>
			</g>
		</g>
	</g>
</g>
<path fill="none" stroke="#FFFFFF" stroke-width="1.3679" stroke-linecap="round" d="M19.051,120.972
	c1.62-2.371,1.88-7.426,6.183-5.008 M25.236,115.964c17.375-6.854,19.985,31.982,35.846,13.826 M61.083,129.791
	c0.491-0.611,0.419-1.399,0.891-2.014 M61.974,127.776c1.874-1.545,5.543-2.095,3.711-5.603 M65.685,122.174
	c-0.04-0.02-0.083-0.035-0.129-0.042c-0.049-0.014-0.098-0.021-0.15-0.022c-0.11-0.003-0.221,0.019-0.324,0.053
	c-0.129,0.041-0.25,0.094-0.369,0.155c-0.33,0.177-0.632,0.397-0.978,0.547c-0.175,0.078-0.365,0.134-0.564,0.109 M63.173,122.973
	c2.214-4.823,4.641-9.528,7.142-14.203c2.69-5.022,8.846-6.03,10.856-11.928 M81.173,96.842c1.553-0.025,4.115-1.006,3.686,1.559
	 M84.858,98.4c4.975-4.849,2.914-11.143,5.618-16.38c2.961-5.728,6.131-11.332,9.303-16.94c6.219-10.99,8.897-23.462,19.189-32.659
	 M118.973,32.42c1.478-0.705,2.567,0.335,3.864,0.373 M122.836,32.792c2.877-4.843,8.586-5.74,11.501-10.524 M134.336,22.268
	c-4.916-7.195-2.994-10.762,4.701-11.962 M139.037,10.305c-2.555,0.197-3.92,0.691-6.281,1.367c-2.383,0.685-8.775,3.845-6.79-0.225
	 M125.966,11.447c3.681-1.383,9.208-1.182,12.966-1.142 M139.037,10.305c4.867,0.3,12.109,7.898,5.846,7.383 M144.885,17.686
	c3.888,7.558,8.398,13.808,5.236,23.397c-3.479,10.547-11.234-0.28-15.641-5.752 M134.48,35.331
	c-3.557,11.922-5.518,21.128,7.241,28.678 M141.722,64.007c1.376,3.354,3.457,3.681,6.597,2.387 M148.318,66.395
	c0.145-7.956-10.325-5.493-10.622-13.133c-0.225-5.799-1.431-11.375-2.54-17.014 M143.498,12.044
	c3.079-2.514,16.296-3.462,10.134-8.423 M171.698,7.022c-5.142-1.107-10.147-2.698-15.259-3.908 M156.44,3.115
	c-11.178-2.459-20.541-5.383-27.203,7.466 M63.87,20.286c-8.99-3.253,0.286,9.506,3.582,13.884
	c4.163,5.541-3.792,11.207,2.043,16.534 M69.496,50.703c2.2-0.937,3.993-2.37,6.638-0.87 M76.135,49.834
	c0.095,3.87-1.559,7.104-5.507,4.74 M70.627,54.573c-8.783,9.107-10.147,19.823-12.854,30.928 M57.738,85.637
	c-1.057,4.492,4.208-1.836,5.731-3.893c1.809-2.44,6.076-13.16,5.694-7.103 M69.166,74.673c3.503,5.504,5.292-4,5.365-8.185
	 M74.534,66.487c0.728-1.115,1.473-2.216,2.225-3.312 M76.759,63.175c7.152-4.35-3.236,7.697-5.537,11.26 M71.222,74.434
	c-1.198,10.756-9.124,12.639-15.554,17.995 M24.883,114.157c-0.061,0.027-1.679,1.043-1.559,0.985 M24.996,114.104
	c0.219-0.104,0.443-0.188,0.68-0.253 M25.72,113.854c4.064,4.05-5.152,2.522-7.773,3.684c-2.64,1.163-5.286,2.262-7.758,3.784
	 M10.188,121.322c1.176,0.021-0.04,1.737,1.141,1.753 M11.329,123.074c0.185-0.044,0.366-0.096,0.548-0.151
	c0.141-0.043,0.28-0.092,0.421-0.143c0.3-0.113,0.594-0.247,0.867-0.407c0.231-0.136,0.451-0.295,0.656-0.466
	c0.379-0.324,0.707-0.707,1.078-1.034c0.209-0.188,0.437-0.357,0.672-0.51c0.674-0.436,1.438-0.728,2.195-0.99 M17.767,119.371
	c1.206,2.189-1.658,2.018-2.712,2.837 M15.055,122.208c0.182,0.373,2.06,1.163,2.349,1.37 M14.178,125.362
	c-1.578,0.073-5.576,1.14-7.132,0.901 M7.043,126.265c-0.829,1.442-2.26,1.69-3.459,2.446 M3.586,128.707
	c0.475,2.689,4.915,0.35,4.446,3.632 M8.035,132.339c-2.202,0.996-7.936,0.977-5.057,4.391 M16.411,144.686
	c-6.143-1.006-16.053,2.876-15.338-7.681 M1.072,137.004c5.712,0.367,10.229,0.417,14.177-4.84 M15.248,132.164
	c-0.297-4.511,1.43-7.702,3.803-11.194 M66.619,33.053c8.862-12.705,17.181-2.089,25.831,3.396 M35.688,117.589
	c13.337-14.705,26.63-27.259,37.588-44.216c10.756-16.644,15.418-36.235,31.345-50.495 M130.083,26.73
	c6.526,5.886,11.288,11.906,17.058,18.443 M62.084,83.579c9.643-13.635,11.925-30.868,26.582-42.29 M109.318,45.173
	c7.42,5.864,11.276,12.839,20.399,16.977 M140.567,63.271c1.164-0.409,3.041-1.78,4.274-2.667 M7.973,137.004
	c10.186,4.382,15.179,10.249,28.191,7.59 M50.728,134.121c17.239-20.203,28.623-42.329,41.755-64.927
	c7.771-13.373,21.222-52.899,42.159-57.15 M14.178,125.362c12.406,6.413,24.876,15.175,41.749,8.759 M57.741,85.636
	c5.625-9.239,10.148-20.586,14.438-30.38 M74.833,49.181c3.704-6.87,6.319-12.887,15.908-10.506 M131.885,50.431
	c1.581-1.26,3.634-3.732,4.951-5.257 M135.037,10.231c8.98-7.633,18.108-7.614,28.752-5.197 M42.458,125.362
	c14.121-19.045,28.035-35.876,40.178-56.331c6.161-10.376,28.061-52.427,43.329-57.585 M134.642,12.044
	c4.092,1.769,7.653,4.514,10.995,7.352 M4.068,129.329c2.283-0.749,6.12-0.831,10.109-3.965 M26.854,115.669
	c9.686-7.274,20.215-14.503,28.812-23.24 M70.293,73.464c7.493-11.813,12.746-24.828,21.395-36.068 M117,35.177
	c6.169,5.1,9.562,9.402,14.885,15.254 M63.873,20.282c0.875,0.312,1.742,0.646,2.6,1.002c0.951,0.389,1.89,0.807,2.824,1.239
	c2.027,0.944,4.009,1.979,5.961,3.072c2.086,1.168,4.135,2.397,6.159,3.664c3.256,2.041,7.805,5.111,11.033,7.19 M56.303,133.843
	c-5.913,4.353-12.856,9.096-20.141,10.751 M36.062,144.613c-6.689,1.51-13.008,1.178-19.652,0.081 M143.34,66.395
	c-14.766-2.325-24.001-9.937-35.49-17.918 M88.469,41.558c-1.7,1.75,1.506-1.923,2.249-2.893 M91.688,37.397
	c3.349-4.359,6.799-8.579,10.735-12.44 M104.624,22.886c5.182-4.74,14.658-9.153,21.342-11.439"/>
</svg>
