<?xml version="1.0" encoding="UTF-8"?>
<svg width="165px" height="114px" viewBox="0 0 165 114" version="1.1" xmlns="http://www.w3.org/2000/svg" xmlns:xlink="http://www.w3.org/1999/xlink">
    <!-- Generator: Sketch 50.2 (55047) - http://www.bohemiancoding.com/sketch -->
    <title>Group</title>
    <desc>Created with Sketch.</desc>
    <defs></defs>
    <g id="Page-1" stroke="none" stroke-width="1" fill="none" fill-rule="evenodd">
        <g id="Group" transform="translate(-4.000000, -12.000000)">
            <rect id="Rectangle" x="0" y="0" width="172" height="145"></rect>
            <polyline id="Stroke-1_1_" stroke="#FFFFFF" stroke-width="2" stroke-linecap="round" stroke-linejoin="round" points="137.502 109.521 137.502 88.501 158.521 88.501"></polyline>
            <path d="M137.502,88.502 L118.5,69.501" id="Stroke-4" stroke="#FFFFFF" stroke-width="3" stroke-linecap="round" stroke-linejoin="round" stroke-dasharray="0.032,6.467"></path>
            <path d="M113.780188,34.8407186 C118.863593,38.1407759 123.909879,41.4831818 128.823367,45.0388994 C131.279066,46.8138827 133.72483,48.6019365 136.23072,50.3058159 C138.731381,52.0055127 145.871572,55.4964003 146.372959,56.3663774 M115.254548,35.8597002 C115.049601,35.7148782 114.844132,35.5721476 114.637094,35.4299398 M30.3094423,61.9736515 C26.4781971,61.5590531 20.7883169,61.9736515 12.8879422,60.7711592 M48.9151359,66.6283426 C44.0277888,64.7080146 37.1903127,62.8316037 31.9683589,62.1718013 M79.6137201,76.7925399 C73.7894745,77.0874119 66.8312264,74.296584 62.269075,72.4599077 M82.8897275,77.0027147 C97.5083748,75.706637 104.127311,64.3352419 116.17367,59.5352062 M69.3946264,74.1460111 C71.2286886,75.0891833 73.2473073,76.0286959 75.2528554,76.5300829 M38.6876771,61.91039 C60.9546985,58.88952 84.3489259,14.6660338 113.791167,34.8239883 M19.451982,58.5282495 C23.1995755,60.8229186 27.5044982,61.7347215 31.9688817,62.1738926 M52.5424803,68.2841223 C69.1248498,74.2275714 87.8779795,52.7970664 97.5449724,45.9057395 C117.397076,31.762861 130.116308,48.3441849 145.304832,56.3255972 M23.4782401,56.7752248 C45.4190201,46.1525119 56.1442063,18.7890141 87.7890997,16.934039 M10.0887491,60.2336974 C13.6721763,60.0219541 16.1477421,59.8353064 19.451982,58.5282495 M66.941542,73.9609318 C84.8686117,75.9973265 92.2236823,62.190623 103.609716,54.4868296 C118.010869,44.7403676 129.184115,49.1022779 142.622228,56.6894819 M60.4982743,71.6511009 C61.1047487,71.9480642 61.6422105,72.2115669 62.269075,72.4593849 M31.6452544,58.9601011 C45.7666973,53.6105786 78.1435425,16.405988 99.7648779,25.1543813 M16.3688961,60.2953904 C17.4715293,60.5233412 20.3120254,61.5360489 21.4392313,61.6003561 M45.0394508,64.8219899 C63.3737994,67.8669097 69.3360702,55.4247736 80.3613567,45.9276981 C92.2566202,35.6788035 101.696185,27.0720952 117.971135,37.5133886 M30.3747951,58.4764901 C33.7056989,60.8490598 37.0580385,62.8865001 41.0539729,64.0382786 M6.20835855,55.5303838 C26.3328523,48.4545005 40.5970258,31.5082463 56.395684,19.5952068 M99.7721974,25.134514 C92.0636986,20.9639568 86.8354709,13.2261799 76.0266331,14.0626963 C67.3890783,14.7319095 60.6802166,21.311634 51.0017216,19.2919696 C39.0442422,16.7928768 35.0634697,25.7666067 28.1752798,31.5678481 C21.442891,37.2394294 12.5831365,39.0625124 6.47708945,46.07252 M6.47708945,46.0714744 C6.04210091,52.9120874 3.98322487,60.6258144 13.7814463,60.8103709 C18.561092,60.8992507 20.8688316,55.2809973 26.3731097,57.0742794 C37.1798562,60.5923538 47.038725,66.0799015 57.4392383,70.4214217 C82.7428143,80.9855785 100.170588,80.5186977 117.973226,57.2598815 C124.931997,48.1706078 131.83378,54.0168119 139.450785,56.5467512 C142.254684,57.4778986 144.745411,55.5743009 147.575974,56.6685689 C153.303497,58.8884744 159.039909,59.8044599 165.110927,60.1009004 C170.813877,60.3779964 162.173185,54.6734773 158.057525,55.2511964 C141.02605,57.6431106 111.104904,31.2876151 99.7727202,25.1339912" id="Stroke-1" stroke="#FFFFFF" stroke-width="2.179"></path>
            <path d="M72.95,125.3 C64.25,125.3 60,120.8 60,115.2 C60,110 64.6,107.3 66.1,106.8 L66.1,106.6 C65,106.1 60.85,103.65 60.85,98.95 C60.85,93.35 64.7,89 73,89 C81.2,89 85.1,93.35 85.1,98.95 C85.1,103.65 80.95,106.1 79.85,106.6 L79.85,106.8 C81.35,107.3 85.95,110 85.95,115.2 C85.95,120.8 81.75,125.3 72.95,125.3 Z M72.95,109 C69.05,109.6 65.85,111.5 65.85,114.85 C65.85,117.8 68.2,120.2 72.95,120.2 C77.75,120.2 80.05,117.8 80.05,114.85 C80.05,111.5 76.85,109.6 72.95,109 Z M72.95,94.1 C69.05,94.1 66.7,96.3 66.7,99.3 C66.7,102.15 69.25,103.95 72.95,104.45 C76.7,103.95 79.2,102.15 79.2,99.3 C79.2,96.3 76.9,94.1 72.95,94.1 Z" id="8" fill="#FFFFFF"></path>
        </g>
    </g>
</svg>