<?xml version="1.0" encoding="UTF-8"?>
<svg width="161px" height="145px" viewBox="0 0 161 145" version="1.1" xmlns="http://www.w3.org/2000/svg" xmlns:xlink="http://www.w3.org/1999/xlink">
    <!-- Generator: Sketch 50.2 (55047) - http://www.bohemiancoding.com/sketch -->
    <title>Group</title>
    <desc>Created with Sketch.</desc>
    <defs></defs>
    <g id="Page-1" stroke="none" stroke-width="1" fill="none" fill-rule="evenodd">
        <g id="Group" transform="translate(1.000000, 1.000000)">
            <polyline id="Stroke-1_1_" stroke="#FFFFFF" stroke-width="2" stroke-linecap="round" stroke-linejoin="round" points="137.502 114.521 137.502 93.501 158.521 93.501"></polyline>
            <path d="M137.502,93.502 L118.5,74.501" id="Stroke-4" stroke="#FFFFFF" stroke-width="3" stroke-linecap="round" stroke-linejoin="round" stroke-dasharray="0.032,6.467"></path>
            <path d="M39.55,91.85 L30.5,104.1 L40.8,104.1 C41.85,104.1 42.15,104.4 42.15,105.45 L42.15,109.65 C42.15,110.7 41.85,111 40.8,111 L17.65,111 C17.3,111 17.2,110.9 17.2,110.55 L17.2,109.85 C17.2,109.5 17.3,109.4 17.65,108.9 L32.75,89.05 C35.45,85.5 32.95,82.4 29.8,82.4 C26.7,82.4 24.35,83.8 22.45,85.7 C21.65,86.5 21.25,86.3 20.55,85.55 L17.65,82.4 C16.95,81.6 16.75,81.25 17.5,80.5 C20.7,77.35 24.95,75.35 29.8,75.35 C40.4,75.35 44.95,84.9 39.55,91.85 Z" id="2" fill="#FFFFFF"></path>
            <path d="M6.65196857,45.187136 C5.67107171,44.40814 4.63956212,43.7067135 3.58549685,43.0360947 M7.11628542,45.5667315 C7.27417516,45.747177 6.93253918,45.4132429 6.84011592,45.337874 M42.0638304,21.3545883 C45.5131985,21.3754935 48.0751932,21.2253057 51.4888023,21.9745943 M39.3637509,59.6552271 C39.2207149,56.8709764 39.153598,54.4250609 39.1618501,51.6386096 M105.722001,72.950423 C97.7350908,61.9008922 89.1617332,65.1599124 78.6601403,68.3067043 M98.9613494,69.1170583 C97.9716503,68.0409875 95.8118067,66.3817699 94.6191066,65.5378575 M109.615881,97.4678931 C109.424433,96.414378 109.224732,95.3603127 109.020631,94.3089981 C108.824231,93.3088464 108.62123,92.3114454 108.408327,91.3178954 C108.035333,89.5767072 107.632632,87.8448714 107.178217,86.1251386 C106.425628,83.2853239 105.64003,79.7275785 104.481439,77.0252985 M14.9579589,51.2634152 C11.4293709,50.5047743 9.33939489,49.1767401 7.31268485,46.0800107 M109.488249,59.1430482 C99.1214397,51.397649 86.5672802,52.498476 75.8016209,46.8254483 C63.7904482,40.4966556 58.8408525,30.0808843 53.1194127,19.2046472 M115.052899,36.7397601 C100.642022,30.7971646 87.5074669,25.7777014 76.9481095,12.7861819 M44.6868905,40.2298385 C45.0488816,35.4782927 45.5693126,31.0386754 43.5200469,26.3377423 M118.720672,100.347868 C111.980376,91.0675824 111.377974,80.8944222 104.674537,71.6025838 M116.905215,88.781207 C104.242678,71.4744015 105.889793,61.5840125 79.3175558,66.6513378 C60.7316784,70.1953296 46.6074239,72.7446712 42.1094919,50.1889948 M30.6589102,38.8830995 C22.9322157,41.3279148 16.941208,44.9153676 8.1747518,43.7831827 M115.897362,121.148603 C111.976525,113.555042 111.065496,105.56153 109.618081,97.4684433 M42.9567051,23.6833243 C37.1813517,25.1885031 32.1437339,27.2476713 26.5752325,29.3139913 M117.821746,109.847659 C108.647637,95.929706 113.54772,76.5873883 95.6302611,65.6060747 M113.981779,25.7017823 C99.5318429,20.5700908 88.7210723,12.9913836 78.1908722,2.00676915 M107.366915,68.4706456 C96.1055807,57.3991093 83.4810035,62.4455293 71.2673798,60.4936381 C55.2693537,57.9360444 51.1015048,47.9493812 46.4209269,34.8060235 M113.464649,48.7305778 C104.291641,43.3331694 93.7124784,41.8978582 84.5752289,36.3766688 C74.9764133,30.5743585 69.1410947,22.0318087 63.3316327,13.0717038 M42.0638304,21.3545883 C40.8441735,21.472868 39.6443215,21.6802702 38.44612,21.9322336 M50.5926268,23.988101 C48.9774203,21.8887727 47.1152016,21.4877218 44.6115216,21.3551384 M118.708019,104.788035 C109.955866,92.5210482 112.782478,76.1318736 97.5001816,66.1408093 M78.6601403,68.3067043 C62.7759929,73.0632014 40.6807823,85.5073331 39.3670517,59.6552271 M19.5967263,47.3244239 C14.9398043,47.9196737 10.8286197,48.4962188 6.66572203,45.1706319 M43.3423522,28.7572512 C33.7418861,31.5002415 24.7399706,35.7654649 15.1147483,38.4473899 M116.583384,115.567448 C108.004525,100.860597 111.79828,82.9882491 98.9602491,69.1170583 M115.924318,120.371257 C116.793537,124.5171 117.949928,128.464894 119.878163,132.278454 C121.484568,135.451652 130.496386,146.227764 125.514332,141.233607 C119.002893,134.711716 114.909863,128.882999 116.045899,118.907339 C116.961329,110.871466 120.974589,103.593685 117.304066,94.7683637 C115.624493,90.7286971 118.270109,86.8529717 116.25,82.7846979 C114.356424,78.9694878 111.83679,75.6747086 109.234635,72.3656258 M6.8885281,45.3758335 C13.7790122,57.0365681 15.5488076,50.0899699 23.2628489,44.0962115 C29.1993929,39.4794496 34.7832982,35.6009735 42.6216708,34.4258778 M107.383419,71.6460447 C106.640732,59.6684304 115.011088,51.1121271 115.367578,39.6252363 C115.469904,36.3271563 113.810686,33.6050713 113.356272,30.5132932 C112.964023,27.8396203 115.605238,24.9084826 112.290104,22.4829222 C108.197624,19.4868682 103.355855,17.9618844 99.273828,14.9350227 C92.5714913,9.96397168 78.3504124,-9.74198757 77.4327814,5.96996653 C77.1555117,10.7506697 77.3447593,15.2640055 74.4416787,19.6722649 C71.4780829,24.1734977 69.6010105,17.363884 67.6359159,15.3085667 C64.842863,12.388982 62.3826439,12.667352 59.0080946,14.1857341 C52.9510703,16.9144208 51.527312,21.8706181 49.2931998,27.1145378 C47.0986975,32.2726359 45.6754893,37.6760958 43.7456036,42.9150642 C42.6156193,45.9743841 44.5444047,50.5471349 39.4061116,51.5494872 C35.3499408,52.3405863 39.8209159,47.4427037 40.329794,45.4187443 C41.7232947,39.8573947 42.8334741,34.291644 43.3621571,28.5652529 C44.8167232,12.7927836 27.59849,28.4315693 20.1760221,33.7508579 C17.2437841,35.8523868 15.1620602,38.7873754 12.316194,40.9675741 C9.51708961,43.1153146 7.34734357,45.5188695 3.5189301,42.9942842 C1.43720621,41.6222389 -0.641216851,39.5757238 2.28827039,38.0248836 C6.25916972,35.9200538 5.29477702,41.9440699 6.24046501,44.0582519 M109.234635,72.3656258 C108.609127,72.1488713 107.990222,71.9079106 107.383419,71.6460447" id="Stroke-1" stroke="#FFFFFF" stroke-width="2" stroke-linecap="round" stroke-linejoin="round"></path>
        </g>
    </g>
</svg>