<?xml version="1.0" encoding="UTF-8"?>
<svg width="163px" height="132px" viewBox="0 0 163 132" version="1.1" xmlns="http://www.w3.org/2000/svg" xmlns:xlink="http://www.w3.org/1999/xlink">
    <!-- Generator: Sketch 50.2 (55047) - http://www.bohemiancoding.com/sketch -->
    <title>Group</title>
    <desc>Created with Sketch.</desc>
    <defs></defs>
    <g id="Page-1" stroke="none" stroke-width="1" fill="none" fill-rule="evenodd">
        <g id="Group" transform="translate(1.000000, 0.000000)">
            <polyline id="Stroke-1_1_" stroke="#FFFFFF" stroke-width="2" stroke-linecap="round" stroke-linejoin="round" points="139.502 99.521 139.502 78.501 160.521 78.501"></polyline>
            <path d="M139.502,78.502 L120.5,59.501" id="Stroke-4" stroke="#FFFFFF" stroke-width="3" stroke-linecap="round" stroke-linejoin="round" stroke-dasharray="0.032,6.467"></path>
            <path d="M58.9136101,94.029267 C54.2599735,95.7053333 49.6017482,97.1095121 44.6968738,97.9056722 M98.2759298,79.3450447 L98.2793714,79.3450447 C97.8680985,79.3863441 97.4551047,79.4448516 97.0455526,79.5176991 C96.5006303,79.6140643 95.9568552,79.7328 95.410212,79.8595661 C94.0788808,80.169885 92.7573008,80.5473154 91.4529289,80.956294 C88.3342524,81.9319917 84.6999074,83.2770894 81.6758754,84.5080402 M76.5186159,73.6422893 C80.0600373,74.9621485 81.8817987,75.5644311 85.4736971,76.7426105 M40.5468602,67.9326507 C35.9253454,69.874295 32.1562038,72.6964189 28.4908843,76.0009426 M85.204104,77.7624756 C81.5169875,76.7798947 79.7910178,76.1776121 76.3029414,74.6633017 M117.185308,76.5171847 C111.096518,77.8364703 104.594734,79.2320451 98.274209,79.3473391 M50.8963689,82.0564634 C30.9803188,95.2630858 23.3657465,118.516355 2.25889782,130.879782 M127.499253,84.7088011 C115.564307,85.3518094 104.380207,83.8558543 92.9528992,80.5060161 M52.1324821,96.2273115 C49.2501299,98.9094765 46.5060159,102.325853 43.765917,105.149124 M123.307366,93.1849242 C110.866503,90.4735055 99.657738,84.2625384 86.8073228,82.5623808 M121.719635,96.0167994 C110.576834,92.1283485 100.640893,87.4729912 87.8570152,90.8067685 M83.3175256,15.7445806 C75.0117623,17.8640416 67.847468,21.9985679 61.5435772,27.7936733 M52.30571,77.8531048 C48.3122899,74.6265911 44.5333971,71.1494132 40.551449,67.906265 M106.824327,61.5088771 C98.0453416,68.2848426 93.4943799,76.4517941 84.0683711,82.6805429 M80.8332534,47.4240694 C76.6321892,53.1440328 53.9301521,97.3464099 42.9462392,98.3961023 M47.1197705,76.5366872 C30.6883552,86.1324823 20.8252614,102.086087 9.98761699,116.057321 M123.598756,80.203154 C114.273128,81.1031362 105.217666,81.5465309 95.8622108,79.6232419 M42.1225461,98.6020256 C31.6101343,109.43967 24.7664837,122.246491 8.91956926,128.279642 M129.908957,90.0656742 C115.684764,89.9429233 103.033388,85.0380489 89.7889082,81.4954803 M123.964715,95.3525678 C106.39814,89.6825078 91.7150652,78.3819662 71.2041894,90.0421565 M90.0194964,22.1150092 C71.165758,28.7183204 65.9023821,42.6826717 57.4876344,57.8469992 M54.9924638,68.4557762 C49.4153274,65.0525929 46.7360304,62.2172761 39.6956342,62.0583882 M84.6522984,81.3882166 C80.6755128,81.1799989 78.557199,80.8650912 74.9165443,79.3473391 M108.897326,73.4088332 C103.999335,76.0043842 99.3307847,78.708346 93.8890184,80.2369965 M101.902244,47.5565715 C97.3994653,51.1174954 93.4461973,55.8657764 90.014334,60.3817483 M58.9113157,94.023531 C81.9345701,85.6529507 75.2050664,65.6170177 80.077819,49.5567232 C82.6441163,41.0869097 89.468838,35.4770779 92.3345558,27.2338373 C95.0517105,19.4121946 82.1508182,23.5805635 83.1448712,16.2700005 C83.378901,14.5629596 87.1543522,15.3476477 85.7358334,13.1966386 C84.0890208,10.7089249 82.2104729,12.8278123 80.4036252,13.1031414 C55.7587967,16.8183644 61.5992167,36.8955967 58.4237536,53.2593269 C56.7907075,61.6746482 54.8209567,69.9609089 52.2150809,78.139906 C51.0397695,81.8207128 49.7468696,85.4367026 48.1161179,88.9500175 C46.0591796,93.3782282 46.3132854,100.297021 38.8753827,98.3232548 M41.4824058,89.6744773 C43.057518,90.6937689 45.1591973,91.7274004 46.8805782,92.461038 M38.8753827,98.3232548 C41.2764825,95.68411 40.8181741,92.6302507 41.4824058,89.6767717 M127.28071,96.0007386 C127.039224,95.8665156 126.790854,95.7477799 126.539042,95.6313386 C126.22815,95.4856436 125.917831,95.3491262 125.605218,95.2154768 C123.89703,94.4858545 122.160161,93.8353894 120.446811,93.1195335 C120.195573,93.0151379 119.943762,92.9101687 119.694818,92.7920066 C119.646636,92.7661944 119.598453,92.7426767 119.546829,92.7082606 C119.525606,92.6921997 119.500941,92.6784333 119.50725,92.6669612 C119.514707,92.6577836 119.533062,92.6497532 119.549123,92.6503268 C119.596159,92.6440171 119.632296,92.6692556 119.67761,92.6669612 M124.08345,98.8544107 C123.899898,98.4804219 123.658985,98.1419964 123.397996,97.8184847 C122.916169,97.2288214 122.368379,96.6976655 121.867624,96.1246367 C121.764376,96.0081954 121.662275,95.8860181 121.564762,95.7603991 C121.482163,95.6519883 121.40358,95.5407094 121.373179,95.4064864 C121.355397,95.3221669 121.357692,95.2315377 121.416773,95.1724567 C121.449468,95.1426293 121.498798,95.1202588 121.553864,95.1059188 C121.654244,95.0743706 121.745447,95.0703554 121.846975,95.0686346 C122.120583,95.0646194 122.400501,95.0938731 122.680992,95.1340253 C123.091692,95.1919591 123.502965,95.2676747 123.908502,95.3456846 C125.03563,95.5556231 126.15817,95.7925209 127.28071,96.0007386 M78.1832102,90.8515095 C94.6283919,89.5431224 108.982219,94.5265803 124.082877,98.8555579 M63.5368457,91.9866687 C68.8019424,89.9825018 72.6198402,89.2442755 78.1832102,90.8515095 M8.91956926,128.279642 C30.8678927,124.022938 40.1201,104.609364 56.6782814,94.8099399 M39.6956342,62.060109 C35.1664694,58.6661034 34.3037713,64.3573868 32.6523699,67.3808452 C31.0457095,70.3239993 29.6690637,73.3709754 28.2975802,76.4265556 C25.5603494,82.530259 22.9389863,88.689602 20.185121,94.791011 C14.6452687,107.058646 10.0621853,119.302764 0.255878125,129.466425 M51.6965443,79.7339472 C48.3335132,77.7900085 45.5515414,75.4847004 43.1808426,72.3723336 C40.7590931,69.1940025 34.8963026,66.6145123 39.6956342,62.0583882 M79.9734234,84.8585113 C76.4555197,85.4854588 75.1442645,85.6690115 71.6206248,85.3271445 M100.716035,45.915495 C92.243353,50.1515489 91.0267422,57.2108741 88.6812819,64.8638777 C87.5524323,68.5383749 86.6254908,72.2604811 85.6704427,75.9820137 C84.7119531,79.7207543 85.6182449,84.2894977 79.9734234,84.8585113 M109.288523,74.8480017 C106.458368,65.1936991 107.760446,54.9044187 100.716608,45.9160686 M130.744122,92.8809149 C127.562349,80.8622232 121.40358,76.2321043 109.289096,74.8451336 M123.307366,93.1849242 C125.819171,93.379949 128.258129,93.2830102 130.744122,92.8820621 M119.67761,92.6669612 C120.788104,92.8872246 121.905482,93.0524221 123.035479,93.1596857" id="Stroke-1" stroke="#FFFFFF" stroke-width="2" stroke-linecap="round" stroke-linejoin="round"></path>
            <path d="M133.1,0 L137.8,0 C138.65,0 138.85,0.25 138.85,1.05 L138.85,22.35 L143.4,22.35 C144.25,22.35 144.45,22.6 144.45,23.45 L144.45,26 C144.45,26.8 144.25,27.05 143.4,27.05 L138.85,27.05 L138.85,33.95 C138.85,34.75 138.65,35 137.8,35 L134.25,35 C133.4,35 133.15,34.75 133.15,33.95 L133.15,27.05 L117.05,27.05 C116.2,27.05 116,26.8 116,26 L116,23.25 C116,22.4 116.1,22.15 116.6,21.45 L132.3,0.4 C132.45,0.2 132.65,0 133.1,0 Z M133.15,7.5 L122.05,22.35 L133.15,22.35 L133.15,7.5 Z" id="4" fill="#FFFFFF"></path>
        </g>
    </g>
</svg>