<?xml version="1.0" encoding="UTF-8"?>
<svg width="147px" height="135px" viewBox="0 0 147 135" version="1.1" xmlns="http://www.w3.org/2000/svg" xmlns:xlink="http://www.w3.org/1999/xlink">
    <!-- Generator: Sketch 50.2 (55047) - http://www.bohemiancoding.com/sketch -->
    <title>Group</title>
    <desc>Created with Sketch.</desc>
    <defs></defs>
    <g id="Page-1" stroke="none" stroke-width="1" fill="none" fill-rule="evenodd">
        <g id="Group" transform="translate(-13.000000, -1.000000)">
            <rect id="Rectangle" x="0" y="0" width="172" height="145"></rect>
            <polyline id="Stroke-1_1_" stroke="#FFFFFF" stroke-width="2" stroke-linecap="round" stroke-linejoin="round" points="137.502 109.521 137.502 88.501 158.521 88.501"></polyline>
            <path d="M137.502,88.502 L118.5,69.501" id="Stroke-4" stroke="#FFFFFF" stroke-width="3" stroke-linecap="round" stroke-linejoin="round" stroke-dasharray="0.032,6.467"></path>
            <path d="M108.808276,77.1415514 C105.704819,77.9076725 102.765144,78.9673171 99.8861474,80.3535374 M126.402914,24.4286739 C128.177375,25.7527363 129.949862,27.0802519 131.727283,28.4062876 M116.052634,16.9613369 C119.340097,19.2340476 122.580202,21.563983 125.777882,23.9629828 M99.6375157,7.48324045 C104.761104,9.74904469 109.4856,12.5772301 114.129684,15.6624336 M84.3821857,2.94275226 C88.7781321,3.67187454 92.9890846,4.82623595 97.1398525,6.44234191 M81.6664765,2.5337926 C81.9491471,2.56980472 82.232311,2.6072968 82.5139949,2.64873542 M18.503175,51.9597001 C21.3880919,54.1071083 24.1186006,55.8356905 27.9062873,56.1642395 M15.8062119,53.4431038 C42.8375081,74.2694608 53.5350838,48.5469342 70.0108796,31.9571822 C91.1618391,10.6611875 108.613909,12.7005593 131.979368,28.7042509 M39.1588444,92.0313336 C65.1467755,88.2051682 70.5609278,65.7932909 85.4477501,51.9370075 C104.737918,33.9832344 120.763809,39.3929469 142.070164,44.7898331 M38.703513,49.3520272 C42.4680138,45.5140222 42.0516544,44.1070826 45.3114921,39.8685043 M56.5171841,25.8716256 C68.8367855,10.6355351 76.3840398,-3.05894041 99.6375157,7.48521371 M128.057005,70.3293392 C129.938023,70.5587315 131.309443,70.3969236 133.179608,70.7106731 M35.0953936,114.718975 C38.1065996,114.039184 42.3066992,114.96366 45.1926027,113.878856 M60.3872547,99.0053538 C77.3741267,86.0710796 89.290195,71.9059798 114.058154,72.9069197 M132.209747,78.5425713 C133.925503,79.1380047 133.81352,79.020102 135.49869,79.695946 M41.5218321,116.281803 C62.1079438,106.088397 79.0213116,90.1641294 99.8891073,80.3555107 M117.993835,54.9344006 C126.72505,54.603385 136.874057,56.9959717 145.408932,57.9663259 M31.0659817,107.534309 C69.60044,108.916089 75.3609007,73.1668977 100.91866,59.7156274 M94.8617154,70.0540684 C100.686801,67.6555619 106.702306,65.8406493 113.020215,65.4144235 M33.3712513,55.4977684 C62.880478,46.2308116 72.3916266,-13.0328203 116.052634,16.9657767 M27.9146737,56.1647328 C28.1228534,56.1819989 28.3330064,56.1953184 28.5416794,56.2017316 M30.8045238,73.8141294 C50.0966654,76.7725504 69.1608947,47.0576106 78.8279314,38.2075065 C98.5675115,20.1447104 115.46904,24.6610261 136.844458,34.3571686 M70.3640944,5.20214338 C74.9766069,2.90328691 79.2176517,2.02666288 84.3821857,2.94423221 M53.409288,21.1402238 C56.8546128,16.9766297 60.4553324,11.9887031 64.7999738,8.69877314 M51.5904288,33.9230498 C51.8997384,34.1144567 52.2090481,34.3107968 52.5144112,34.5110834 M56.5171841,25.8716256 C54.7116444,28.5350433 53.9228308,31.4530124 51.5904288,33.9230498 M56.1822219,20.2877723 C54.8428667,22.1737226 53.2538932,24.9969749 56.5171841,25.8711323 M64.7249896,8.71751918 C58.1998878,10.3587843 47.7894225,24.922484 56.1827152,20.2877723 M70.7360553,6.03338225 C68.8496117,7.17343747 66.9523152,8.12800556 64.7999738,8.69877314 M69.1253758,2.90328691 C69.7553414,3.90472009 70.2846704,4.94117877 70.7365486,6.03338225 M81.6664765,2.5337926 C77.4140854,1.9684515 73.3057427,2.50222032 69.1248825,2.90328691 M126.402914,24.4247273 C126.193748,24.2688392 125.985075,24.117391 125.776402,23.966436 M137.50353,82.8349211 C133.535782,78.7537109 135.337869,73.2788806 132.199387,69.0353691 C130.872365,67.2367359 131.92165,63.4904879 133.645299,65.4233032 C135.320603,67.3058003 136.407873,69.569138 138.004246,71.4989934 C136.931775,69.3851308 136.415766,67.01425 135.851905,64.6206767 C135.027572,61.1191138 139.294763,63.4347431 140.88423,62.4594557 C146.545534,58.9810786 147.24851,55.1933919 144.267397,49.427998 C140.503883,42.1530546 138.508416,34.2718248 131.727283,28.4057942 M137.227272,82.6430208 C137.330869,82.7298446 137.433972,82.8225882 137.546448,82.9049721 M99.5279993,64.663102 C101.327126,58.4487898 102.69312,53.9630597 105.242582,47.9618604 C106.58687,44.803646 109.091933,37.9253293 111.815042,42.7918999 C113.407962,45.639818 114.309745,48.7827396 115.984556,51.6020453 C119.258206,57.1262073 122.719317,62.5102673 126.491218,67.7118001 C130.091937,72.6735808 130.269532,79.4734601 137.227766,82.6420342 M97.1186399,74.8530546 C97.4368293,73.6113761 97.7860976,72.5877437 98.0524887,71.3278125 M18.4928154,51.972033 C8.99745287,44.842618 21.364906,63.4140238 26.0440163,68.101027 C29.2273898,71.2893338 31.7161733,74.7326853 33.619883,78.8321483 C35.3385988,82.5409043 40.0147491,84.074133 39.7557578,89.3319039 C39.3374251,97.6872112 26.03119,101.62536 32.9820243,112.112782 C40.277687,123.119174 46.7263247,111.610092 52.7886954,106.184594 C59.2772918,100.377761 65.2557986,94.0588658 71.5801204,88.0907187 C75.6859965,84.2117684 79.7479673,80.3693235 84.5178479,77.2397215 C87.5921984,75.2269888 89.5358668,78.339818 92.1746185,78.2579275 C97.2834077,78.1000661 101.989157,71.9355788 96.3199599,70.5394922 C88.3815054,68.5958238 100.900407,63.7894379 105.610103,62.5512126 C115.243101,60.0150707 118.502445,74.852068 108.807782,77.1484579 M33.3712513,55.4977684 C31.7783312,56.0601496 30.2184633,56.256983 28.5421727,56.2017316 M52.5144112,34.5110834 C48.4771062,37.2726711 44.5799032,40.0396853 41.3205588,43.8036928 C38.2101961,47.3955327 39.2910533,53.2304842 33.4713946,55.4627429" id="Stroke-1" stroke="#FFFFFF" stroke-width="2.179" stroke-linecap="round" stroke-linejoin="round"></path>
            <path d="M101.25,111.8 C107.2,111.8 112.3,115.5 112.3,122.75 C112.3,129.6 107.45,135.3 99.8,135.3 C88.5,135.3 86,127.25 86,118.45 C86,108.2 89.35,99 100.3,99 C104.75,99 108.05,100.45 111.3,103.45 C111.9,104.05 111.75,104.35 111.2,105 L109.05,107.3 C108.5,107.9 108.15,108 107.5,107.4 C105.15,105.1 103.1,104.3 99.8,104.3 C94.55,104.3 91.95,109.4 91.95,116.5 C93.25,114.1 95.9,111.8 101.25,111.8 Z M99.5,130.2 C103.85,130.2 106.3,127.05 106.3,123.15 C106.3,119.25 103.2,116.6 99.5,116.6 C95.55,116.6 92.35,119.7 92.35,123.35 C92.35,126.15 94.1,130.2 99.5,130.2 Z" id="6" fill="#FFFFFF"></path>
        </g>
    </g>
</svg>