<?xml version="1.0" encoding="utf-8"?>
<!-- Generator: Adobe Illustrator 16.0.4, SVG Export Plug-In . SVG Version: 6.00 Build 0)  -->
<!DOCTYPE svg PUBLIC "-//W3C//DTD SVG 1.1//EN" "http://www.w3.org/Graphics/SVG/1.1/DTD/svg11.dtd">
<svg version="1.1" id="Capa_1" xmlns="http://www.w3.org/2000/svg" xmlns:xlink="http://www.w3.org/1999/xlink" x="0px" y="0px"
	 width="61px" height="180px" viewBox="0 0 61 180" enable-background="new 0 0 61 180" xml:space="preserve">
<title>Group</title>
<desc>Created with Sketch.</desc>
<g id="Islas-black">
	<g id="Detalle-Factor-black" transform="translate(-732.000000, -350.000000)">
		<g id="Group" transform="translate(732.000000, 350.000000)">
			<path id="Stroke-1" fill="none" stroke="#FFFFFF" stroke-width="0.997" stroke-linecap="round" stroke-linejoin="round" d="
				M12.868,12.082c0.04-0.68,0.112-1.36,0.086-2.044"/>
			<path id="Stroke-5" fill="none" stroke="#FFFFFF" stroke-width="0.997" stroke-linecap="round" stroke-linejoin="round" d="
				M15.496,32.865c-0.245-1.115-0.484-2.228-0.717-3.34"/>
			<path id="Stroke-7" fill="none" stroke="#FFFFFF" stroke-width="0.997" stroke-linecap="round" stroke-linejoin="round" d="
				M16.947,37.455c-0.292-1.434-0.946-2.24-1.257-3.682"/>
			<path id="Stroke-9" fill="none" stroke="#FFFFFF" stroke-width="0.997" stroke-linecap="round" stroke-linejoin="round" d="
				M16.485,4.064c-0.278-0.389-0.564-0.757-0.883-1.102"/>
			<path id="Stroke-11" fill="none" stroke="#FFFFFF" stroke-width="0.997" stroke-linecap="round" stroke-linejoin="round" d="
				M16.632,4.346c-0.007-0.029-0.014-0.049-0.026-0.069"/>
			<path id="Stroke-15" fill="none" stroke="#FFFFFF" stroke-width="0.997" stroke-linecap="round" stroke-linejoin="round" d="
				M35.615,167.574c1.533,2.555,2.854,5.188,3.962,7.955"/>
			<path id="Stroke-17" fill="none" stroke="#FFFFFF" stroke-width="0.997" stroke-linecap="round" stroke-linejoin="round" d="
				M22.128,145.212c1.553,3.411,3.458,6.585,5.449,9.737"/>
			<path id="Stroke-19" fill="none" stroke="#FFFFFF" stroke-width="0.997" stroke-linecap="round" stroke-linejoin="round" d="
				M19.399,136.766c0.531,2.758,1.36,5.359,2.496,7.926"/>
			<path id="Stroke-21" fill="none" stroke="#FFFFFF" stroke-width="0.997" stroke-linecap="round" stroke-linejoin="round" d="
				M5.746,125.528c0.1-0.979,0.239-1.948,0.385-2.917"/>
			<path id="Stroke-23" fill="none" stroke="#FFFFFF" stroke-width="0.997" stroke-linecap="round" stroke-linejoin="round" d="
				M5.561,134.041c-0.007-0.119-0.014-0.227-0.021-0.346"/>
			<path id="Stroke-25" fill="none" stroke="#FFFFFF" stroke-width="0.997" stroke-linecap="round" stroke-linejoin="round" d="
				M6.648,141.256c-0.484-2.137-0.829-4.288-1.028-6.473"/>
			<path id="Stroke-27" fill="none" stroke="#FFFFFF" stroke-width="0.997" stroke-linecap="round" stroke-linejoin="round" d="
				M7.896,146.334c-0.345-1.5-0.743-2.987-1.102-4.494"/>
			<path id="Stroke-29" fill="none" stroke="#FFFFFF" stroke-width="0.997" stroke-linecap="round" stroke-linejoin="round" d="
				M8.54,150.35c-0.093-1.275-0.299-2.52-0.577-3.758"/>
			<path id="Stroke-31" fill="none" stroke="#FFFFFF" stroke-width="0.997" stroke-linecap="round" stroke-linejoin="round" d="
				M8.241,160.133c0.206-3.307,0.519-5.665,0.359-8.987"/>
			<path id="Stroke-33" fill="none" stroke="#FFFFFF" stroke-width="0.997" stroke-linecap="round" stroke-linejoin="round" d="
				M10.187,79.5c0.232-1.088,0.451-2.178,0.664-3.266"/>
			<path id="Stroke-35" fill="none" stroke="#FFFFFF" stroke-width="0.997" stroke-linecap="round" stroke-linejoin="round" d="
				M9.157,84.086c0.339-1.459,0.664-2.934,0.982-4.414"/>
			<path id="Stroke-39" fill="none" stroke="#FFFFFF" stroke-width="0.997" stroke-linecap="round" stroke-linejoin="round" d="
				M10.279,70.24c-0.923-6.518-2.498-11.983-3.461-18.487"/>
			<path id="Stroke-41" fill="none" stroke="#FFFFFF" stroke-width="0.997" stroke-linecap="round" stroke-linejoin="round" d="
				M10.923,78.756c-0.02-2.691-0.219-5.355-0.584-8.023"/>
			<path id="Stroke-43" fill="none" stroke="#FFFFFF" stroke-width="0.997" stroke-linecap="round" stroke-linejoin="round" d="
				M10.611,87.548c0.212-2.891,0.318-5.771,0.312-8.672"/>
			<path id="Stroke-45" fill="none" stroke="#FFFFFF" stroke-width="0.997" stroke-linecap="round" stroke-linejoin="round" d="
				M10.16,96.359c0.079-2.848,0.212-5.688,0.432-8.536"/>
			<path id="Stroke-47" fill="none" stroke="#FFFFFF" stroke-width="0.997" stroke-linecap="round" stroke-linejoin="round" d="
				M10.97,106.316c-0.631-3.16-0.843-6.3-0.81-9.512"/>
			<path id="Stroke-49" fill="none" stroke="#FFFFFF" stroke-width="0.997" stroke-linecap="round" stroke-linejoin="round" d="
				M11.269,107.689c-0.047-0.223-0.1-0.443-0.152-0.678"/>
			<path id="Stroke-51" fill="none" stroke="#FFFFFF" stroke-width="0.997" stroke-linecap="round" stroke-linejoin="round" d="
				M23.562,122.252c-0.412,0.816-0.823,1.633-1.241,2.453"/>
			<path id="Stroke-53" fill="none" stroke="#FFFFFF" stroke-width="0.997" stroke-linecap="round" stroke-linejoin="round" d="
				M27.231,113.75c-0.883,2.675-2.024,5.211-3.285,7.723"/>
			<path id="Stroke-55" fill="none" stroke="#FFFFFF" stroke-width="0.997" stroke-linecap="round" stroke-linejoin="round" d="
				M29.276,104.457c-0.372,3.117-1.022,6.12-1.985,9.113"/>
			<path id="Stroke-57" fill="none" stroke="#FFFFFF" stroke-width="0.997" stroke-linecap="round" stroke-linejoin="round" d="
				M29.82,96.73c-0.06,2.391-0.226,4.773-0.478,7.156"/>
			<path id="Stroke-59" fill="none" stroke="#FFFFFF" stroke-width="0.997" stroke-linecap="round" stroke-linejoin="round" d="
				M30.205,90.299c-0.238,2.012-0.292,4.025-0.378,6.041"/>
			<path id="Stroke-63" fill="none" stroke="#FFFFFF" stroke-width="0.997" stroke-linecap="round" stroke-linejoin="round" d="
				M6.909,117.709c1.586-3.412,1.99-3.475,4.261-6.459"/>
			<path id="Stroke-65" fill="none" stroke="#FFFFFF" stroke-width="0.997" stroke-linecap="round" stroke-linejoin="round" d="
				M7.458,48.025c-0.046-0.22-0.093-0.445-0.119-0.671"/>
			<path id="Stroke-67" fill="none" stroke="#FFFFFF" stroke-width="0.997" stroke-linecap="round" stroke-linejoin="round" d="
				M28.201,77.602c-4.354-9.857-13.667-15.064-18.679-24.233"/>
			<path id="Stroke-69" fill="none" stroke="#FFFFFF" stroke-width="0.997" stroke-linecap="round" stroke-linejoin="round" d="
				M25.918,89.297c0.577-1.012,2.256-3.484,2.754-4.536"/>
			<path id="Stroke-71" fill="none" stroke="#FFFFFF" stroke-width="0.997" stroke-linecap="round" stroke-linejoin="round" d="
				M37.66,78.232c-0.358,0.607-1.169,1.965-1.514,2.579"/>
			<path id="Stroke-73" fill="none" stroke="#FFFFFF" stroke-width="0.997" stroke-linecap="round" stroke-linejoin="round" d="
				M43.6,68.289c-1.871,3.379-3.941,6.631-5.939,9.943"/>
			<path id="Stroke-75" fill="none" stroke="#FFFFFF" stroke-width="0.997" stroke-linecap="round" stroke-linejoin="round" d="
				M48.047,58.535c-1.121,3.365-2.648,6.502-4.354,9.602"/>
			<path id="Stroke-77" fill="none" stroke="#FFFFFF" stroke-width="0.997" stroke-linecap="round" stroke-linejoin="round" d="
				M49.819,49.451c-0.159,3.031-0.717,5.908-1.673,8.789"/>
			<path id="Stroke-79" fill="none" stroke="#FFFFFF" stroke-width="0.997" stroke-linecap="round" stroke-linejoin="round" d="
				M47.622,34.016c0.685,2.533,1.248,5.088,1.681,7.677"/>
			<path id="Stroke-81" fill="none" stroke="#FFFFFF" stroke-width="0.997" stroke-linecap="round" stroke-linejoin="round" d="
				M46.587,30.289c0.345,1.175,0.677,2.356,0.981,3.541"/>
			<path id="Stroke-83" fill="none" stroke="#FFFFFF" stroke-width="0.997" stroke-linecap="round" stroke-linejoin="round" d="
				M25.938,27.621c-0.08-0.797-0.292-1.514-0.657-2.224"/>
			<path id="Stroke-89" fill="none" stroke="#FFFFFF" stroke-width="0.997" stroke-linecap="round" stroke-linejoin="round" d="
				M10.326,7.051c0.066-0.166,0.133-0.322,0.199-0.484"/>
			<path id="Stroke-93" fill="none" stroke="#FFFFFF" stroke-width="0.997" stroke-linecap="round" stroke-linejoin="round" d="
				M45.784,27.548c9.735,5.052,16.447,9.571,13.753,22.156"/>
			<path id="Stroke-95" fill="none" stroke="#FFFFFF" stroke-width="0.997" stroke-linecap="round" stroke-linejoin="round" d="
				M48.83,55.896c-0.63,4.447-2.037,8.656-3.199,12.957"/>
			<path id="Stroke-97" fill="none" stroke="#FFFFFF" stroke-width="0.997" stroke-linecap="round" stroke-linejoin="round" d="
				M13.409,154.427c-1.805,2.283-3.03,3.35-4.211,6.128"/>
			<path id="Stroke-101" fill="none" stroke="#FFFFFF" stroke-width="0.997" stroke-linecap="round" stroke-linejoin="round" d="
				M17.129,130.031c-1.984,7.447-9.272,12.014-8.528,21.102"/>
			<path id="Stroke-103" fill="none" stroke="#FFFFFF" stroke-width="0.997" stroke-linecap="round" stroke-linejoin="round" d="
				M13.711,18.945c0.007,0.033,0.014,0.066,0.02,0.094"/>
			<path id="Stroke-107" fill="none" stroke="#FFFFFF" stroke-width="0.997" stroke-linecap="round" stroke-linejoin="round" d="
				M25.482,12.901c3.14,3.633,1.053,2.35,2.911,6.859"/>
			<path id="Stroke-109" fill="none" stroke="#FFFFFF" stroke-width="0.997" stroke-linecap="round" stroke-linejoin="round" d="
				M16.485,4.064c7.215,10.988-3.053,19.475-0.796,29.709"/>
			<path id="Stroke-111" fill="none" stroke="#FFFFFF" stroke-width="0.997" stroke-linecap="round" stroke-linejoin="round" d="
				M14.155,0.984c0.624,0.73,1.215,1.474,1.766,2.257"/>
			<path id="Stroke-113" fill="none" stroke="#FFFFFF" stroke-width="0.997" stroke-linecap="round" stroke-linejoin="round" d="
				M11.109,128.551c-2.682,4.169-5.648,7.547-4.314,13.289"/>
			<path id="Stroke-115" fill="none" stroke="#FFFFFF" stroke-width="0.997" stroke-linecap="round" stroke-linejoin="round" d="
				M6.695,122.578c-0.372,0.896-0.677,1.799-0.876,2.748"/>
			<path id="Stroke-117" fill="none" stroke="#FFFFFF" stroke-width="0.997" stroke-linecap="round" stroke-linejoin="round" d="
				M11.295,107.684c1.818,5.625,6.989,8.389,9.227,13.609"/>
			<path id="Stroke-119" fill="none" stroke="#FFFFFF" stroke-width="0.997" stroke-linecap="round" stroke-linejoin="round" d="
				M10.963,105.413c-0.013,0.544,0.04,1.067,0.153,1.606"/>
			<path id="Stroke-127" fill="none" stroke="#FFFFFF" stroke-width="0.997" stroke-linecap="round" stroke-linejoin="round" d="
				M14.354,113.922c-3.252,2.975-5.96,6.184-8.091,10.07"/>
			<path id="Stroke-129" fill="none" stroke="#FFFFFF" stroke-width="0.997" stroke-linecap="round" stroke-linejoin="round" d="
				M26.885,90.12c1.778,1.958,3.042,3.664,2.936,6.61"/>
			<path id="Stroke-131" fill="none" stroke="#FFFFFF" stroke-width="0.997" stroke-linecap="round" stroke-linejoin="round" d="
				M14.264,76.953c3.604,4.56,7.658,8.262,11.66,12.344"/>
			<path id="Stroke-133" fill="none" stroke="#FFFFFF" stroke-width="0.997" stroke-linecap="round" stroke-linejoin="round" d="
				M14.534,61.373c-2.841,2.695-4.812,5.012-4.195,9.359"/>
			<path id="Stroke-135" fill="none" stroke="#FFFFFF" stroke-width="0.997" stroke-linecap="round" stroke-linejoin="round" d="
				M20.919,121.387c-2.329,2.1-4.719,4.125-6.823,6.475"/>
			<path id="Stroke-137" fill="none" stroke="#FFFFFF" stroke-width="0.997" stroke-linecap="round" stroke-linejoin="round" d="
				M12.733,92.621c2.602,3.421,6.148,7.449,9.188,10.361c3.24,3.094,7.182,5.105,5.31,10.768"/>
			<path id="Stroke-139" fill="none" stroke="#FFFFFF" stroke-width="0.997" stroke-linecap="round" stroke-linejoin="round" d="
				M12.477,83.562c-1.022,1.294-1.739,2.545-1.885,4.261"/>
			<path id="Stroke-141" fill="none" stroke="#FFFFFF" stroke-width="0.997" stroke-linecap="round" stroke-linejoin="round" d="
				M16.73,146.592c3.458,3.625,7.627,4.342,10.814,8.391"/>
			<path id="Stroke-143" fill="none" stroke="#FFFFFF" stroke-width="0.997" stroke-linecap="round" stroke-linejoin="round" d="
				M35.94,69.186c0.524,1.301,0.883,2.615,1.028,4.021"/>
			<path id="Stroke-145" fill="none" stroke="#FFFFFF" stroke-width="0.997" stroke-linecap="round" stroke-linejoin="round" d="
				M12.573,162.114c2.277,1.225,25.684,10.271,27.111,13.662"/>
			<path id="Stroke-147" fill="none" stroke="#FFFFFF" stroke-width="0.997" stroke-linecap="round" stroke-linejoin="round" d="
				M16.847,65.283c2.582,2.344,6.464,5.552,8.966,7.978"/>
			<path id="Stroke-153" fill="none" stroke="#FFFFFF" stroke-width="0.997" stroke-linecap="round" stroke-linejoin="round" d="
				M12.038,110.119c-0.292,0.371-0.584,0.75-0.876,1.131"/>
			<path id="Stroke-155" fill="none" stroke="#FFFFFF" stroke-width="0.997" stroke-linecap="round" stroke-linejoin="round" d="
				M18.271,130.092c-0.353,10.148-9.074,15.923-9.725,25.912"/>
			<path id="Stroke-157" fill="none" stroke="#FFFFFF" stroke-width="0.997" stroke-linecap="round" stroke-linejoin="round" d="
				M14.951,128.879c-2.953,5.994-8.787,9.197-6.988,17.713"/>
			<path id="Stroke-159" fill="none" stroke="#FFFFFF" stroke-width="0.997" stroke-linecap="round" stroke-linejoin="round" d="
				M15.463,33.15c0.379,1.818,0.548,3.387,0.76,5.229"/>
			<path id="Stroke-161" fill="none" stroke="#FFFFFF" stroke-width="0.997" stroke-linecap="round" stroke-linejoin="round" d="
				M9.742,82.428c-0.113,1.592,0.006,3.109,0.404,4.666"/>
			<path id="Stroke-163" fill="none" stroke="#FFFFFF" stroke-width="0.997" stroke-linecap="round" stroke-linejoin="round" d="
				M10.691,77.575c-0.206,0.693-0.392,1.394-0.545,2.104"/>
			<path id="Stroke-165" fill="none" stroke="#FFFFFF" stroke-width="0.997" stroke-linecap="round" stroke-linejoin="round" d="
				M25.134,23.24c-1.301,4.483-5.296,8.257-6.862,12.568"/>
			<path id="Stroke-167" fill="none" stroke="#FFFFFF" stroke-width="0.997" stroke-linecap="round" stroke-linejoin="round" d="
				M16.452,3.766c5.058,5.363,10.244,9.921,8.936,18.503"/>
			<path id="Stroke-171" fill="none" stroke="#FFFFFF" stroke-width="0.997" stroke-linecap="round" stroke-linejoin="round" d="
				M5.561,133.666c0,0.123,0,0.248,0.006,0.375"/>
			<path id="Stroke-175" fill="none" stroke="#FFFFFF" stroke-width="0.997" stroke-linecap="round" stroke-linejoin="round" d="
				M22.625,123.809c-1.612,2.277-3.631,4.152-5.528,6.15"/>
			<path id="Stroke-177" fill="none" stroke="#FFFFFF" stroke-width="0.997" stroke-linecap="round" stroke-linejoin="round" d="
				M13.133,101.539c4.653,6.262,16.355,9.164,10.441,20.721"/>
			<path id="Stroke-179" fill="none" stroke="#FFFFFF" stroke-width="0.997" stroke-linecap="round" stroke-linejoin="round" d="
				M12.589,91.428c-1.413,1.6-2.455,3.061-2.429,5.373"/>
			<path id="Stroke-181" fill="none" stroke="#FFFFFF" stroke-width="0.997" stroke-linecap="round" stroke-linejoin="round" d="
				M1.917,160.133c3.153,9.705,11.675,11.569,19.096,14.424"/>
			<path id="Stroke-183" fill="none" stroke="#FFFFFF" stroke-width="0.997" stroke-linecap="round" stroke-linejoin="round" d="
				M29.409,85.895c0.677,1.444,0.976,2.799,0.783,4.404"/>
			<path id="Stroke-185" fill="none" stroke="#FFFFFF" stroke-width="0.997" stroke-linecap="round" stroke-linejoin="round" d="
				M28.951,85.032c0.1,0.163,0.186,0.342,0.285,0.515"/>
			<path id="Stroke-187" fill="none" stroke="#FFFFFF" stroke-width="0.997" stroke-linecap="round" stroke-linejoin="round" d="
				M15.981,72.013c4.221,4.136,9.272,7.249,12.624,12.459"/>
			<path id="Stroke-189" fill="none" stroke="#FFFFFF" stroke-width="0.997" stroke-linecap="round" stroke-linejoin="round" d="
				M9.278,54.694c-0.843,1.812-1.135,4.164-0.743,6.107"/>
			<path id="Stroke-195" fill="none" stroke="#FFFFFF" stroke-width="0.997" stroke-linecap="round" stroke-linejoin="round" d="
				M17.269,117.709c-5.29,4.451-9.319,9.09-11.615,15.854"/>
			<path id="Stroke-197" fill="none" stroke="#FFFFFF" stroke-width="0.997" stroke-linecap="round" stroke-linejoin="round" d="
				M12.463,83.781c2.47,4.062,6.04,6.744,9.459,9.771c3.478,3.086,8.104,4.686,7.354,10.904"/>
			<path id="Stroke-199" fill="none" stroke="#FFFFFF" stroke-width="0.997" stroke-linecap="round" stroke-linejoin="round" d="
				M16.685,69.859c-2.98,2.495-5.748,4.43-5.762,9.017"/>
			<path id="Stroke-201" fill="none" stroke="#FFFFFF" stroke-width="0.997" stroke-linecap="round" stroke-linejoin="round" d="
				M20.66,156.104c-1.806,2.683-3.743,4.262-6.014,6.492"/>
			<path id="Stroke-203" fill="none" stroke="#FFFFFF" stroke-width="0.997" stroke-linecap="round" stroke-linejoin="round" d="
				M19.971,141.369c0.75,1.268,1.546,2.502,2.157,3.843"/>
			<path id="Stroke-205" fill="none" stroke="#FFFFFF" stroke-width="0.997" stroke-linecap="round" stroke-linejoin="round" d="
				M12.176,149.852c1.872,1.909,3.115,4.119,5.405,5.39"/>
			<path id="Stroke-213" fill="none" stroke="#FFFFFF" stroke-width="0.997" stroke-linecap="round" stroke-linejoin="round" d="
				M39.644,69.238c-0.237,0.219-0.483,0.432-0.735,0.646"/>
			<path id="Stroke-215" fill="none" stroke="#FFFFFF" stroke-width="0.997" stroke-linecap="round" stroke-linejoin="round" d="
				M25.924,28.046c-4.812,10.308,6.459,10.613,12.027,14.384c5.98,4.054,13.09,6.312,10.188,15.81"/>
			<path id="Stroke-219" fill="none" stroke="#FFFFFF" stroke-width="0.997" stroke-linecap="round" stroke-linejoin="round" d="
				M37.082,78.955c-0.318,0.615-0.65,1.225-0.971,1.832"/>
			<path id="Stroke-221" fill="none" stroke="#FFFFFF" stroke-width="0.997" stroke-linecap="round" stroke-linejoin="round" d="
				M13.711,40.671c0.963,18.405,35.684,14.362,23.829,37.396"/>
			<path id="Stroke-227" fill="none" stroke="#FFFFFF" stroke-width="0.997" stroke-linecap="round" stroke-linejoin="round" d="
				M37.533,30.156c5.078,3.027,10.693,4.395,11.82,11.842"/>
			<path id="Stroke-229" fill="none" stroke="#FFFFFF" stroke-width="0.997" stroke-linecap="round" stroke-linejoin="round" d="
				M28.672,84.571c-0.232,0.624-0.484,1.241-0.75,1.852"/>
			<path id="Stroke-231" fill="none" stroke="#FFFFFF" stroke-width="0.997" stroke-linecap="round" stroke-linejoin="round" d="
				M7.353,47.354c0.365,2.177,1.135,4.095,2.17,6.014"/>
			<path id="Stroke-233" fill="none" stroke="#FFFFFF" stroke-width="0.997" stroke-linecap="round" stroke-linejoin="round" d="
				M24.507,66.369c5.608,5.894,13.079,10.695,10.743,20.969"/>
			<path id="Stroke-237" fill="none" stroke="#FFFFFF" stroke-width="0.997" stroke-linecap="round" stroke-linejoin="round" d="
				M11.043,53.713c5.363,9.293,15.313,14.629,18.24,26.252"/>
			<path id="Stroke-243" fill="none" stroke="#FFFFFF" stroke-width="0.997" stroke-linecap="round" stroke-linejoin="round" d="
				M8.793,41.374c-2.019,8.761,3.444,11.708,9.252,15.88c5.311,3.816,11.31,6.289,15.121,12.383"/>
			<path id="Stroke-245" fill="none" stroke="#FFFFFF" stroke-width="0.997" stroke-linecap="round" stroke-linejoin="round" d="
				M41.293,82.942c1.028,2.27,2.077,4.542,1.918,7.058"/>
			<path id="Stroke-247" fill="none" stroke="#FFFFFF" stroke-width="0.997" stroke-linecap="round" stroke-linejoin="round" d="
				M26.422,27.309c3.711,4.6,8.861,6.604,13.454,9.674c4.832,3.226,10.315,4.843,9.942,12.469"/>
			<path id="Stroke-249" fill="none" stroke="#FFFFFF" stroke-width="0.997" stroke-linecap="round" stroke-linejoin="round" d="
				M25.831,21.621c-0.325,0.504-0.57,1.028-0.697,1.619"/>
			<path id="Stroke-251" fill="none" stroke="#FFFFFF" stroke-width="0.997" stroke-linecap="round" stroke-linejoin="round" d="
				M21.497,32.572c-4.846,12.074,7.898,12.067,14.297,16.398c7.474,5.055,13.209,9.436,7.897,19.166"/>
			<path id="Stroke-253" fill="none" stroke="#FFFFFF" stroke-width="0.997" stroke-linecap="round" stroke-linejoin="round" d="
				M37.301,26.752c-1.182,0.896-2.402,1.745-3.645,2.559"/>
			<path id="Stroke-255" fill="none" stroke="#FFFFFF" stroke-width="0.997" stroke-linecap="round" stroke-linejoin="round" d="
				M46.832,32.207c0.346,0.578,0.611,1.162,0.79,1.809"/>
			<path id="Stroke-257" fill="none" stroke="#FFFFFF" stroke-width="0.997" stroke-linecap="round" stroke-linejoin="round" d="
				M39.155,25.397c2.264,1.387,4.013,2.582,5.884,4.507"/>
			<path id="Stroke-261" fill="none" stroke="#FFFFFF" stroke-width="0.997" stroke-linecap="round" stroke-linejoin="round" d="
				M10.432,6.818c-0.033,0.08-0.072,0.166-0.105,0.239"/>
			<path id="Stroke-263" fill="none" stroke="#FFFFFF" stroke-width="0.997" stroke-linecap="round" stroke-linejoin="round" d="
				M10.525,6.543c-0.014,0.051-0.027,0.09-0.04,0.133"/>
			<path id="Stroke-265" fill="none" stroke="#FFFFFF" stroke-width="0.997" stroke-linecap="round" stroke-linejoin="round" d="
				M12.954,10.038c-2.615-0.266,1.029-2.416,1.753-3.524"/>
			<path id="Stroke-267" fill="none" stroke="#FFFFFF" stroke-width="0.997" stroke-linecap="round" stroke-linejoin="round" d="
				M14.707,6.514c-1.241,4.088-1.414,20.348-0.949,12.206"/>
			<path id="Stroke-269" fill="none" stroke="#FFFFFF" stroke-width="0.997" stroke-linecap="round" stroke-linejoin="round" d="
				M14.023,1.15c6.465,8.249,15.614,13.767,21.135,23.121"/>
			<path id="Stroke-273" fill="none" stroke="#FFFFFF" stroke-width="0.997" stroke-linecap="round" stroke-linejoin="round" d="
				M14.779,29.522c-1.852-8.871,4.819-16.04,1.859-25.187"/>
			<path id="Stroke-275" fill="none" stroke="#FFFFFF" stroke-width="0.997" stroke-linecap="round" stroke-linejoin="round" d="
				M15.311,31.77c-0.119-0.491-0.245-0.989-0.365-1.48"/>
			<path id="Stroke-277" fill="none" stroke="#FFFFFF" stroke-width="0.997" stroke-linecap="round" stroke-linejoin="round" d="
				M35.602,167.554c-5.516-9.322-13.54-4.411-20.842-4.952c-3.843-0.281-6.386-3.637-10.639-3.096
				c-6.512,0.833-2.663,6.246-0.591,10.002c1.367,2.457,0.185,8.152,5.071,6.443c3.657-1.285,7.287-1.422,11.058-1.408
				c3.75,0.01,7.461,0.252,11.177,0.744c3.545,0.467,14.463-0.67,9.386,3.764"/>
			<path id="Stroke-285" fill="none" stroke="#FFFFFF" stroke-width="0.997" stroke-linecap="round" stroke-linejoin="round" d="
				M6.118,122.611c0.212-1.414,0.413-3.525,0.791-4.902"/>
			<path id="Stroke-287" fill="none" stroke="#FFFFFF" stroke-width="0.997" stroke-linecap="round" stroke-linejoin="round" d="
				M5.819,125.326c0.02-0.264,0.039-0.516,0.072-0.777"/>
			<path id="Stroke-291" fill="none" stroke="#FFFFFF" stroke-width="0.997" stroke-linecap="round" stroke-linejoin="round" d="
				M25.864,174.785c4.262,1.071,10.594,1.582,14.357,4.266"/>
			<path id="Stroke-293" fill="none" stroke="#FFFFFF" stroke-width="0.997" stroke-linecap="round" stroke-linejoin="round" d="
				M27.472,156.104c0.1,2.509-0.338,3.271-0.93,5.696"/>
			<path id="Stroke-297" fill="none" stroke="#FFFFFF" stroke-width="0.997" stroke-linecap="round" stroke-linejoin="round" d="
				M10.671,151.65c1.984,3.252,4.727,3.365,7.932,3.736c3.047,0.346,8.921,5.549,8.974-0.432"/>
			<path id="Stroke-299" fill="none" stroke="#FFFFFF" stroke-width="0.997" stroke-linecap="round" stroke-linejoin="round" d="
				M20.116,140.565c-0.392,6.604-6.89,6.8-9.445,11.085"/>
			<path id="Stroke-301" fill="none" stroke="#FFFFFF" stroke-width="0.997" stroke-linecap="round" stroke-linejoin="round" d="
				M18.397,129.998c0.397,3.555,0.955,7.076,1.719,10.57"/>
			<path id="Stroke-303" fill="none" stroke="#FFFFFF" stroke-width="0.997" stroke-linecap="round" stroke-linejoin="round" d="
				M8.819,88.102c0.437-0.809,0.902-1.201,1.872-0.949"/>
			<path id="Stroke-305" fill="none" stroke="#FFFFFF" stroke-width="0.997" stroke-linecap="round" stroke-linejoin="round" d="
				M10.239,81.361c-1.142,2.184-1.633,4.266-1.42,6.74"/>
			<path id="Stroke-307" fill="none" stroke="#FFFFFF" stroke-width="0.997" stroke-linecap="round" stroke-linejoin="round" d="
				M10.26,80.99c0.007,0.126,0,0.252-0.021,0.371"/>
			<path id="Stroke-309" fill="none" stroke="#FFFFFF" stroke-width="0.997" stroke-linecap="round" stroke-linejoin="round" d="
				M9.994,81.77c0.106-0.238,0.166-0.484,0.245-0.723"/>
			<path id="Stroke-311" fill="none" stroke="#FFFFFF" stroke-width="0.997" stroke-linecap="round" stroke-linejoin="round" d="
				M10.645,79.118c-0.199,0.886-0.538,1.739-0.65,2.659"/>
			<path id="Stroke-313" fill="none" stroke="#FFFFFF" stroke-width="0.997" stroke-linecap="round" stroke-linejoin="round" d="
				M10.758,77.25c-0.106,0.621-0.146,1.234-0.113,1.871"/>
			<path id="Stroke-315" fill="none" stroke="#FFFFFF" stroke-width="0.997" stroke-linecap="round" stroke-linejoin="round" d="
				M10.877,76.656c-0.047,0.195-0.087,0.388-0.119,0.594"/>
			<path id="Stroke-317" fill="none" stroke="#FFFFFF" stroke-width="0.997" stroke-linecap="round" stroke-linejoin="round" d="
				M14.501,35.447c0.079,1.467,0.173,2.926,0.272,4.387"/>
			<path id="Stroke-319" fill="none" stroke="#FFFFFF" stroke-width="0.997" stroke-linecap="round" stroke-linejoin="round" d="
				M14.933,36.23c-0.047-0.329-0.312-0.498-0.432-0.783"/>
			<path id="Stroke-321" fill="none" stroke="#FFFFFF" stroke-width="0.997" stroke-linecap="round" stroke-linejoin="round" d="
				M15.503,32.857c-0.152,1.129-0.332,2.258-0.57,3.373"/>
			<path id="Stroke-327" fill="none" stroke="#FFFFFF" stroke-width="0.997" stroke-linecap="round" stroke-linejoin="round" d="
				M40.341,75.478c0.325-0.737,0.743-1.424,1.201-2.077c0.485-0.694,1.028-1.367,1.594-1.992c0.685-0.77,1.399-1.493,2.124-2.2
				c1.439-1.4,2.939-2.732,4.4-4.105c0.498-0.479,0.994-0.959,1.486-1.454c0.438-0.444,0.87-0.909,1.274-1.391
				c0.259-0.321,0.519-0.653,0.724-1.012"/>
			<path id="Stroke-329" fill="none" stroke="#FFFFFF" stroke-width="0.997" stroke-linecap="round" stroke-linejoin="round" d="
				M38.682,76.553c0.57-0.332,1.122-0.689,1.659-1.075"/>
			<path id="Stroke-335" fill="none" stroke="#FFFFFF" stroke-width="0.997" stroke-linecap="round" stroke-linejoin="round" d="
				M45.458,27.262c4.786,4.202,7.017,7.826,3.784,14.125"/>
			<path id="Stroke-337" fill="none" stroke="#FFFFFF" stroke-width="0.997" stroke-linecap="round" stroke-linejoin="round" d="
				M56.649,32.646c-4.507-0.597-7.54-3.432-11.19-5.384"/>
			<path id="Stroke-339" fill="none" stroke="#FFFFFF" stroke-width="0.997" stroke-linecap="round" stroke-linejoin="round" d="
				M10.552,40.093c-0.133-0.073-0.272-0.143-0.392-0.202"/>
			<path id="Stroke-343" fill="none" stroke="#FFFFFF" stroke-width="0.997" stroke-linecap="round" stroke-linejoin="round" d="
				M6.271,123.961c1.42-4.562,3.564-8.293,6.903-11.725"/>
			<path id="Stroke-345" fill="none" stroke="#FFFFFF" stroke-width="0.997" stroke-linecap="round" stroke-linejoin="round" d="
				M10.146,39.887c-15.884,9.827,8.921,17.437,6.817,28.694c-1.043,5.583-4.281,10.362-4.567,16.263
				c-0.139,2.867,0.04,5.668,0.432,8.502c0.379,2.734,3.578,5.297,0.305,8.193c-12.459,11.022,16.58,16.008,6.086,27.656
				c-2.502,2.774-3.962-1.686-6.365-1.225c-3.498,0.66-5.064,3.023-7.056,5.406c-4.008,4.816-0.53-6.209,0.465-9.385"/>
			<path id="Stroke-349" fill="none" stroke="#FFFFFF" stroke-width="0.997" stroke-linecap="round" stroke-linejoin="round" d="
				M30.358,89.191c0.969-1.202,1.885-2.457,2.741-3.744"/>
			<path id="Stroke-353" fill="none" stroke="#FFFFFF" stroke-width="0.997" stroke-linecap="round" stroke-linejoin="round" d="
				M33.292,69.643c1.153,1.613,2.131,3.127,2.323,5.23"/>
			<path id="Stroke-359" fill="none" stroke="#FFFFFF" stroke-width="0.997" stroke-linecap="round" stroke-linejoin="round" d="
				M34.626,29.559c0.093,0.398,0.181,0.797,0.267,1.191"/>
			<path id="Stroke-361" fill="none" stroke="#FFFFFF" stroke-width="0.997" stroke-linecap="round" stroke-linejoin="round" d="
				M38.469,30.217c-1.261-0.498-2.588,0.312-3.843-0.658"/>
			<path id="Stroke-363" fill="none" stroke="#FFFFFF" stroke-width="0.997" stroke-linecap="round" stroke-linejoin="round" d="
				M39.743,27.893c-1.619-0.689-1.666,1.049-1.274,2.324"/>
			<path id="Stroke-365" fill="none" stroke="#FFFFFF" stroke-width="0.997" stroke-linecap="round" stroke-linejoin="round" d="
				M45.007,29.844c-1.002-2.09-1.918-4.115-3.735-5.748c-2.025-1.818-2.914,1.906-1.529,3.797"/>
			<path id="Stroke-367" fill="none" stroke="#FFFFFF" stroke-width="0.997" stroke-linecap="round" stroke-linejoin="round" d="
				M46.926,33.127c-0.744-1.013-1.374-2.074-1.886-3.223"/>
			<path id="Stroke-369" fill="none" stroke="#FFFFFF" stroke-width="0.997" stroke-linecap="round" stroke-linejoin="round" d="
				M46.235,29.121c0.365,1.317,0.597,2.642,0.69,4.006"/>
			<path id="Stroke-371" fill="none" stroke="#FFFFFF" stroke-width="0.997" stroke-linecap="round" stroke-linejoin="round" d="
				M46.58,30.296c-0.105-0.392-0.479-1.959-0.598-2.344"/>
			<path id="Stroke-373" fill="none" stroke="#FFFFFF" stroke-width="0.997" stroke-linecap="round" stroke-linejoin="round" d="
				M47.323,33.156c-0.166-0.684-0.338-1.37-0.519-2.047"/>
			<path id="Stroke-375" fill="none" stroke="#FFFFFF" stroke-width="0.997" stroke-linecap="round" stroke-linejoin="round" d="
				M31.778,22.493c3.14,0.538,4.097,2.85,5.987,4.71"/>
			<path id="Stroke-377" fill="none" stroke="#FFFFFF" stroke-width="0.997" stroke-linecap="round" stroke-linejoin="round" d="
				M39.252,70.605c-0.298-0.677-0.65-1.305-1.055-1.912"/>
			<path id="Stroke-379" fill="none" stroke="#FFFFFF" stroke-width="0.997" stroke-linecap="round" stroke-linejoin="round" d="
				M27.231,88.454c1.606-1.965,4.209-1.175,5.842-3.026"/>
			<path id="Stroke-381" fill="none" stroke="#FFFFFF" stroke-width="0.997" stroke-linecap="round" stroke-linejoin="round" d="
				M27.186,88.281c0.02,0.053,0.033,0.113,0.046,0.17"/>
			<path id="Stroke-385" fill="none" stroke="#FFFFFF" stroke-width="0.997" stroke-linecap="round" stroke-linejoin="round" d="
				M26.568,94.215c-3.101-0.57-1.786-2.957-0.65-4.918"/>
			<path id="Stroke-387" fill="none" stroke="#FFFFFF" stroke-width="0.997" stroke-linecap="round" stroke-linejoin="round" d="
				M30.364,81.844c-2.355,3.916-3.956,7.605-3.796,12.371"/>
			<path id="Stroke-389" fill="none" stroke="#FFFFFF" stroke-width="0.997" stroke-linecap="round" stroke-linejoin="round" d="
				M29.21,70.287c2.993-1.158,5.794-2.037,9.14-1.573c4.965,0.69-1.6,4.719-3.246,6.784"/>
			<path id="Stroke-391" fill="none" stroke="#FFFFFF" stroke-width="0.997" stroke-linecap="round" stroke-linejoin="round" d="
				M25.831,21.621c2.157-2.457,7.396-4.006,6.253,0.006c-1.162,4.122-5.024,4.72-7.348,7.295c-2.19,2.429-4.447,4.805-6.737,7.148
				c-1.766,1.799-2.177,4.918-5.795,4.763c-8.449-0.372-5.356,7.696-1.341,12.634c3.771,4.646,8.244,8.396,12.784,12.187
				c4.521,3.787,9.24,7.281,13.262,11.676c1.388,1.513-3.505,0.822-2.071,2.289c2.396,2.443,5.854,2.297,8.299,4.587
				c2.156,2.034,8.269,1.972,5.601,6.74c-1.122,2.015-2.409-0.441-3.617-0.614c-1.64-0.232-3.306-0.119-4.938-0.59
				c-6.744-1.972-9.398-6.273-11.987-12.134"/>
			<path id="Stroke-393" fill="none" stroke="#FFFFFF" stroke-width="0.997" stroke-linecap="round" stroke-linejoin="round" d="
				M25.24,25.211c-0.352-1.324-0.404-2.355,0.531-3.511"/>
			<path id="Stroke-395" fill="none" stroke="#FFFFFF" stroke-width="0.997" stroke-linecap="round" stroke-linejoin="round" d="
				M25.287,25.397c-0.007-0.054-0.026-0.1-0.033-0.156"/>
			<path id="Stroke-399" fill="none" stroke="#FFFFFF" stroke-width="0.997" stroke-linecap="round" stroke-linejoin="round" d="
				M34.892,30.75c-1.832-2.146-2.921-3.771-5.131-5.597"/>
			<path id="Stroke-401" fill="none" stroke="#FFFFFF" stroke-width="0.997" stroke-linecap="round" stroke-linejoin="round" d="
				M10.498,6.686c0.996-2.131,2.264-4.019,3.751-5.814"/>
		</g>
	</g>
</g>
</svg>
