<?xml version="1.0" encoding="UTF-8"?>
<svg width="90px" height="93px" viewBox="0 0 90 93" version="1.1" xmlns="http://www.w3.org/2000/svg" xmlns:xlink="http://www.w3.org/1999/xlink">
    <!-- Generator: Sketch 50.2 (55047) - http://www.bohemiancoding.com/sketch -->
    <title>Group</title>
    <desc>Created with Sketch.</desc>
    <defs>
        <polygon id="path-1" points="0 0.432704716 6.96634593 0.432704716 6.96634593 6.80913478 0 6.80913478"></polygon>
        <polygon id="path-3" points="0.505971429 0.42412271 4.416 0.42412271 4.416 4.34609921 0.505971429 4.34609921"></polygon>
    </defs>
    <g id="Islas-black" stroke="none" stroke-width="1" fill="none" fill-rule="evenodd">
        <g id="Detalle-Factor-black" transform="translate(-19.000000, -117.000000)">
            <g id="Group" transform="translate(19.000000, 117.000000)">
                <path d="M2.52582857,2.75379392 C3.40354286,2.75379392 3.78668571,2.35730526 3.78668571,1.72481146 C3.78668571,1.02966902 3.28525714,0.73702263 2.52582857,0.73702263 L1.27182857,0.73702263 L1.27182857,2.75379392 L2.52582857,2.75379392 Z M3.19697143,3.16401378 L4.58382857,4.99970475 C4.64297143,5.08981581 4.58382857,5.13186763 4.49468571,5.13186763 L4.1484,5.13186763 C4.06011429,5.13186763 4.00097143,5.08981581 3.94954286,5.02115976 L2.59182857,3.22666242 L1.27182857,3.22666242 L1.27182857,5.02115976 C1.27182857,5.11127082 1.24182857,5.13186763 1.15354286,5.13186763 L0.807257143,5.13186763 C0.718114286,5.13186763 0.688971429,5.11813642 0.688971429,5.02115976 L0.688971429,0.3757202 C0.688971429,0.292474746 0.718114286,0.264154128 0.807257143,0.264154128 L2.56268571,0.264154128 C3.40354286,0.264154128 4.35497143,0.597994141 4.35497143,1.72481146 C4.35497143,2.55211679 3.88268571,2.98979907 3.19697143,3.16401378 Z" id="Fill-1" fill="#E73A66"></path>
                <path d="M8.42622857,3.18495387 C8.39708571,2.55932567 7.91708571,1.95429429 7.16451429,1.95429429 C6.40508571,1.95429429 5.84451429,2.55932567 5.82222857,3.18495387 L8.42622857,3.18495387 Z M8.6988,4.56837315 C8.75108571,4.63102179 8.75108571,4.67307362 8.6988,4.72199105 C8.35251429,5.04124165 7.75508571,5.20859076 7.20908571,5.20859076 C6.0948,5.20859076 5.23937143,4.38128543 5.23937143,3.36517599 C5.23937143,2.35078294 6.0948,1.51575381 7.17222857,1.51575381 C8.32251429,1.51575381 8.99451429,2.39197657 8.99451429,3.43554843 C8.99451429,3.51879388 8.97994286,3.5462563 8.88394286,3.5462563 L5.80765714,3.5462563 C5.85908571,4.19333951 6.48651429,4.74945347 7.23137143,4.74945347 C7.59222857,4.74945347 8.03537143,4.644753 8.38937143,4.40188225 C8.4708,4.35983042 8.49994286,4.34609921 8.55908571,4.40874785 L8.6988,4.56837315 Z" id="Fill-3" fill="#E73A66"></path>
                <path d="M10.5204857,2.32975703 C10.6756286,2.05170005 11.0587714,1.51618291 11.7813429,1.51618291 C12.5707714,1.51618291 13.2419143,1.9684546 13.2419143,3.0806825 L13.2419143,5.02107394 C13.2419143,5.10431939 13.2127714,5.13178181 13.1313429,5.13178181 L12.7996286,5.13178181 C12.7182,5.13178181 12.6890571,5.10431939 12.6890571,5.02107394 L12.6890571,3.21971099 C12.6890571,2.39240567 12.2467714,1.98905141 11.6484857,1.98905141 C11.0073429,1.98905141 10.5942,2.57262778 10.5942,3.26862842 L10.5942,5.02107394 C10.5942,5.10431939 10.5642,5.13178181 10.4836286,5.13178181 L10.1510571,5.13178181 C10.0704857,5.13178181 10.0404857,5.10431939 10.0404857,5.02107394 L10.0404857,3.29609084 L10.0404857,1.70412883 C10.0404857,1.62002517 10.0704857,1.59256276 10.1510571,1.59256276 L10.3362,1.59256276 C10.3953429,1.59256276 10.4244857,1.62002517 10.4613429,1.70412883 L10.5204857,2.32975703 Z" id="Fill-5" fill="#E73A66"></path>
                <path d="M17.4605143,3.36560509 C17.4605143,2.6009484 16.8408,1.98905141 16.0668,1.98905141 C15.2996571,1.98905141 14.6799429,2.6009484 14.6799429,3.36560509 C14.6799429,4.13111997 15.2996571,4.74215876 16.0668,4.74215876 C16.8408,4.74215876 17.4605143,4.13111997 17.4605143,3.36560509 M16.0668,1.51618291 C17.1433714,1.51618291 18.0065143,2.35035384 18.0065143,3.36560509 C18.0065143,4.38085633 17.1433714,5.20816166 16.0668,5.20816166 C14.9893714,5.20816166 14.1262286,4.38085633 14.1262286,3.36560509 C14.1262286,2.35035384 14.9893714,1.51618291 16.0668,1.51618291" id="Fill-7" fill="#E73A66"></path>
                <path d="M18.4189714,1.70369973 C18.3898286,1.64105109 18.4189714,1.59299186 18.4858286,1.59299186 L18.8544,1.59299186 C18.9358286,1.59299186 18.9649714,1.61358867 19.0086857,1.70369973 L20.2558286,4.24225695 L20.2558286,4.24912255 L21.4952571,1.70369973 C21.5389714,1.61358867 21.5766857,1.59299186 21.6426857,1.59299186 L22.0112571,1.59299186 C22.0926857,1.59299186 22.1072571,1.64877489 22.0849714,1.70369973 L20.3586857,5.15280773 C20.3149714,5.21545637 20.3072571,5.24978439 20.2626857,5.24978439 L20.2404,5.24978439 C20.2044,5.24978439 20.1966857,5.22232197 20.1521143,5.15280773 L18.4189714,1.70369973 Z" id="Fill-9" fill="#E73A66"></path>
                <path d="M23.0512286,4.05405357 C23.0512286,4.48487024 23.3829429,4.79811344 23.9803714,4.79811344 C24.4895143,4.79811344 24.9686571,4.47113903 25.2052286,4.14416462 L25.2052286,3.56745385 C24.8289429,3.42155976 24.5409429,3.3168593 24.1209429,3.3168593 C23.4198,3.3168593 23.0512286,3.58118506 23.0512286,4.05405357 M22.8815143,1.98922305 L22.8223714,1.78068032 C22.8000857,1.70344227 22.8223714,1.66911424 22.9106571,1.64079363 C22.9989429,1.62019681 23.6118,1.51549635 24.1792286,1.51549635 C25.4186571,1.51549635 25.7580857,2.03728228 25.7580857,3.18469641 L25.7580857,5.02038738 C25.7580857,5.10449103 25.7289429,5.13195345 25.6475143,5.13195345 L25.4332286,5.13195345 C25.3749429,5.13195345 25.3449429,5.10449103 25.3226571,5.02038738 L25.2935143,4.54751888 C25.0946571,4.80497904 24.6069429,5.2083333 23.8106571,5.2083333 C23.1026571,5.2083333 22.4975143,4.79811344 22.4975143,4.05405357 C22.4975143,3.29626248 23.1026571,2.92809445 24.0103714,2.92809445 C24.4012286,2.92809445 24.8289429,3.02507111 25.2052286,3.1709652 C25.2052286,2.29474244 24.9318,1.97463364 24.1578,1.97463364 C23.6855143,1.97463364 23.3015143,2.03728228 23.0212286,2.08619971 C22.9260857,2.10679652 22.9038,2.0724685 22.8815143,1.98922305" id="Fill-11" fill="#E73A66"></path>
                <path d="M29.6003143,4.34618503 C29.6594571,4.290402 29.7040286,4.3041332 29.7554571,4.36678184 L29.9320286,4.54099656 C29.9911714,4.6036452 29.9911714,4.63797322 29.9320286,4.68689065 C29.5557429,5.04132747 29.0766,5.20867658 28.5674571,5.20867658 C27.4908857,5.20867658 26.6354571,4.38137125 26.6354571,3.36526181 C26.6354571,2.35086876 27.4908857,1.51583963 28.5674571,1.51583963 C29.0766,1.51583963 29.5557429,1.68233053 29.9320286,2.03762556 C29.9911714,2.08654299 29.9911714,2.12087101 29.9320286,2.18351965 L29.7554571,2.35773436 C29.7040286,2.4195248 29.6594571,2.43411421 29.6003143,2.37833118 C29.3500286,2.14232603 28.9806,1.98870813 28.5751714,1.98870813 C27.8003143,1.98870813 27.1806,2.60060512 27.1806,3.36526181 C27.1806,4.1376423 27.8003143,4.73580808 28.5751714,4.73580808 C28.9806,4.73580808 29.3500286,4.58219018 29.6003143,4.34618503" id="Fill-13" fill="#E73A66"></path>
                <path d="M31.1488286,1.70369973 C31.1488286,1.62045427 31.1711143,1.59299186 31.2594,1.59299186 L31.5842571,1.59299186 C31.6802571,1.59299186 31.7025429,1.62045427 31.7025429,1.70369973 L31.7025429,5.02064484 C31.7025429,5.10389029 31.6725429,5.13221091 31.5842571,5.13221091 L31.2594,5.13221091 C31.1711143,5.13221091 31.1488286,5.10389029 31.1488286,5.02064484 L31.1488286,1.70369973 Z M31.4145429,0.0696858844 C31.6288286,0.0696858844 31.8054,0.229311186 31.8054,0.431846515 C31.8054,0.632665443 31.6288286,0.792290745 31.4145429,0.792290745 C31.2011143,0.792290745 31.0305429,0.632665443 31.0305429,0.431846515 C31.0305429,0.229311186 31.2011143,0.0696858844 31.4145429,0.0696858844 Z" id="Fill-15" fill="#E73A66"></path>
                <path d="M34.9327714,1.05000837 C34.8804857,1.0920602 34.8144857,1.11952261 34.7407714,1.11952261 L34.4459143,1.11952261 C34.3722,1.11952261 34.3430571,1.07832899 34.4236286,1.00109094 L35.3459143,0.0836745534 C35.3973429,0.0278915178 35.4487714,0.0484883309 35.4933429,0.111136971 L35.6330571,0.319679704 C35.6699143,0.375462739 35.6699143,0.410648962 35.6116286,0.459566393 L34.9327714,1.05000837 Z M36.2536286,3.36543345 C36.2536286,2.60077676 35.6330571,1.98887977 34.8590571,1.98887977 C34.0919143,1.98887977 33.4722,2.60077676 33.4722,3.36543345 C33.4722,4.13094833 34.0919143,4.74284532 34.8590571,4.74284532 C35.6330571,4.74284532 36.2536286,4.13094833 36.2536286,3.36543345 Z M34.8590571,1.51601127 C35.9356286,1.51601127 36.7987714,2.3510404 36.7987714,3.36543345 C36.7987714,4.38068469 35.9356286,5.20884822 34.8590571,5.20884822 C33.7816286,5.20884822 32.9184857,4.38068469 32.9184857,3.36543345 C32.9184857,2.3510404 33.7816286,1.51601127 34.8590571,1.51601127 Z" id="Fill-17" fill="#E73A66"></path>
                <path d="M38.3617714,2.32975703 C38.5169143,2.05170005 38.9000571,1.51618291 39.6234857,1.51618291 C40.4129143,1.51618291 41.0840571,1.9684546 41.0840571,3.0806825 L41.0840571,5.02107394 C41.0840571,5.10431939 41.0549143,5.13178181 40.9734857,5.13178181 L40.6417714,5.13178181 C40.5603429,5.13178181 40.5303429,5.10431939 40.5303429,5.02107394 L40.5303429,3.21971099 C40.5303429,2.39240567 40.0880571,1.98905141 39.4906286,1.98905141 C38.8486286,1.98905141 38.4354857,2.57262778 38.4354857,3.26862842 L38.4354857,5.02107394 C38.4354857,5.10431939 38.4063429,5.13178181 38.3249143,5.13178181 L37.9932,5.13178181 C37.9117714,5.13178181 37.8826286,5.10431939 37.8826286,5.02107394 L37.8826286,3.29609084 L37.8826286,1.70412883 C37.8826286,1.62002517 37.9117714,1.59256276 37.9932,1.59256276 L38.1774857,1.59256276 C38.2366286,1.59256276 38.2657714,1.62002517 38.3034857,1.70412883 L38.3617714,2.32975703 Z" id="Fill-19" fill="#E73A66"></path>
                <path d="M46.9105714,3.36560509 C46.9105714,2.67046264 46.416,1.98905141 45.6488571,1.98905141 C44.8748571,1.98905141 44.388,2.64214202 44.388,3.35873948 C44.388,4.13111997 44.8748571,4.74215876 45.6488571,4.74215876 C46.416,4.74215876 46.9105714,4.05388192 46.9105714,3.36560509 Z M46.9028571,0.111308611 C46.9028571,0.0280631579 46.932,0.000600740383 47.0134286,0.000600740383 L47.346,0.000600740383 C47.4265714,0.000600740383 47.4565714,0.0280631579 47.4565714,0.111308611 L47.4565714,5.02107394 C47.4565714,5.10431939 47.4265714,5.13178181 47.346,5.13178181 L47.1762857,5.13178181 C47.1094286,5.13178181 47.0802857,5.10431939 47.0502857,5.02107394 L46.992,4.37399073 C46.8068571,4.6383165 46.4091429,5.20816166 45.5382857,5.20816166 C44.5054286,5.20816166 43.8342857,4.36712512 43.8342857,3.35873948 C43.8342857,2.34348823 44.5054286,1.51618291 45.5382857,1.51618291 C46.4091429,1.51618291 46.8145714,2.1349455 46.9028571,2.32975703 L46.9028571,0.111308611 Z" id="Fill-21" fill="#E73A66"></path>
                <path d="M51.6897429,3.18495387 C51.6597429,2.55932567 51.1806,1.95429429 50.4280286,1.95429429 C49.6686,1.95429429 49.1080286,2.55932567 49.0857429,3.18495387 L51.6897429,3.18495387 Z M51.9623143,4.56837315 C52.0137429,4.63102179 52.0137429,4.67307362 51.9623143,4.72199105 C51.6160286,5.04124165 51.0186,5.20859076 50.4726,5.20859076 C49.3591714,5.20859076 48.5028857,4.38128543 48.5028857,3.36517599 C48.5028857,2.35078294 49.3591714,1.51575381 50.4357429,1.51575381 C51.5860286,1.51575381 52.2580286,2.39197657 52.2580286,3.43554843 C52.2580286,3.51879388 52.2434571,3.5462563 52.1474571,3.5462563 L49.0711714,3.5462563 C49.1226,4.19333951 49.7500286,4.74945347 50.4948857,4.74945347 C50.8557429,4.74945347 51.2988857,4.644753 51.6528857,4.40188225 C51.7343143,4.35983042 51.7634571,4.34609921 51.8226,4.40874785 L51.9623143,4.56837315 Z" id="Fill-23" fill="#E73A66"></path>
                <g id="Group-27" transform="translate(0.000000, 7.752984)">
                    <mask id="mask-2" fill="white">
                        <use xlink:href="#path-1"></use>
                    </mask>
                    <g id="Clip-26"></g>
                    <path d="M3.47631429,2.56704948 L2.52831429,4.44221767 L4.44317143,4.44221767 L3.49517143,2.56704948 L3.47631429,2.56704948 Z M6.94688571,6.59458465 C7.00431429,6.70185971 6.92802857,6.80913478 6.8046,6.80913478 L5.75202857,6.80913478 C5.60031429,6.80913478 5.55317143,6.76450835 5.45888571,6.59458465 L4.89917143,5.52269216 L2.07317143,5.52269216 L1.50402857,6.59458465 C1.41917143,6.76450835 1.36174286,6.80913478 1.21002857,6.80913478 L0.157457143,6.80913478 C0.0340285714,6.80913478 -0.0319714286,6.70185971 0.0151714286,6.59458465 L3.28688571,0.646396652 C3.36317143,0.512517367 3.39145714,0.432704716 3.46688571,0.432704716 L3.49517143,0.432704716 C3.57145714,0.432704716 3.59974286,0.512517367 3.68545714,0.646396652 L6.94688571,6.59458465 Z" id="Fill-25" fill="#E73A66" mask="url(#mask-2)"></path>
                </g>
                <path d="M11.7924,13.2671797 C11.9158286,13.1513226 11.9826857,13.1865089 12.1146857,13.3118061 L12.5226857,13.7400482 C12.6366857,13.8567635 12.6555429,13.9013899 12.5604,13.9906428 C12.0769714,14.4369071 11.4606857,14.6600392 10.8066857,14.6600392 C9.42154286,14.6600392 8.30297143,13.5975869 8.30297143,12.2939803 C8.30297143,10.9895155 9.42154286,9.91762298 10.8066857,9.91762298 C11.4606857,9.91762298 12.0769714,10.1407551 12.5604,10.5878776 C12.6555429,10.6771305 12.6366857,10.7217569 12.5226857,10.837614 L12.1146857,11.2667142 C11.9826857,11.3911533 11.9158286,11.4271977 11.7924,11.3113407 C11.4889714,11.0435821 11.1101143,10.9809335 10.8066857,10.9809335 C10.1141143,10.9809335 9.54497143,11.5344728 9.54497143,12.2939803 C9.54497143,13.0526296 10.1141143,13.5975869 10.8066857,13.5975869 C11.1101143,13.5975869 11.4889714,13.5349383 11.7924,13.2671797" id="Fill-28" fill="#E73A66"></path>
                <path d="M15.9082286,12.373793 L15.9082286,14.3476542 C15.9082286,14.5081377 15.8610857,14.5622043 15.6810857,14.5622043 L14.8745143,14.5622043 C14.7039429,14.5622043 14.6473714,14.5175779 14.6473714,14.3476542 L14.6473714,10.230008 C14.6473714,10.0609425 14.7039429,10.016316 14.8745143,10.016316 L15.2730857,10.016316 C15.4059429,10.016316 15.4530857,10.0695245 15.5388,10.230008 L15.7848,10.829032 C16.0788,10.3467233 16.4585143,9.91762298 17.5393714,9.91762298 C17.7476571,9.91762298 17.7665143,9.97168962 17.7382286,10.1141509 L17.6156571,10.8916806 C17.5865143,11.0607461 17.5393714,11.0967905 17.3688,11.0967905 C16.3539429,11.0967905 15.9082286,11.6949563 15.9082286,12.373793" id="Fill-30" fill="#E73A66"></path>
                <path d="M22.7260286,11.9095065 C22.6403143,11.4271977 22.3283143,10.8916806 21.6263143,10.8916806 C20.9054571,10.8916806 20.5548857,11.4271977 20.4880286,11.9095065 L22.7260286,11.9095065 Z M23.5891714,13.7494884 C23.6843143,13.8747857 23.7220286,13.9365761 23.6174571,14.025829 C23.1811714,14.4369071 22.4037429,14.6600392 21.7017429,14.6600392 C20.2703143,14.6600392 19.1517429,13.5975869 19.1517429,12.2939803 C19.1517429,10.9895155 20.2703143,9.91762298 21.6546,9.91762298 C23.2386,9.91762298 24.0160286,11.1148127 24.0160286,12.4458818 C24.0160286,12.6149473 23.9774571,12.6775959 23.8068857,12.6775959 L20.4503143,12.6775959 C20.5926,13.2225533 21.1146,13.6422134 21.7300286,13.6422134 C22.0051714,13.6422134 22.4226,13.5975869 22.9351714,13.3564326 C23.0963143,13.2852019 23.1434571,13.2405755 23.2668857,13.3744548 L23.5891714,13.7494884 Z" id="Fill-32" fill="#E73A66"></path>
                <path d="M29.3734286,12.2937228 C29.3734286,11.5608196 28.842,10.980676 28.1502857,10.980676 C27.4671429,10.980676 26.9365714,11.5522376 26.9365714,12.2937228 C26.9365714,13.0523721 27.4671429,13.6239337 28.1502857,13.6239337 C28.842,13.6239337 29.3734286,13.0257679 29.3734286,12.2937228 Z M29.364,8.18551682 C29.364,8.02417512 29.4111429,7.97096668 29.5911429,7.97096668 L30.3977143,7.97096668 C30.5777143,7.97096668 30.6248571,8.01559311 30.6248571,8.18551682 L30.6248571,14.3482549 C30.6248571,14.5173205 30.5777143,14.5619469 30.3977143,14.5619469 L30.018,14.5619469 C29.886,14.5619469 29.838,14.4992982 29.7522857,14.3482549 L29.5911429,13.9011325 C29.2122857,14.2941883 28.6808571,14.6597817 27.8657143,14.6597817 C26.5954286,14.6597817 25.6851429,13.5621432 25.6851429,12.2937228 C25.6851429,10.989258 26.5954286,9.91736552 27.8657143,9.91736552 C28.6808571,9.91736552 29.2217143,10.4091144 29.364,10.6322466 L29.364,8.18551682 Z" id="Fill-34" fill="#E73A66"></path>
                <path d="M33.195,10.2303513 C33.195,10.0612858 33.243,10.0158011 33.423,10.0158011 L34.2287143,10.0158011 C34.4087143,10.0158011 34.4567143,10.0698678 34.4567143,10.2303513 L34.4567143,14.3479975 C34.4567143,14.517063 34.4087143,14.5616894 34.2287143,14.5616894 L33.423,14.5616894 C33.243,14.5616894 33.195,14.517063 33.195,14.3479975 L33.195,10.2303513 Z M33.8112857,7.90806058 C34.2287143,7.90806058 34.5698571,8.22988579 34.5698571,8.62294164 C34.5698571,9.01599749 34.2287143,9.32838249 33.8112857,9.32838249 C33.3938571,9.32838249 33.0715714,9.01599749 33.0715714,8.62294164 C33.0715714,8.22988579 33.3938571,7.90806058 33.8112857,7.90806058 Z" id="Fill-36" fill="#E73A66"></path>
                <path d="M39.0933429,14.6600392 C37.8419143,14.6600392 37.2059143,13.9185539 37.2059143,12.6861779 L37.2059143,10.9543292 L36.9213429,10.9543292 C36.7413429,10.9543292 36.6847714,10.9088446 36.6847714,10.7397791 L36.6847714,10.230008 C36.6847714,10.0609425 36.7413429,10.016316 36.9213429,10.016316 L37.2059143,10.016316 L37.2059143,9.16755571 C37.2059143,9.0070722 37.2539143,8.95386377 37.4339143,8.95386377 L38.2302,8.95386377 C38.4102,8.95386377 38.4676286,8.997632 38.4676286,9.16755571 L38.4676286,10.016316 L39.7944857,10.016316 C39.9753429,10.016316 40.0224857,10.0609425 40.0224857,10.230008 L40.0224857,10.7397791 C40.0224857,10.9088446 39.9753429,10.9543292 39.7944857,10.9543292 L38.4676286,10.9543292 L38.4676286,12.6235293 C38.4676286,13.3118061 38.7419143,13.5975869 39.2356286,13.5975869 C39.4062,13.5975869 39.5767714,13.5795647 39.7473429,13.4988939 C39.9556286,13.401059 40.0036286,13.409641 40.0413429,13.6241911 L40.1459143,14.1597083 C40.1647714,14.3116098 40.1553429,14.3562362 40.0224857,14.4369071 C39.6333429,14.6600392 39.2167714,14.6600392 39.0933429,14.6600392" id="Fill-38" fill="#E73A66"></path>
                <path d="M43.1990571,13.1686583 C43.1990571,13.4192529 43.4073429,13.7668241 44.0047714,13.7668241 C44.3939143,13.7668241 44.7727714,13.5265279 45.0667714,13.2218667 L45.0667714,12.7489982 C44.6879143,12.6417232 44.4127714,12.5610523 44.0527714,12.5610523 C43.4167714,12.5610523 43.1990571,12.8562733 43.1990571,13.1686583 M42.4782,10.8558078 L42.3359143,10.3468949 C42.2887714,10.1855532 42.3170571,10.1237628 42.4687714,10.0877183 C42.5827714,10.0611141 43.4553429,9.91779462 44.1376286,9.91779462 C46.0627714,9.91779462 46.3284857,10.7124883 46.3284857,12.0967658 L46.3284857,14.3478258 C46.3284857,14.5083094 46.2804857,14.562376 46.1004857,14.562376 L45.6264857,14.562376 C45.5030571,14.562376 45.4559143,14.5083094 45.3796286,14.3478258 L45.2947714,14.0260006 C45.0196286,14.2765952 44.5644857,14.6602108 43.5976286,14.6602108 C42.7722,14.6602108 41.9382,14.1779021 41.9382,13.1686583 C41.9382,12.1954589 42.7722,11.7217322 43.7304857,11.7217322 C44.0904857,11.7217322 44.6784857,11.802403 45.0667714,11.9277003 C45.0667714,11.2308415 44.8962,10.9356205 44.0810571,10.9356205 C43.5693429,10.9356205 43.0567714,10.9982691 42.7250571,11.0609178 C42.5544857,11.087522 42.5167714,11.0248733 42.4782,10.8558078" id="Fill-40" fill="#E73A66"></path>
                <path d="M51.7424571,13.2671797 C51.8658857,13.1513226 51.9327429,13.1865089 52.0647429,13.3118061 L52.4727429,13.7400482 C52.5867429,13.8567635 52.6056,13.9013899 52.5104571,13.9906428 C52.0270286,14.4369071 51.4107429,14.6600392 50.7567429,14.6600392 C49.3716,14.6600392 48.2530286,13.5975869 48.2530286,12.2939803 C48.2530286,10.9895155 49.3716,9.91762298 50.7567429,9.91762298 C51.4107429,9.91762298 52.0270286,10.1407551 52.5104571,10.5878776 C52.6056,10.6771305 52.5867429,10.7217569 52.4727429,10.837614 L52.0647429,11.2667142 C51.9327429,11.3911533 51.8658857,11.4271977 51.7424571,11.3113407 C51.4390286,11.0435821 51.0601714,10.9809335 50.7567429,10.9809335 C50.0641714,10.9809335 49.4950286,11.5344728 49.4950286,12.2939803 C49.4950286,13.0526296 50.0641714,13.5975869 50.7567429,13.5975869 C51.0601714,13.5975869 51.4390286,13.5349383 51.7424571,13.2671797" id="Fill-42" fill="#E73A66"></path>
                <path d="M54.7299429,10.2303513 C54.7299429,10.0612858 54.7779429,10.0158011 54.9579429,10.0158011 L55.7636571,10.0158011 C55.9436571,10.0158011 55.9916571,10.0698678 55.9916571,10.2303513 L55.9916571,14.3479975 C55.9916571,14.517063 55.9436571,14.5616894 55.7636571,14.5616894 L54.9579429,14.5616894 C54.7779429,14.5616894 54.7299429,14.517063 54.7299429,14.3479975 L54.7299429,10.2303513 Z M55.3462286,7.90806058 C55.7636571,7.90806058 56.1048,8.22988579 56.1048,8.62294164 C56.1048,9.01599749 55.7636571,9.32838249 55.3462286,9.32838249 C54.9288,9.32838249 54.6065143,9.01599749 54.6065143,8.62294164 C54.6065143,8.22988579 54.9288,7.90806058 55.3462286,7.90806058 Z" id="Fill-44" fill="#E73A66"></path>
                <path d="M61.1496857,9.30177827 C61.0451143,9.39103113 60.9216857,9.43565756 60.7896857,9.43565756 L60.0971143,9.43565756 C59.9454,9.43565756 59.9076857,9.36442691 60.0782571,9.1859212 L61.2636857,7.96212722 C61.3768286,7.83682994 61.4814,7.88145637 61.5859714,8.03335786 L61.8894,8.50708456 C61.9648286,8.63238184 61.9648286,8.68559028 61.8225429,8.80144735 L61.1496857,9.30177827 Z M61.9836857,12.2934654 C61.9836857,11.5348161 61.4154,10.9812767 60.7322571,10.9812767 C60.0405429,10.9812767 59.4714,11.5348161 59.4714,12.2934654 C59.4714,13.0529729 60.0405429,13.6245344 60.7322571,13.6245344 C61.4154,13.6245344 61.9836857,13.0529729 61.9836857,12.2934654 Z M60.7322571,9.91796626 C62.1165429,9.91796626 63.2454,10.9898587 63.2454,12.2934654 C63.2454,13.597072 62.1165429,14.6603825 60.7322571,14.6603825 C59.3479714,14.6603825 58.2199714,13.597072 58.2199714,12.2934654 C58.2199714,10.9898587 59.3479714,9.91796626 60.7322571,9.91796626 Z" id="Fill-46" fill="#E73A66"></path>
                <path d="M66.4030286,10.6770446 C66.7347429,10.302011 67.1144571,9.91753716 67.8533143,9.91753716 C68.9161714,9.91753716 69.6738857,10.4092861 69.6738857,11.9986735 L69.6738857,14.3475684 C69.6738857,14.5080519 69.6267429,14.5621185 69.4467429,14.5621185 L68.6410286,14.5621185 C68.4704571,14.5621185 68.4130286,14.5174921 68.4130286,14.3475684 L68.4130286,12.2492681 C68.4130286,11.3739035 68.1481714,10.9808476 67.5310286,10.9808476 C66.8864571,10.9808476 66.6113143,11.4271119 66.6113143,12.2578501 L66.6113143,14.3475684 C66.6113143,14.5080519 66.5641714,14.5621185 66.3841714,14.5621185 L65.5784571,14.5621185 C65.4070286,14.5621185 65.3504571,14.5174921 65.3504571,14.3475684 L65.3504571,12.2758723 L65.3504571,10.2299222 C65.3504571,10.0608567 65.4070286,10.0162302 65.5784571,10.0162302 L65.9761714,10.0162302 C66.1090286,10.0162302 66.1561714,10.0788789 66.2418857,10.2299222 L66.4030286,10.6770446 Z" id="Fill-48" fill="#E73A66"></path>
                <path d="M4.98042857,90.1373184 C5.03957143,90.0781026 5.08414286,90.0935502 5.13557143,90.1596316 L5.31214286,90.3441447 C5.37128571,90.4110844 5.37128571,90.447987 5.31214286,90.499479 C4.93671429,90.8762291 4.45671429,91.0530184 3.94757143,91.0530184 C2.871,91.0530184 2.01557143,90.174221 2.01557143,89.0963211 C2.01557143,88.017563 2.871,87.1319001 3.94757143,87.1319001 C4.45671429,87.1319001 4.93671429,87.3086894 5.31214286,87.6854394 C5.37128571,87.7369315 5.37128571,87.7738341 5.31214286,87.8407737 L5.13557143,88.0252869 C5.08414286,88.0913683 5.03957143,88.1059577 4.98042857,88.0476001 C4.73014286,87.7961473 4.36071429,87.6339474 3.95528571,87.6339474 C3.18042857,87.6339474 2.56071429,88.2836052 2.56071429,89.0963211 C2.56071429,89.9159027 3.18042857,90.5509711 3.95528571,90.5509711 C4.36071429,90.5509711 4.73014286,90.3887712 4.98042857,90.1373184" id="Fill-50" fill="#E73A66"></path>
                <path d="M9.33942857,89.0959779 C9.33942857,88.2841201 8.71971429,87.6336041 7.94485714,87.6336041 C7.17771429,87.6336041 6.558,88.2841201 6.558,89.0959779 C6.558,89.9086938 7.17771429,90.5583516 7.94485714,90.5583516 C8.71971429,90.5583516 9.33942857,89.9086938 9.33942857,89.0959779 M7.94485714,87.1315568 C9.02228571,87.1315568 9.88542857,88.018078 9.88542857,89.0959779 C9.88542857,90.1747359 9.02228571,91.0535333 7.94485714,91.0535333 C6.86828571,91.0535333 6.00514286,90.1747359 6.00514286,89.0959779 C6.00514286,88.018078 6.86828571,87.1315568 7.94485714,87.1315568" id="Fill-52" fill="#E73A66"></path>
                <path d="M11.448,87.9955931 C11.6031429,87.7003721 11.9862857,87.1313852 12.7097143,87.1313852 C13.4991429,87.1313852 14.1702857,87.6119775 14.1702857,88.7937196 L14.1702857,90.8542591 C14.1702857,90.9426538 14.1411429,90.9718326 14.0597143,90.9718326 L13.728,90.9718326 C13.6465714,90.9718326 13.6165714,90.9426538 13.6165714,90.8542591 L13.6165714,88.9413301 C13.6165714,88.0625328 13.1742857,87.6334325 12.5768571,87.6334325 C11.9348571,87.6334325 11.5217143,88.2539115 11.5217143,88.9928221 L11.5217143,90.8542591 C11.5217143,90.9426538 11.4925714,90.9718326 11.4111429,90.9718326 L11.0794286,90.9718326 C10.998,90.9718326 10.9688571,90.9426538 10.9688571,90.8542591 L10.9688571,89.022001 L10.9688571,87.3313459 C10.9688571,87.242093 10.998,87.2129142 11.0794286,87.2129142 L11.2637143,87.2129142 C11.3228571,87.2129142 11.352,87.242093 11.3897143,87.3313459 L11.448,87.9955931 Z" id="Fill-54" fill="#E73A66"></path>
                <path d="M16.8545143,91.0533617 C15.8808,91.0533617 15.5190857,90.4406065 15.5190857,89.4133404 L15.5190857,87.6711933 L15.1582286,87.6711933 C15.0690857,87.6711933 15.0399429,87.6411563 15.0399429,87.5527616 L15.0399429,87.3313459 C15.0399429,87.2352274 15.0690857,87.2129142 15.1582286,87.2129142 L15.5190857,87.2129142 L15.5190857,86.4516903 C15.5190857,86.3632957 15.5413714,86.3332587 15.6305143,86.3332587 L15.9545143,86.3332587 C16.0436571,86.3332587 16.0659429,86.3632957 16.0659429,86.4516903 L16.0659429,87.2129142 L17.4005143,87.2129142 C17.4819429,87.2129142 17.5110857,87.2352274 17.5110857,87.3313459 L17.5110857,87.5527616 C17.5110857,87.6411563 17.4888,87.6711933 17.4005143,87.6711933 L16.0659429,87.6711933 L16.0659429,89.3695722 C16.0659429,90.2329219 16.3239429,90.5513143 16.9136571,90.5513143 C17.1202286,90.5513143 17.2385143,90.5358667 17.4228,90.4406065 C17.5188,90.3891144 17.5410857,90.39598 17.5702286,90.4989641 L17.6148,90.7358275 C17.6370857,90.8096327 17.6293714,90.8388115 17.5625143,90.8757141 C17.2676571,91.0533617 16.9505143,91.0533617 16.8545143,91.0533617" id="Fill-56" fill="#E73A66"></path>
                <path d="M18.7864286,87.3310026 C18.7864286,87.2417498 18.8087143,87.2125709 18.897,87.2125709 L19.2218571,87.2125709 C19.3178571,87.2125709 19.3401429,87.2417498 19.3401429,87.3310026 L19.3401429,90.8539159 C19.3401429,90.9423105 19.3101429,90.9723475 19.2218571,90.9723475 L18.897,90.9723475 C18.8087143,90.9723475 18.7864286,90.9423105 18.7864286,90.8539159 L18.7864286,87.3310026 Z M19.0521429,85.5957211 C19.2664286,85.5957211 19.443,85.7647866 19.443,85.9793367 C19.443,86.1938869 19.2664286,86.3638106 19.0521429,86.3638106 C18.8387143,86.3638106 18.6681429,86.1938869 18.6681429,85.9793367 C18.6681429,85.7647866 18.8387143,85.5957211 19.0521429,85.5957211 Z" id="Fill-58" fill="#E73A66"></path>
                <path d="M21.4122857,87.9955931 C21.5674286,87.7003721 21.9505714,87.1313852 22.674,87.1313852 C23.4634286,87.1313852 24.1345714,87.6119775 24.1345714,88.7937196 L24.1345714,90.8542591 C24.1345714,90.9426538 24.1054286,90.9718326 24.024,90.9718326 L23.6922857,90.9718326 C23.6108571,90.9718326 23.5808571,90.9426538 23.5808571,90.8542591 L23.5808571,88.9413301 C23.5808571,88.0625328 23.1385714,87.6334325 22.5411429,87.6334325 C21.8991429,87.6334325 21.486,88.2539115 21.486,88.9928221 L21.486,90.8542591 C21.486,90.9426538 21.4568571,90.9718326 21.3754286,90.9718326 L21.0437143,90.9718326 C20.9622857,90.9718326 20.9331429,90.9426538 20.9331429,90.8542591 L20.9331429,89.022001 L20.9331429,87.3313459 C20.9331429,87.242093 20.9622857,87.2129142 21.0437143,87.2129142 L21.228,87.2129142 C21.2871429,87.2129142 21.3162857,87.242093 21.354,87.3313459 L21.4122857,87.9955931 Z" id="Fill-60" fill="#E73A66"></path>
                <path d="M27.9178286,90.1892395 C27.7626857,90.4844605 27.3795429,91.0534475 26.6561143,91.0534475 C25.8666857,91.0534475 25.1955429,90.5728552 25.1955429,89.391113 L25.1955429,87.3305735 C25.1955429,87.2421789 25.2246857,87.213 25.3061143,87.213 L25.6386857,87.213 C25.7192571,87.213 25.7492571,87.2421789 25.7492571,87.3305735 L25.7492571,89.2435025 C25.7492571,90.1222999 26.1915429,90.550542 26.7889714,90.550542 C27.4309714,90.550542 27.8441143,89.9309212 27.8441143,89.1920105 L27.8441143,87.3305735 C27.8441143,87.2421789 27.8732571,87.213 27.9546857,87.213 L28.2864,87.213 C28.3678286,87.213 28.3969714,87.2421789 28.3969714,87.3305735 L28.3969714,89.1628317 L28.3969714,90.8534868 C28.3969714,90.9418814 28.3678286,90.9719184 28.2864,90.9719184 L28.1021143,90.9719184 C28.0429714,90.9719184 28.0138286,90.9418814 27.9769714,90.8534868 L27.9178286,90.1892395 Z" id="Fill-62" fill="#E73A66"></path>
                <path d="M30.0786857,89.8272505 C30.0786857,90.2855296 30.4104,90.6176532 31.0078286,90.6176532 C31.5169714,90.6176532 31.9961143,90.2709402 32.2326857,89.923369 L32.2326857,89.3097556 C31.8564,89.1552795 31.5684,89.0445716 31.1484,89.0445716 C30.4472571,89.0445716 30.0786857,89.3252032 30.0786857,89.8272505 M29.9089714,87.6336899 L29.8498286,87.4122742 C29.8275429,87.3307451 29.8498286,87.2938425 29.9381143,87.2646637 C30.0264,87.2423505 30.6392571,87.1316426 31.2066857,87.1316426 C32.4461143,87.1316426 32.7855429,87.685182 32.7855429,88.9038268 L32.7855429,90.8536584 C32.7855429,90.9420531 32.7564,90.9720901 32.6749714,90.9720901 L32.4615429,90.9720901 C32.4015429,90.9720901 32.3724,90.9420531 32.3501143,90.8536584 L32.3209714,90.3516111 C32.1221143,90.625377 31.6352571,91.0536191 30.8381143,91.0536191 C30.1301143,91.0536191 29.5249714,90.6176532 29.5249714,89.8272505 C29.5249714,89.0222584 30.1301143,88.630919 31.0378286,88.630919 C31.4286857,88.630919 31.8564,88.7347612 32.2326857,88.8892373 C32.2326857,87.9589479 31.9592571,87.6191005 31.1852571,87.6191005 C30.7129714,87.6191005 30.3289714,87.685182 30.0486857,87.736674 C29.9535429,87.7589872 29.9312571,87.7220846 29.9089714,87.6336899" id="Fill-64" fill="#E73A66"></path>
                <path d="M38.1621429,87.131471 C38.8847143,87.131471 39.549,87.6120633 39.549,88.7938054 L39.549,90.8534868 C39.549,90.9418814 39.5267143,90.9719184 39.4384286,90.9719184 L39.1067143,90.9719184 C39.033,90.9719184 38.9961429,90.9418814 38.9961429,90.8534868 L38.9961429,88.9405577 C38.9961429,88.0617604 38.553,87.6335183 38.0292857,87.6335183 C37.4832857,87.6335183 37.0632857,88.1432894 37.0632857,88.9551471 L37.0632857,90.8534868 C37.0632857,90.9418814 37.041,90.9719184 36.9527143,90.9719184 L36.621,90.9719184 C36.5464286,90.9719184 36.5095714,90.9418814 36.5095714,90.8534868 L36.5095714,88.9405577 C36.5095714,88.1656026 36.1487143,87.6335183 35.5435714,87.6335183 C34.9461429,87.6335183 34.5775714,88.2093709 34.5775714,88.992908 L34.5775714,90.8534868 C34.5775714,90.9418814 34.5475714,90.9719184 34.4661429,90.9719184 L34.1344286,90.9719184 C34.0538571,90.9719184 34.0238571,90.9418814 34.0238571,90.8534868 L34.0238571,87.3305735 C34.0238571,87.2421789 34.0538571,87.213 34.1344286,87.213 L34.3195714,87.213 C34.3778571,87.213 34.4078571,87.2421789 34.4447143,87.3305735 L34.503,88.0179921 C34.6358571,87.7073235 34.9752857,87.131471 35.6764286,87.131471 C36.399,87.131471 36.7898571,87.6858685 36.9227143,88.0403054 C37.071,87.7073235 37.4618571,87.131471 38.1621429,87.131471" id="Fill-66" fill="#E73A66"></path>
                <path d="M43.7674286,89.0959779 C43.7674286,88.2841201 43.1477143,87.6336041 42.3728571,87.6336041 C41.6057143,87.6336041 40.986,88.2841201 40.986,89.0959779 C40.986,89.9086938 41.6057143,90.5583516 42.3728571,90.5583516 C43.1477143,90.5583516 43.7674286,89.9086938 43.7674286,89.0959779 M42.3728571,87.1315568 C43.4502857,87.1315568 44.3134286,88.018078 44.3134286,89.0959779 C44.3134286,90.1747359 43.4502857,91.0535333 42.3728571,91.0535333 C41.2962857,91.0535333 40.4331429,90.1747359 40.4331429,89.0959779 C40.4331429,88.018078 41.2962857,87.1315568 42.3728571,87.1315568" id="Fill-68" fill="#E73A66"></path>
                <path d="M47.5580571,89.9160743 C47.5580571,89.5908163 47.1894857,89.4208926 46.5183429,89.3256323 C45.7880571,89.2295139 45.0869143,89.0587319 45.0869143,88.2837769 C45.0869143,87.5817688 45.6329143,87.1312135 46.5037714,87.1312135 C46.8869143,87.1312135 47.3960571,87.227332 47.9120571,87.5448662 C48.0003429,87.5963582 47.9857714,87.6409846 47.9489143,87.7079243 L47.8529143,87.8847136 C47.8160571,87.9585188 47.7792,87.9954215 47.6909143,87.9362056 C47.2923429,87.6933349 47.0120571,87.5817688 46.5329143,87.5817688 C45.9132,87.5817688 45.6106286,87.847811 45.6106286,88.2537398 C45.6106286,88.6605269 45.9792,88.7343321 46.6503429,88.8304506 C47.3806286,88.9334347 48.0894857,89.1694398 48.0894857,89.8860373 C48.0894857,90.5657321 47.5280571,91.05319 46.5766286,91.05319 C46.1857714,91.05319 45.6029143,90.9424822 45.0577714,90.5803215 C44.9909143,90.5365533 44.9909143,90.4996507 45.0354857,90.4181216 L45.1383429,90.2336085 C45.1752,90.1598033 45.2120571,90.1229006 45.3012,90.1889821 C45.6252,90.4181216 46.0606286,90.6026347 46.5474857,90.6026347 C47.2632,90.6026347 47.5580571,90.2928243 47.5580571,89.9160743" id="Fill-70" fill="#E73A66"></path>
                <path d="M55.1107714,87.131471 C55.9670571,87.131471 56.5422,87.5373998 56.5422,88.8521631 L56.5422,90.7951291 C56.5422,90.927292 56.5044857,90.9719184 56.3647714,90.9719184 L55.7382,90.9719184 C55.5976286,90.9719184 55.5607714,90.9350158 55.5607714,90.7951291 L55.5607714,89.0589894 C55.5607714,88.3355263 55.3464857,88.0102683 54.8750571,88.0102683 C54.4104857,88.0102683 54.1884857,88.3501158 54.1884857,88.9997736 L54.1884857,90.7951291 C54.1884857,90.927292 54.1516286,90.9719184 54.0119143,90.9719184 L53.3844857,90.9719184 C53.2447714,90.9719184 53.2079143,90.9350158 53.2079143,90.7951291 L53.2079143,89.0589894 C53.2079143,88.3578396 53.0159143,88.0102683 52.5213429,88.0102683 C52.0276286,88.0102683 51.8279143,88.372429 51.8279143,89.0667132 L51.8279143,90.7951291 C51.8279143,90.927292 51.7910571,90.9719184 51.6513429,90.9719184 L51.0239143,90.9719184 C50.8842,90.9719184 50.8473429,90.9350158 50.8473429,90.7951291 L50.8473429,87.3897893 C50.8473429,87.2499027 50.8842,87.213 51.0239143,87.213 L51.3342,87.213 C51.4370571,87.213 51.4739143,87.2644921 51.5407714,87.3897893 L51.6659143,87.7588156 C51.9170571,87.4490052 52.1896286,87.131471 52.7579143,87.131471 C53.3622,87.131471 53.7462,87.3975131 53.9750571,87.7665394 C54.1962,87.456729 54.5424857,87.131471 55.1107714,87.131471" id="Fill-72" fill="#E73A66"></path>
                <path d="M60.0594,88.7783578 C59.9934,88.3801528 59.7499714,87.9364631 59.2039714,87.9364631 C58.6434,87.9364631 58.3699714,88.3801528 58.3185429,88.7783578 L60.0594,88.7783578 Z M60.7305429,90.2999474 C60.8042571,90.4037897 60.8342571,90.4552817 60.7528286,90.5290869 C60.4134,90.8689344 59.8091143,91.0534475 59.2631143,91.0534475 C58.1488286,91.0534475 57.2788286,90.1746501 57.2788286,89.095892 C57.2788286,88.0179921 58.1488286,87.131471 59.2262571,87.131471 C60.4579714,87.131471 61.0622571,88.1209762 61.0622571,89.2220475 C61.0622571,89.3619342 61.0331143,89.4134262 60.9002571,89.4134262 L58.2894,89.4134262 C58.3999714,89.8639815 58.8054,90.2115527 59.2854,90.2115527 C59.4988286,90.2115527 59.8236857,90.1746501 60.2214,89.9755476 C60.3474,89.9163318 60.3842571,89.8785709 60.4802571,89.990137 L60.7305429,90.2999474 Z" id="Fill-74" fill="#E73A66"></path>
                <path d="M62.9502,85.4695656 C63.2742,85.4695656 63.5399143,85.7356078 63.5399143,86.0600076 C63.5399143,86.3852656 63.2742,86.6444422 62.9502,86.6444422 C62.6253429,86.6444422 62.3750571,86.3852656 62.3750571,86.0600076 C62.3750571,85.7356078 62.6253429,85.4695656 62.9502,85.4695656 Z M61.5487714,87.3902184 C61.5487714,87.2494736 61.6079143,87.2125709 61.7330571,87.2125709 L63.2742,87.2125709 C63.4147714,87.2125709 63.4516286,87.2571974 63.4516286,87.3902184 L63.4516286,91.0676078 C63.4516286,92.1025977 62.9570571,92.7144946 61.9842,92.7144946 C61.8882,92.7144946 61.5487714,92.7144946 61.2539143,92.5231159 C61.1433429,92.4570345 61.1356286,92.4269975 61.1579143,92.3017002 L61.2384857,91.8511449 C61.2684857,91.6734974 61.2976286,91.6666318 61.4604857,91.7473026 C61.6002,91.8211079 61.7544857,91.8356973 61.8727714,91.8356973 C62.2567714,91.8356973 62.4702,91.5996921 62.4702,91.0307052 L62.4702,88.0476001 L62.4702,88.0029736 L61.7330571,88.0029736 C61.6079143,88.0029736 61.5487714,87.9514816 61.5487714,87.8261843 L61.5487714,87.3902184 Z" id="Fill-76" fill="#E73A66"></path>
                <path d="M67.3610571,89.0959779 C67.3610571,88.4686333 66.9179143,88.0103542 66.3873429,88.0103542 C65.8490571,88.0103542 65.4059143,88.4686333 65.4059143,89.0959779 C65.4059143,89.7233225 65.8490571,90.196191 66.3873429,90.196191 C66.9179143,90.196191 67.3610571,89.7233225 67.3610571,89.0959779 M66.3873429,87.1315568 C67.4647714,87.1315568 68.3424857,88.018078 68.3424857,89.0959779 C68.3424857,90.1747359 67.4647714,91.0535333 66.3873429,91.0535333 C65.3099143,91.0535333 64.4322,90.1747359 64.4322,89.0959779 C64.4322,88.018078 65.3099143,87.1315568 66.3873429,87.1315568" id="Fill-78" fill="#E73A66"></path>
                <path d="M70.2225429,89.1625742 L70.2225429,90.7948717 C70.2225429,90.9278927 70.1856857,90.971661 70.0451143,90.971661 L69.4185429,90.971661 C69.2856857,90.971661 69.2411143,90.9347583 69.2411143,90.7948717 L69.2411143,87.3903901 C69.2411143,87.2496452 69.2856857,87.2127426 69.4185429,87.2127426 L69.7279714,87.2127426 C69.8316857,87.2127426 69.8685429,87.257369 69.9345429,87.3903901 L70.1265429,87.8847136 C70.3554,87.4856503 70.6502571,87.1312135 71.4911143,87.1312135 C71.6531143,87.1312135 71.6685429,87.1758399 71.6462571,87.2942716 L71.5502571,87.9362056 C71.5279714,88.0769505 71.4911143,88.1061293 71.3582571,88.1061293 C70.5688286,88.1061293 70.2225429,88.6013111 70.2225429,89.1625742" id="Fill-80" fill="#E73A66"></path>
                <path d="M73.0396286,89.8201275 C73.0396286,90.0269538 73.2016286,90.314451 73.6662,90.314451 C73.9687714,90.314451 74.2644857,90.1153485 74.4924857,89.8638957 L74.4924857,89.4725563 C74.1976286,89.3841616 73.9842,89.3180802 73.7039143,89.3180802 C73.2093429,89.3180802 73.0396286,89.5618091 73.0396286,89.8201275 M72.4790571,87.9071985 L72.3684857,87.485822 C72.3316286,87.3528009 72.3539143,87.3013089 72.4713429,87.27213 C72.5604857,87.2498168 73.2384857,87.1313852 73.7699143,87.1313852 C75.2673429,87.1313852 75.4739143,87.7887668 75.4739143,88.9336063 L75.4739143,90.7950433 C75.4739143,90.9280644 75.4370571,90.9718326 75.2964857,90.9718326 L74.9279143,90.9718326 C74.8319143,90.9718326 74.7950571,90.9280644 74.7359143,90.7950433 L74.6699143,90.5290011 C74.4556286,90.7358275 74.1016286,91.0533617 73.3499143,91.0533617 C72.7079143,91.0533617 72.0582,90.6542984 72.0582,89.8201275 C72.0582,89.0151354 72.7079143,88.6229377 73.4527714,88.6229377 C73.7330571,88.6229377 74.1907714,88.6898774 74.4924857,88.7937196 C74.4924857,88.2170089 74.3604857,87.9732799 73.7253429,87.9732799 C73.3276286,87.9732799 72.9290571,88.0256301 72.6710571,88.0771222 C72.5382,88.0994354 72.5082,88.0479433 72.4790571,87.9071985" id="Fill-82" fill="#E73A66"></path>
                <path d="M77.3466857,87.7592447 C77.6046857,87.4494343 77.9004,87.1319001 78.4755429,87.1319001 C79.3018286,87.1319001 79.8915429,87.5378289 79.8915429,88.8525922 L79.8915429,90.7947 C79.8915429,90.9277211 79.8546857,90.9723475 79.7149714,90.9723475 L79.0875429,90.9723475 C78.9546857,90.9723475 78.9101143,90.9354449 78.9101143,90.7947 L78.9101143,89.0594185 C78.9101143,88.3350972 78.7035429,88.0098392 78.2244,88.0098392 C77.7229714,88.0098392 77.5086857,88.3797237 77.5086857,89.0662841 L77.5086857,90.7947 C77.5086857,90.9277211 77.4718286,90.9723475 77.3321143,90.9723475 L76.7046857,90.9723475 C76.5718286,90.9723475 76.5281143,90.9354449 76.5281143,90.7947 L76.5281143,89.0817317 L76.5281143,87.3902184 C76.5281143,87.2494736 76.5718286,87.2125709 76.7046857,87.2125709 L77.0149714,87.2125709 C77.1178286,87.2125709 77.1546857,87.264063 77.2215429,87.3902184 L77.3466857,87.7592447 Z" id="Fill-84" fill="#E73A66"></path>
                <path d="M83.5278857,89.0959779 C83.5278857,88.4900883 83.1147429,88.0103542 82.5764571,88.0103542 C82.0450286,88.0103542 81.6318857,88.4832227 81.6318857,89.0959779 C81.6318857,89.7233225 82.0450286,90.196191 82.5764571,90.196191 C83.1147429,90.196191 83.5278857,89.7018674 83.5278857,89.0959779 Z M83.5201714,85.6992201 C83.5201714,85.566199 83.5570286,85.5215726 83.6976,85.5215726 L84.3241714,85.5215726 C84.4647429,85.5215726 84.5016,85.5584752 84.5016,85.6992201 L84.5016,90.7943567 C84.5016,90.9351016 84.4647429,90.9720042 84.3241714,90.9720042 L84.0293143,90.9720042 C83.9256,90.9720042 83.8887429,90.9205122 83.8227429,90.7943567 L83.6976,90.4253305 C83.4027429,90.7505885 82.9896,91.0535333 82.3544571,91.0535333 C81.3670286,91.0535333 80.6581714,90.1446989 80.6581714,89.0959779 C80.6581714,88.018078 81.3670286,87.1315568 82.3544571,87.1315568 C82.9896,87.1315568 83.4096,87.5374857 83.5201714,87.7219988 L83.5201714,85.6992201 Z" id="Fill-86" fill="#E73A66"></path>
                <g id="Group-90" transform="translate(84.857143, 86.707434)">
                    <mask id="mask-4" fill="white">
                        <use xlink:href="#path-3"></use>
                    </mask>
                    <g id="Clip-89"></g>
                    <path d="M3.43482857,2.38854376 C3.43482857,1.76119916 2.99168571,1.30292007 2.46111429,1.30292007 C1.92282857,1.30292007 1.47968571,1.76119916 1.47968571,2.38854376 C1.47968571,3.01588836 1.92282857,3.48875686 2.46111429,3.48875686 C2.99168571,3.48875686 3.43482857,3.01588836 3.43482857,2.38854376 M2.46111429,0.42412271 C3.53768571,0.42412271 4.41625714,1.31064388 4.41625714,2.38854376 C4.41625714,3.46730185 3.53768571,4.34609921 2.46111429,4.34609921 C1.38368571,4.34609921 0.505971429,3.46730185 0.505971429,2.38854376 C0.505971429,1.31064388 1.38368571,0.42412271 2.46111429,0.42412271" id="Fill-88" fill="#E73A66" mask="url(#mask-4)"></path>
                </g>
                <path d="M3.70894286,21.3219926 L3.70894286,33.220085 L7.52237143,33.220085 C10.9569429,33.220085 13.1906571,30.4352242 13.1906571,27.2710388 C13.1906571,24.0853984 10.9569429,21.3219926 7.52237143,21.3219926 L3.70894286,21.3219926 Z M7.5438,19.8870813 C11.6940857,19.8870813 14.8758,23.0727217 14.8758,27.2710388 C14.8758,31.4693559 11.6940857,34.6549963 7.5438,34.6549963 L2.38208571,34.6549963 C2.1498,34.6549963 2.04437143,34.5708926 2.04437143,34.3168653 L2.04437143,20.2252123 C2.04437143,19.9720431 2.12837143,19.8870813 2.38208571,19.8870813 L7.5438,19.8870813 Z" id="Fill-91" fill="#E73A66"></path>
                <path d="M18.9655714,24.2544639 C18.9655714,24.0012947 19.029,23.9163329 19.2818571,23.9163329 L20.2084286,23.9163329 C20.4827143,23.9163329 20.5461429,24.0012947 20.5461429,24.2544639 L20.5461429,34.3168653 C20.5461429,34.5708926 20.4612857,34.6549963 20.2084286,34.6549963 L19.2818571,34.6549963 C19.029,34.6549963 18.9655714,34.5708926 18.9655714,34.3168653 L18.9655714,24.2544639 Z M19.7241429,19.2966393 C20.3352857,19.2966393 20.841,19.7823808 20.841,20.3934196 C20.841,21.0053166 20.3352857,21.4910581 19.7241429,21.4910581 C19.113,21.4910581 18.6278571,21.0053166 18.6278571,20.3934196 C18.6278571,19.7823808 19.113,19.2966393 19.7241429,19.2966393 Z" id="Fill-93" fill="#E73A66"></path>
                <path d="M31.7980286,31.6379923 C31.7980286,30.7094193 30.7446,30.224536 28.8271714,29.9499118 C26.7408857,29.6761458 24.7394571,29.1904043 24.7394571,26.9753887 C24.7394571,24.9714904 26.2986,23.6841896 28.7851714,23.6841896 C29.8806,23.6841896 31.3343143,23.9588138 32.8094571,24.8659318 C33.0623143,25.0135423 33.0203143,25.1405559 32.9148857,25.3302183 L32.6406,25.8365566 C32.5351714,26.0476739 32.4297429,26.1523744 32.1768857,25.9841671 C31.0394571,25.2881664 30.2388857,24.9714904 28.8691714,24.9714904 C27.0991714,24.9714904 26.2351714,25.7309979 26.2351714,26.891285 C26.2351714,28.0515722 27.2886,28.2626895 29.2060286,28.5364555 C31.2923143,28.8316765 33.3151714,29.5070803 33.3151714,31.5530304 C33.3151714,33.4942801 31.7131714,34.8871395 28.9951714,34.8871395 C27.8791714,34.8871395 26.2146,34.5704635 24.6554571,33.5363319 C24.4651714,33.4101764 24.4651714,33.3046177 24.5920286,33.0720454 L24.8868857,32.5451103 C24.9923143,32.3339929 25.0977429,32.2284343 25.3506,32.4189548 C26.2780286,33.0720454 27.5208857,33.5998387 28.9111714,33.5998387 C30.9554571,33.5998387 31.7980286,32.7133176 31.7980286,31.6379923" id="Fill-95" fill="#E73A66"></path>
                <path d="M44.8836857,28.7479161 C44.7996857,26.8495765 43.4299714,25.0138855 41.2802571,25.0138855 C39.1108286,25.0138855 37.5088286,26.8495765 37.4462571,28.7479161 L44.8836857,28.7479161 Z M45.6636857,32.9462332 C45.8111143,33.1358955 45.8111143,33.262051 45.6636857,33.4105197 C44.6728286,34.3802863 42.9662571,34.8866246 41.4071143,34.8866246 C38.2254,34.8866246 35.7808286,32.376388 35.7808286,29.2963063 C35.7808286,26.2162245 38.2254,23.6845329 41.3016857,23.6845329 C44.5888286,23.6845329 46.5062571,26.3432382 46.5062571,29.5074236 C46.5062571,29.7605928 46.4642571,29.8446964 46.1899714,29.8446964 L37.4034,29.8446964 C37.5508286,31.8065429 39.3422571,33.4946233 41.4705429,33.4946233 C42.5025429,33.4946233 43.7668286,33.1779473 44.7782571,32.4398949 C45.0096857,32.3128812 45.0945429,32.2708294 45.2625429,32.4604917 L45.6636857,32.9462332 Z" id="Fill-97" fill="#E73A66"></path>
                <path d="M56.0943429,20.4570981 C55.5886286,20.4570981 55.3572,20.3094876 54.7246286,19.7816943 C54.1349143,19.3174078 53.6712,19.0436418 52.8706286,19.0436418 C51.5223429,19.0436418 50.9746286,19.9722148 50.6797714,20.7308641 C50.5743429,20.9840332 50.5743429,21.0895919 50.8263429,21.2166056 L51.2480571,21.3856711 C51.5009143,21.4912297 51.6063429,21.4062679 51.7117714,21.1736955 C52.0066286,20.4356431 52.3649143,20.1824739 52.9966286,20.1824739 C53.4817714,20.1824739 53.7980571,20.3935912 54.4092,20.8999296 C54.9774857,21.3856711 55.3992,21.5959302 56.1997714,21.5959302 C57.5480571,21.5959302 58.0957714,20.6682154 58.4120571,19.9087079 C58.5174857,19.6555388 58.5174857,19.5285251 58.2646286,19.4229664 L57.8437714,19.2547591 C57.5694857,19.1492005 57.4854857,19.1912523 57.3800571,19.4650183 C57.0843429,20.1824739 56.7260571,20.4570981 56.0943429,20.4570981 Z M51.3954857,26.1529751 C51.8386286,25.309364 52.9332,23.6847903 54.9989143,23.6847903 C57.2532,23.6847903 59.1706286,25.0561948 59.1706286,28.4314976 L59.1706286,34.3170369 C59.1706286,34.5702061 59.0866286,34.6543097 58.8543429,34.6543097 L57.9063429,34.6543097 C57.6749143,34.6543097 57.5900571,34.5702061 57.5900571,34.3170369 L57.5900571,28.852874 C57.5900571,26.3426374 56.3266286,25.1197017 54.6192,25.1197017 C52.7866286,25.1197017 51.6063429,26.8918858 51.6063429,29.0013427 L51.6063429,34.3170369 C51.6063429,34.5702061 51.5223429,34.6543097 51.2909143,34.6543097 L50.3420571,34.6543097 C50.1106286,34.6543097 50.0257714,34.5702061 50.0257714,34.3170369 L50.0257714,29.0854464 L50.0257714,24.2546355 C50.0257714,24.0006081 50.1106286,23.9165045 50.3420571,23.9165045 L50.8692,23.9165045 C51.0380571,23.9165045 51.1220571,24.0006081 51.2274857,24.2546355 L51.3954857,26.1529751 Z" id="Fill-99" fill="#E73A66"></path>
                <path d="M71.751,29.2963921 C71.751,26.9758178 69.981,25.11953 67.7687143,25.11953 C65.577,25.11953 63.807,26.9758178 63.807,29.2963921 C63.807,31.6169664 65.577,33.4732541 67.7687143,33.4732541 C69.981,33.4732541 71.751,31.6169664 71.751,29.2963921 M67.7687143,23.6846187 C70.845,23.6846187 73.3101429,26.2163103 73.3101429,29.2963921 C73.3101429,32.3764738 70.845,34.8867104 67.7687143,34.8867104 C64.6924286,34.8867104 62.2272857,32.3764738 62.2272857,29.2963921 C62.2272857,26.2163103 64.6924286,23.6846187 67.7687143,23.6846187" id="Fill-101" fill="#E73A66"></path>
                <path d="M2.25248571,39.4556843 C2.25248571,38.9236 2.3922,38.7828551 2.92362857,38.7828551 L5.5542,38.7828551 C6.08562857,38.7828551 6.22534286,38.9510624 6.22534286,39.4556843 L6.22534286,57.718192 C6.22534286,58.2502763 6.08562857,58.390163 5.5542,58.390163 L2.92362857,58.390163 C2.3922,58.390163 2.25248571,58.2502763 2.25248571,57.718192 L2.25248571,39.4556843 Z" id="Fill-103" fill="#E73A66"></path>
                <path d="M14.5881429,46.2060324 C15.5678571,45.0294394 16.6864286,43.8253841 18.8687143,43.8253841 C22.0015714,43.8253841 24.2395714,45.365854 24.2395714,50.3519992 L24.2395714,57.7187927 C24.2395714,58.2225564 24.0998571,58.3907638 23.5684286,58.3907638 L21.1907143,58.3907638 C20.6867143,58.3907638 20.5187143,58.2508771 20.5187143,57.7187927 L20.5187143,51.1355363 C20.5187143,48.391011 19.7352857,47.158635 17.9172857,47.158635 C16.0152857,47.158635 15.2035714,48.5592183 15.2035714,51.1638569 L15.2035714,57.7187927 C15.2035714,58.2225564 15.0638571,58.3907638 14.5324286,58.3907638 L12.1547143,58.3907638 C11.6507143,58.3907638 11.4827143,58.2508771 11.4827143,57.7187927 L11.4827143,51.21964 L11.4827143,44.8054491 C11.4827143,44.2733648 11.6507143,44.1334781 12.1547143,44.1334781 L13.329,44.1334781 C13.7207143,44.1334781 13.8604286,44.3291478 14.1124286,44.8054491 L14.5881429,46.2060324 Z" id="Fill-105" fill="#E73A66"></path>
                <path d="M38.7275143,51.2761096 C38.7275143,48.9795649 37.1606571,47.1584634 35.1189429,47.1584634 C33.1038,47.1584634 31.5378,48.9512443 31.5378,51.2761096 C31.5378,53.6567579 33.1038,55.4495388 35.1189429,55.4495388 C37.1606571,55.4495388 38.7275143,53.5726542 38.7275143,51.2761096 Z M38.6992286,38.3910866 C38.6992286,37.8864646 38.8389429,37.7191155 39.3703714,37.7191155 L41.7489429,37.7191155 C42.2803714,37.7191155 42.4200857,37.8590022 42.4200857,38.3910866 L42.4200857,57.7186211 C42.4200857,58.2507054 42.2803714,58.3905921 41.7489429,58.3905921 L40.6295143,58.3905921 C40.2378,58.3905921 40.0980857,58.1949224 39.8469429,57.7186211 L39.3703714,56.3180378 C38.2518,57.5504138 36.6849429,58.6986861 34.2798,58.6986861 C30.5306571,58.6986861 27.8452286,55.2530109 27.8452286,51.2761096 C27.8452286,47.186784 30.5306571,43.8252124 34.2798,43.8252124 C36.6849429,43.8252124 38.2800857,45.3656824 38.6992286,46.0659741 L38.6992286,38.3910866 Z" id="Fill-107" fill="#E73A66"></path>
                <path d="M56.6555143,56.3180378 C55.7049429,57.4946307 54.5855143,58.6986861 52.4032286,58.6986861 C49.2703714,58.6986861 47.0040857,57.1582161 47.0040857,52.1720709 L47.0040857,44.8052775 C47.0040857,44.3015137 47.1438,44.1333064 47.6752286,44.1333064 L50.0529429,44.1333064 C50.5843714,44.1333064 50.7249429,44.2731931 50.7249429,44.8052775 L50.7249429,51.3876756 C50.7249429,54.1330592 51.5083714,55.3654352 53.3546571,55.3654352 C55.2566571,55.3654352 56.0400857,53.9648519 56.0400857,51.3602132 L56.0400857,44.8052775 C56.0400857,44.3015137 56.1798,44.1333064 56.7112286,44.1333064 L59.0898,44.1333064 C59.6212286,44.1333064 59.7609429,44.2731931 59.7609429,44.8052775 L59.7609429,51.3044302 L59.7609429,57.7186211 C59.7609429,58.2507054 59.6212286,58.3905921 59.0898,58.3905921 L57.9146571,58.3905921 C57.5229429,58.3905921 57.3832286,58.1949224 57.1312286,57.7186211 L56.6555143,56.3180378 Z" id="Fill-109" fill="#E73A66"></path>
                <path d="M72.4859143,54.2730317 C72.4859143,53.4603158 71.3390571,53.1522218 69.4087714,52.8724484 C66.4147714,52.4802508 63.9256286,51.5001857 63.9256286,48.4750288 C63.9256286,45.6455416 66.2750571,43.8252982 69.7164857,43.8252982 C71.1993429,43.8252982 73.0456286,44.1891753 75.1439143,45.4215513 C75.6470571,45.7021828 75.5356286,45.9261732 75.3119143,46.3741539 L74.6124857,47.5782092 C74.3604857,48.0270481 74.1924857,48.2510385 73.7176286,47.9146239 C72.6822,47.2426528 71.6467714,46.7097103 69.9402,46.7097103 C68.1496286,46.7097103 67.4502,47.2701152 67.4502,48.2510385 C67.4502,49.1195374 68.5696286,49.3993108 70.5273429,49.6516218 C73.4930571,50.0438194 75.9830571,50.9672432 75.9830571,54.0490414 C75.9830571,56.850208 73.6053429,58.6987719 69.9959143,58.6987719 C68.5139143,58.6987719 66.2476286,58.2782537 64.1776286,56.8776704 C63.7293429,56.597897 63.8133429,56.3739066 64.0379143,55.925926 L64.7364857,54.7210124 C64.9884857,54.2730317 65.1564857,54.0207207 65.6604857,54.3845978 C66.5827714,55.0848894 68.0656286,55.8135017 69.7447714,55.8135017 C71.5353429,55.8135017 72.4859143,55.1973137 72.4859143,54.2730317" id="Fill-111" fill="#E73A66"></path>
                <path d="M79.8963429,51.9201033 C79.3649143,51.9201033 79.2252,51.751896 79.2252,51.2198116 L79.2252,49.6793416 C79.2252,49.1472573 79.3649143,49.0065124 79.8963429,49.0065124 L87.6174857,49.0065124 C88.1489143,49.0065124 88.2894857,49.1472573 88.2894857,49.6793416 L88.2894857,51.2481322 C88.2894857,51.751896 88.1489143,51.9201033 87.6174857,51.9201033 L79.8963429,51.9201033 Z" id="Fill-113" fill="#E73A66"></path>
                <path d="M8.21151429,82.4344536 C4.51894286,82.4344536 2.64437143,80.1095883 2.64437143,76.244253 L2.64437143,70.8101272 L1.80522857,70.8101272 C1.2738,70.8101272 1.1058,70.6702405 1.1058,70.1381561 L1.1058,68.5419031 C1.1058,68.0089606 1.2738,67.8690739 1.80522857,67.8690739 L2.64437143,67.8690739 L2.64437143,65.207794 C2.64437143,64.7040303 2.78408571,64.535823 3.31551429,64.535823 L5.6658,64.535823 C6.19722857,64.535823 6.36522857,64.6757096 6.36522857,65.207794 L6.36522857,67.8690739 L10.2815143,67.8690739 C10.8129429,67.8690739 10.9535143,68.0089606 10.9535143,68.5419031 L10.9535143,70.1381561 C10.9535143,70.6702405 10.8129429,70.8101272 10.2815143,70.8101272 L6.36522857,70.8101272 L6.36522857,76.0485833 C6.36522857,78.2052413 7.17608571,79.1012026 8.63151429,79.1012026 C9.13465714,79.1012026 9.63865714,79.0454196 10.1418,78.7931086 C10.7572286,78.4850146 10.8969429,78.5133353 11.0092286,79.1853063 L11.3169429,80.865663 C11.3726571,81.3419643 11.3443714,81.4827092 10.9535143,81.7341619 C9.8058,82.4344536 8.57494286,82.4344536 8.21151429,82.4344536" id="Fill-115" fill="#E73A66"></path>
                <path d="M19.0630286,75.2637589 L19.0630286,81.4539594 C19.0630286,81.9585814 18.9224571,82.1267887 18.3910286,82.1267887 L16.0133143,82.1267887 C15.5093143,82.1267887 15.3421714,81.9860438 15.3421714,81.4539594 L15.3421714,68.541474 C15.3421714,68.0093897 15.5093143,67.869503 16.0133143,67.869503 L17.1884571,67.869503 C17.5801714,67.869503 17.7198857,68.0377103 17.9718857,68.541474 L18.6996,70.4183586 C19.5661714,68.905351 20.6856,67.5605508 23.8750286,67.5605508 C24.4904571,67.5605508 24.5461714,67.7287581 24.4621714,68.177597 L24.0987429,70.6140283 C24.0147429,71.1461127 23.8750286,71.2585369 23.3710286,71.2585369 C20.3778857,71.2585369 19.0630286,73.1354215 19.0630286,75.2637589" id="Fill-117" fill="#E73A66"></path>
                <path d="M28.2363429,68.541474 C28.2363429,68.0093897 28.3760571,67.869503 28.9074857,67.869503 L31.2860571,67.869503 C31.8174857,67.869503 31.9572,68.0377103 31.9572,68.541474 L31.9572,81.4539594 C31.9572,81.986902 31.8174857,82.1267887 31.2860571,82.1267887 L28.9074857,82.1267887 C28.3760571,82.1267887 28.2363429,81.986902 28.2363429,81.4539594 L28.2363429,68.541474 Z M30.0552,61.2587842 C31.2860571,61.2587842 32.2932,62.2671698 32.2932,63.4995458 C32.2932,64.7319218 31.2860571,65.712845 30.0552,65.712845 C28.8243429,65.712845 27.8729143,64.7319218 27.8729143,63.4995458 C27.8729143,62.2671698 28.8243429,61.2587842 30.0552,61.2587842 Z" id="Fill-119" fill="#E73A66"></path>
                <path d="M40.4874857,77.7566598 C40.4874857,78.5410551 41.1029143,79.6335444 42.8652,79.6335444 C44.0120571,79.6335444 45.1314857,78.8774698 45.9989143,77.9248671 L45.9989143,76.4401802 C44.8794857,76.1046238 44.0686286,75.8523128 43.0057714,75.8523128 C41.1303429,75.8523128 40.4874857,76.7765948 40.4874857,77.7566598 M38.3617714,70.5022906 L37.9417714,68.9060376 C37.8020571,68.4014157 37.8852,68.205746 38.3334857,68.0933217 C38.6686286,68.009218 41.2426286,67.5612373 43.2569143,67.5612373 C48.9363429,67.5612373 49.7197714,70.0534517 49.7197714,74.3950883 L49.7197714,81.454646 C49.7197714,81.9584097 49.5792,82.126617 49.0477714,82.126617 L47.6489143,82.126617 C47.2854857,82.126617 47.1457714,81.9584097 46.9220571,81.454646 L46.6700571,80.4454022 C45.8592,81.2297975 44.5160571,82.434711 41.6626286,82.434711 C39.2283429,82.434711 36.7666286,80.9217035 36.7666286,77.7566598 C36.7666286,74.7031823 39.2283429,73.2193535 42.0543429,73.2193535 C43.1172,73.2193535 44.8520571,73.4708063 45.9989143,73.863004 C45.9989143,71.6780254 45.4949143,70.7537434 43.0889143,70.7537434 C41.5786286,70.7537434 40.0674857,70.9502713 39.0886286,71.145941 C38.5854857,71.2309029 38.4732,71.034375 38.3617714,70.5022906" id="Fill-121" fill="#E73A66"></path>
                <path d="M54.4436571,62.1271973 C54.4436571,61.595113 54.5833714,61.4543681 55.1148,61.4543681 L57.4933714,61.4543681 C58.0248,61.4543681 58.1928,61.6225754 58.1928,62.1271973 L58.1928,81.4547318 C58.1928,81.9868162 58.0248,82.1267028 57.4933714,82.1267028 L55.1148,82.1267028 C54.5833714,82.1267028 54.4436571,81.9868162 54.4436571,81.4547318 L54.4436571,62.1271973 Z" id="Fill-123" fill="#E73A66"></path>
            </g>
        </g>
    </g>
</svg>