<?xml version="1.0" encoding="UTF-8"?>
<svg width="90px" height="87px" viewBox="0 0 90 87" version="1.1" xmlns="http://www.w3.org/2000/svg" xmlns:xlink="http://www.w3.org/1999/xlink">
    <!-- Generator: Sketch 50.2 (55047) - http://www.bohemiancoding.com/sketch -->
    <title>logo-ueb</title>
    <desc>Created with Sketch.</desc>
    <defs>
        <polygon id="path-1" points="0.325661305 0.145935484 35.1346199 0.145935484 35.1346199 43.8902371 0.325661305 43.8902371"></polygon>
        <polygon id="path-3" points="0 0.552099194 69.2114062 0.552099194 69.2114062 21.7499298 0 21.7499298"></polygon>
    </defs>
    <g id="Islas-black" stroke="none" stroke-width="1" fill="none" fill-rule="evenodd">
        <g id="Detalle-Factor-black" transform="translate(-19.000000, -19.000000)">
            <g id="logo-ueb" transform="translate(19.000000, 19.000000)">
                <rect id="Rectangle-2" fill="#FF4070" x="0" y="0" width="90" height="87"></rect>
                <g id="Page-1" transform="translate(10.546875, 9.822581)">
                    <g id="Group-3" transform="translate(16.875000, 0.555677)">
                        <mask id="mask-2" fill="white">
                            <use xlink:href="#path-1"></use>
                        </mask>
                        <g id="Clip-2"></g>
                        <path d="M27.4301016,31.3482048 C27.3977578,31.5376403 27.2852578,31.6912935 27.1340859,31.7860113 L23.2204922,34.2430597 C22.9230703,34.4303903 22.7100234,34.6998097 22.5926016,35.0029065 C23.2380703,32.1305032 23.7344766,29.2005677 24.0726797,26.2236242 C24.0649453,26.5758339 24.1767422,26.9322532 24.4136953,27.2283339 L27.2958047,30.8374306 C27.4068984,30.9770516 27.4624453,31.1587694 27.4301016,31.3482048 M12.2397891,34.2430597 L8.32619531,31.7860113 C8.17502344,31.6912935 8.06252344,31.5376403 8.03017969,31.3482048 C7.99853906,31.1587694 8.05338281,30.9770516 8.16517969,30.8374306 L11.0465859,27.2283339 C11.2835391,26.9322532 11.3953359,26.5758339 11.3890078,26.2236242 C11.7258047,29.2005677 12.2222109,32.1305032 12.8676797,35.0029065 C12.7502578,34.6998097 12.5372109,34.4303903 12.2397891,34.2430597 M6.02135156,1.93518871 C6.27447656,1.68190645 6.68510156,1.68190645 6.93822656,1.93518871 C7.19205469,2.18776935 7.19205469,2.59751129 6.93822656,2.85079355 C6.68510156,3.10407581 6.27447656,3.10407581 6.02135156,2.85079355 C5.76682031,2.59751129 5.76682031,2.18776935 6.02135156,1.93518871 M29.4396328,2.85079355 C29.1858047,3.10407581 28.7751797,3.10407581 28.5220547,2.85079355 C28.2682266,2.59751129 28.2682266,2.18776935 28.5220547,1.93518871 C28.7751797,1.68190645 29.1858047,1.68190645 29.4396328,1.93518871 C29.6934609,2.18776935 29.6934609,2.59751129 29.4396328,2.85079355 M35.0048672,9.07760806 C34.9008047,8.93868871 34.7489297,8.84888226 34.5773672,8.82362419 C34.5457266,8.81941452 34.5147891,8.81730968 34.4838516,8.81730968 C34.1716641,8.81730968 33.8967422,9.04322903 33.8440078,9.35825323 C33.8447109,9.34702742 33.8461172,9.33650323 33.8475234,9.32527742 C33.9311953,8.55841452 33.9178359,7.80768871 33.8144766,7.08783387 C33.8461172,7.24429355 33.9333047,7.38251129 34.0626797,7.47863226 C34.1758828,7.56352742 34.3108828,7.60772903 34.4501016,7.60772903 C34.4810391,7.60772903 34.5126797,7.60562419 34.5443203,7.60141452 C34.7158828,7.57615645 34.8684609,7.48635 34.9725234,7.34743065 C35.0765859,7.2092129 35.1201797,7.03801935 35.0948672,6.86682581 C35.0484609,6.54408387 34.7693203,6.31044677 34.4515078,6.31044677 C34.4212734,6.31044677 34.3896328,6.31255161 34.3586953,6.31676129 C34.0155703,6.36657581 33.7729922,6.67668871 33.8039297,7.01767258 C33.6893203,6.25642258 33.4755703,5.53025323 33.1732266,4.85319677 C33.2477578,4.99702742 33.3708047,5.10718065 33.5240859,5.16401129 C33.5979141,5.19067258 33.6745547,5.20470484 33.7511953,5.20470484 C33.8433047,5.20470484 33.9354141,5.18435806 34.0211953,5.14506774 C34.1793984,5.07350323 34.3003359,4.94370484 34.3601016,4.78163226 C34.4205703,4.61885806 34.4142422,4.44275323 34.3418203,4.28559194 C34.1927578,3.96004355 33.8053359,3.81691452 33.4797891,3.96565645 C33.1661953,4.1094871 33.0213516,4.47222097 33.1443984,4.78935 C32.0046328,2.29230968 29.6597109,0.48776129 26.6798672,0.167825806 C25.7179922,0.0639870968 25.1927578,0.346737097 24.9262734,0.589495161 C24.3940078,1.07430968 24.3623672,1.8039871 24.8411953,2.42982581 L29.9304141,8.87484194 C30.4310391,9.48875323 30.3951797,10.3938339 29.8214297,10.9656484 L25.0612734,15.7155677 C24.7547109,16.0207694 24.6028359,16.4213903 24.6028359,16.8213097 C24.6028359,17.221229 24.7547109,17.62185 25.0612734,17.9270516 L28.3293984,21.1916565 C28.4552578,21.3172452 28.5311953,21.4926484 28.5206484,21.6841887 C28.5093984,21.875729 28.4144766,22.0413097 28.2752578,22.1521645 L24.6611953,25.0308823 C24.3637734,25.2680274 24.1753359,25.5921726 24.1043203,25.9380677 C24.4326797,22.9435839 24.6028359,19.9027935 24.6028359,16.8213097 C24.6028359,13.1616968 24.3630703,9.5582129 23.9011172,6.02418871 L20.7265078,6.02418871 C21.1877578,9.5582129 21.4275234,13.1616968 21.4275234,16.8213097 C21.4275234,25.3480113 20.1302578,33.5709145 17.7304922,41.3104065 C15.3300234,33.5709145 14.0327578,25.3480113 14.0327578,16.8213097 C14.0327578,13.1616968 14.2725234,9.5582129 14.7337734,6.02418871 L11.5591641,6.02418871 C11.0972109,9.5582129 10.8581484,13.1616968 10.8581484,16.8213097 C10.8581484,19.9027935 11.0276016,22.9435839 11.3566641,25.9380677 C11.2849453,25.5921726 11.0972109,25.2680274 10.7990859,25.0308823 L7.18502344,22.1521645 C7.04580469,22.0413097 6.95088281,21.875729 6.93963281,21.6841887 C6.92978906,21.4926484 7.00502344,21.3172452 7.13088281,21.1916565 L10.3990078,17.9270516 C10.7055703,17.62185 10.8581484,17.221229 10.8581484,16.8213097 C10.8581484,16.4213903 10.7055703,16.0207694 10.3990078,15.7155677 L5.63885156,10.9656484 C5.06580469,10.3938339 5.02994531,9.48875323 5.53057031,8.87484194 L10.6190859,2.42982581 C11.0979141,1.8039871 11.0669766,1.07430968 10.5340078,0.589495161 C10.2675234,0.346737097 9.74228906,0.0639870968 8.78111719,0.167825806 C5.80057031,0.48776129 3.45564844,2.29230968 2.31588281,4.78935 C2.43892969,4.47222097 2.29408594,4.1094871 1.98049219,3.96565645 C1.65494531,3.81691452 1.26822656,3.96004355 1.11846094,4.28559194 C1.04674219,4.44275323 1.03971094,4.61885806 1.10088281,4.78163226 C1.16135156,4.94370484 1.28158594,5.07350323 1.43908594,5.14506774 C1.52557031,5.18435806 1.61697656,5.20470484 1.70978906,5.20470484 C1.78572656,5.20470484 1.86236719,5.19067258 1.93619531,5.16401129 C2.08947656,5.10718065 2.21322656,4.99702742 2.28705469,4.85319677 C1.98541406,5.53025323 1.77166406,6.25642258 1.65635156,7.01767258 C1.68728906,6.67668871 1.44471094,6.36657581 1.10158594,6.31676129 C1.07064844,6.31255161 1.03900781,6.31044677 1.00877344,6.31044677 C0.690960938,6.31044677 0.411820313,6.54408387 0.365414063,6.86682581 C0.340804688,7.03801935 0.384398438,7.2092129 0.488460938,7.34743065 C0.591820313,7.48635 0.744398438,7.57615645 0.915960938,7.60141452 C0.947601563,7.60562419 0.979242188,7.60772903 1.01017969,7.60772903 C1.14939844,7.60772903 1.28439844,7.56352742 1.39830469,7.47863226 C1.52767969,7.38251129 1.61416406,7.24429355 1.64580469,7.08783387 C1.54385156,7.80768871 1.52908594,8.55841452 1.61275781,9.32527742 C1.61416406,9.33650323 1.61557031,9.34702742 1.61627344,9.35825323 C1.56353906,9.04322903 1.28861719,8.81730968 0.976429688,8.81730968 C0.945492188,8.81730968 0.914554688,8.81941452 0.882914063,8.82362419 C0.711351563,8.84888226 0.559476563,8.93868871 0.455414062,9.07760806 C0.351351563,9.21582581 0.307757813,9.38701935 0.332367188,9.5582129 C0.356976563,9.73010806 0.447679688,9.88165645 0.586195313,9.98549516 C0.700101563,10.0696887 0.835101563,10.1145919 0.974320313,10.1145919 C1.00596094,10.1145919 1.03689844,10.1124871 1.06853906,10.1082774 C1.24010156,10.0830194 1.39267969,9.9932129 1.49603906,9.85429355 C1.58955469,9.73080968 1.63385156,9.58136613 1.62471094,9.42911613 C1.73861719,10.3840113 1.95025781,11.0821161 2.19072656,11.5999065 C2.03041406,11.3010194 1.66127344,11.1733258 1.34697656,11.3164548 C1.02142969,11.4651968 0.877992188,11.8510839 1.02705469,12.1766323 C1.13603906,12.414479 1.37228906,12.5548016 1.61908594,12.5548016 C1.70978906,12.5548016 1.80119531,12.5365597 1.88838281,12.4958661 C2.04588281,12.4236 2.16682031,12.2945032 2.22728906,12.1324306 C2.28494531,11.9780758 2.28142969,11.8110919 2.21955469,11.6595435 C2.54088281,12.3267774 2.90721094,12.6846 3.15963281,12.914729 L3.59346094,13.3469226 C3.33822656,13.1196 2.94588281,13.1273177 2.70049219,13.371479 C2.44736719,13.6247613 2.44736719,14.0366081 2.70049219,14.2891887 C2.82705469,14.415479 2.99369531,14.4786242 3.15963281,14.4786242 C3.32697656,14.4786242 3.49291406,14.415479 3.62017969,14.2891887 C3.74252344,14.1664065 3.81002344,14.0036323 3.81002344,13.8303339 C3.81002344,13.6689629 3.75166406,13.5167129 3.64478906,13.3981403 L5.34986719,15.0995516 C5.23103906,14.9929065 5.07846094,14.9346726 4.91603906,14.9346726 C4.74236719,14.9346726 4.57994531,15.0020274 4.45689844,15.1241081 C4.20377344,15.3773903 4.20377344,15.7892371 4.45689844,16.0418177 C4.58346094,16.1681081 4.75010156,16.2312532 4.91603906,16.2312532 C5.08338281,16.2312532 5.24932031,16.1681081 5.37658594,16.0418177 C5.62057031,15.7976565 5.62900781,15.4047532 5.40119531,15.1507694 L7.07533594,16.8213097 L5.40189844,18.4904468 C5.62900781,18.2364629 5.62057031,17.8442613 5.37658594,17.6008016 C5.12275781,17.3475194 4.71002344,17.3475194 4.45689844,17.6008016 C4.20307031,17.8533823 4.20307031,18.265229 4.45689844,18.5178097 C4.58346094,18.6441 4.75010156,18.7072452 4.91603906,18.7072452 C5.07142969,18.7072452 5.22611719,18.6525194 5.34916406,18.5437694 L3.64549219,20.2437774 C3.87260156,19.9890919 3.86416406,19.5968903 3.62017969,19.3534306 C3.49713281,19.2306484 3.33330469,19.1632935 3.15963281,19.1632935 C2.98596094,19.1632935 2.82283594,19.2306484 2.70049219,19.3534306 C2.57744531,19.4762129 2.50994531,19.6389871 2.50994531,19.8122855 C2.50994531,19.9855839 2.57744531,20.1483581 2.70049219,20.2704387 C2.82705469,20.3974306 2.99369531,20.4598742 3.15963281,20.4598742 C3.31502344,20.4598742 3.46971094,20.40585 3.59275781,20.2963984 L3.15963281,20.7278903 C2.85588281,21.0316887 2.67658594,21.4596726 2.70260156,21.9227371 C2.72861719,22.3851 2.95432031,22.7878258 3.29111719,23.0558419 L3.77135156,23.438221 C3.66025781,23.3589387 3.53017969,23.3175435 3.39447656,23.3175435 C3.36986719,23.3175435 3.34525781,23.3189468 3.32135156,23.3217532 C3.14838281,23.3406968 2.99369531,23.4262935 2.88541406,23.5617048 C2.77713281,23.6971161 2.72791406,23.8662048 2.74760156,24.0388016 C2.76728906,24.2106968 2.85307031,24.3650516 2.98807031,24.4731 C3.10408594,24.5657129 3.24541406,24.6148258 3.39236719,24.6148258 C3.41697656,24.6148258 3.44158594,24.6134226 3.46619531,24.6106161 C3.63916406,24.590971 3.79385156,24.5060758 3.90213281,24.3706645 C4.00971094,24.2352532 4.05892969,24.0654629 4.03924219,23.8935677 C4.02166406,23.7328984 3.94642969,23.5883661 3.82689844,23.4824226 L5.71127344,24.982471 C5.43283594,24.7853177 5.04330469,24.8372371 4.82744531,25.1073581 C4.71916406,25.2427694 4.67064844,25.4125597 4.68963281,25.5844548 C4.70932031,25.75635 4.79510156,25.9107048 4.93010156,26.0187532 C5.04682031,26.1113661 5.18814844,26.160479 5.33439844,26.160479 C5.35900781,26.160479 5.38432031,26.1590758 5.40892969,26.1562694 C5.58119531,26.1366242 5.73588281,26.051729 5.84416406,25.9163177 C6.05932031,25.6461968 6.02416406,25.2553984 5.76892969,25.0280758 L7.61955469,26.5007613 L6.14228906,28.3488097 C6.23580469,28.2183097 6.27728906,28.0604468 6.25971094,27.8997774 C6.23932031,27.7271806 6.15424219,27.5735274 6.01853906,27.4647774 C5.88283594,27.356729 5.71267969,27.3076161 5.54041406,27.3279629 C5.36814844,27.3469065 5.21275781,27.4318016 5.10517969,27.5679145 C4.99689844,27.7033258 4.94767969,27.8724145 4.96736719,28.0450113 C4.98705469,28.2169065 5.07213281,28.3712613 5.20853906,28.4793097 C5.32455469,28.5719226 5.46588281,28.6210355 5.61213281,28.6210355 C5.63674219,28.6210355 5.66135156,28.6196323 5.68596094,28.6168258 C5.84697656,28.5985839 5.99252344,28.5235113 6.09869531,28.4035355 L4.59400781,30.2859629 C4.79299219,30.0074226 4.74025781,29.618729 4.46955469,29.4033339 C4.18900781,29.180221 3.77908594,29.2265274 3.55619531,29.5057694 C3.33260156,29.7850113 3.37900781,30.1940516 3.65885156,30.4171645 C3.77767969,30.5125839 3.92111719,30.5581887 4.06385156,30.5581887 C4.24314844,30.5581887 4.42174219,30.4845194 4.54971094,30.3413903 L4.16721094,30.8205919 C3.89861719,31.1559629 3.76994531,31.6000839 3.84728906,32.0568339 C3.92463281,32.5142855 4.19392969,32.89035 4.55885156,33.1190758 L5.07705469,33.4446242 C4.77682031,33.2790435 4.39572656,33.3744629 4.21221094,33.6670355 C4.12010156,33.8136726 4.09057031,33.986971 4.12853906,34.1560597 C4.16721094,34.3251484 4.26986719,34.468979 4.41682031,34.5608903 C4.52369531,34.6282452 4.64322656,34.6605194 4.76135156,34.6605194 C4.97721094,34.6605194 5.18955469,34.5531726 5.31260156,34.3574226 C5.40541406,34.2107855 5.43494531,34.0367855 5.39627344,33.8676968 C5.35971094,33.7105355 5.26900781,33.5758258 5.13892969,33.4832129 L7.17939844,34.7629548 C7.03947656,34.6857774 6.87846094,34.6633258 6.72096094,34.6984065 C6.55150781,34.7369952 6.40807031,34.8394306 6.31525781,34.9860677 C6.22314844,35.1327048 6.19361719,35.3067048 6.23228906,35.4750919 C6.27025781,35.6448823 6.37291406,35.7880113 6.51986719,35.8799226 C6.62392969,35.9458742 6.74346094,35.9802532 6.86439844,35.9802532 C6.91221094,35.9802532 6.96213281,35.9746403 7.00994531,35.9634145 C7.17939844,35.9248258 7.32353906,35.8230919 7.41564844,35.6764548 C7.50846094,35.5291161 7.53799219,35.3558177 7.49932031,35.186729 C7.46346094,35.0295677 7.37275781,34.8941565 7.24127344,34.8015435 L9.24588281,36.0588339 L7.98236719,38.0647452 C8.06322656,37.923721 8.08713281,37.7602452 8.05057031,37.600979 C8.01260156,37.4318903 7.90994531,37.2880597 7.76299219,37.1961484 C7.61603906,37.1035355 7.44166406,37.0740677 7.27291406,37.1126565 C7.10346094,37.1512452 6.95932031,37.2536806 6.86721094,37.3996161 C6.67596094,37.7027129 6.76736719,38.1040355 7.07111719,38.2941726 C7.17588281,38.3601242 7.29471094,38.3938016 7.41564844,38.3938016 C7.46416406,38.3938016 7.51338281,38.3888903 7.56189844,38.3776645 C7.72150781,38.3411806 7.85791406,38.2485677 7.95072656,38.1159629 L7.13299219,39.4139468 C6.67314844,40.1450274 6.89322656,41.1104468 7.62588281,41.5700032 C8.35853906,42.0295597 9.32603906,41.8092532 9.78658594,41.0781726 L12.7333828,36.3998177 C12.9197109,36.1037371 12.9942422,35.7690677 12.9689297,35.4456242 C13.6319766,38.3208339 14.4447891,41.1385113 15.3996328,43.8902371 L16.8874453,43.8902371 L18.5728359,43.8902371 L20.0613516,43.8902371 C21.0154922,41.1385113 21.8283047,38.3208339 22.4920547,35.4456242 C22.4660391,35.7690677 22.5412734,36.1037371 22.7276016,36.3998177 L25.6736953,41.0781726 C26.1342422,41.8092532 27.1017422,42.0295597 27.8343984,41.5700032 C28.5670547,41.1104468 28.7885391,40.1450274 28.3272891,39.4139468 L27.5095547,38.1159629 C27.6023672,38.2485677 27.7387734,38.3411806 27.8990859,38.3776645 C27.9468984,38.3888903 27.9961172,38.3938016 28.0446328,38.3938016 C28.1655703,38.3938016 28.2843984,38.3601242 28.3891641,38.2941726 C28.6929141,38.1040355 28.7843203,37.7027129 28.5937734,37.3996161 C28.5009609,37.2536806 28.3568203,37.1512452 28.1880703,37.1126565 C28.0186172,37.0740677 27.8442422,37.1035355 27.6972891,37.1961484 C27.5503359,37.2880597 27.4476797,37.4318903 27.4097109,37.600979 C27.3731484,37.7602452 27.3977578,37.923721 27.4779141,38.0647452 L26.2143984,36.0588339 L28.2190078,34.8015435 C28.0882266,34.8941565 27.9975234,35.0295677 27.9609609,35.186729 C27.9222891,35.3558177 27.9518203,35.5291161 28.0446328,35.6764548 C28.1374453,35.8230919 28.2808828,35.9248258 28.4503359,35.9634145 C28.4988516,35.9746403 28.5480703,35.9802532 28.5958828,35.9802532 C28.7168203,35.9802532 28.8363516,35.9458742 28.9404141,35.8799226 C29.0873672,35.7880113 29.1900234,35.6448823 29.2286953,35.4750919 C29.2673672,35.3067048 29.2371328,35.1327048 29.1450234,34.9860677 C29.0536172,34.8394306 28.9094766,34.7369952 28.7393203,34.6984065 C28.5818203,34.6633258 28.4208047,34.6857774 28.2808828,34.7629548 L30.3213516,33.4832129 C30.1912734,33.5758258 30.1005703,33.7105355 30.0647109,33.8676968 C30.0253359,34.0367855 30.0548672,34.2107855 30.1476797,34.3574226 C30.2714297,34.5531726 30.4830703,34.6605194 30.6989297,34.6605194 C30.8170547,34.6605194 30.9365859,34.6282452 31.0448672,34.5608903 C31.1911172,34.468979 31.2930703,34.3251484 31.3317422,34.1560597 C31.3704141,33.986971 31.3408828,33.8136726 31.2487734,33.6670355 C31.0645547,33.3744629 30.6834609,33.2790435 30.3832266,33.4446242 L30.9021328,33.1190758 C31.2663516,32.89035 31.5356484,32.5142855 31.6129922,32.0568339 C31.6910391,31.6000839 31.5616641,31.1559629 31.2937734,30.8205919 L30.9105703,30.3413903 C31.0385391,30.4845194 31.2171328,30.5581887 31.3971328,30.5581887 C31.5391641,30.5581887 31.6826016,30.5125839 31.8021328,30.4171645 C32.0819766,30.1940516 32.1283828,29.7850113 31.9040859,29.5057694 C31.6811953,29.2265274 31.2712734,29.180221 30.9907266,29.4033339 C30.7200234,29.618729 30.6672891,30.0074226 30.8669766,30.2859629 L29.3615859,28.4035355 C29.4677578,28.5235113 29.6133047,28.5985839 29.7743203,28.6168258 C29.7996328,28.6196323 29.8242422,28.6210355 29.8481484,28.6210355 C29.9951016,28.6210355 30.1364297,28.5719226 30.2531484,28.4793097 C30.3881484,28.3712613 30.4739297,28.2169065 30.4929141,28.0450113 C30.5126016,27.8724145 30.4633828,27.7033258 30.3551016,27.5679145 C30.2475234,27.4318016 30.0928359,27.3469065 29.9198672,27.3279629 C29.7476016,27.3076161 29.5781484,27.356729 29.4417422,27.4647774 C29.3060391,27.5735274 29.2209609,27.7271806 29.2019766,27.8997774 C29.1829922,28.0604468 29.2244766,28.2183097 29.3186953,28.3488097 L27.8407266,26.5007613 L29.6913516,25.0280758 C29.4368203,25.2553984 29.4009609,25.6461968 29.6161172,25.9163177 C29.7251016,26.051729 29.8790859,26.1366242 30.0520547,26.1562694 C30.0766641,26.1590758 30.1012734,26.160479 30.1258828,26.160479 C30.2728359,26.160479 30.4134609,26.1113661 30.5301797,26.0187532 C30.6665859,25.9107048 30.7516641,25.75635 30.7706484,25.5844548 C30.7903359,25.4125597 30.7411172,25.2427694 30.6328359,25.1073581 C30.4176797,24.8372371 30.0281484,24.7853177 29.7490078,24.982471 L31.6340859,23.4824226 C31.5145547,23.5883661 31.4386172,23.7328984 31.4210391,23.8935677 C31.4013516,24.0654629 31.4505703,24.2352532 31.5588516,24.3706645 C31.6664297,24.5060758 31.8211172,24.590971 31.9940859,24.6106161 C32.0186953,24.6134226 32.0440078,24.6148258 32.0686172,24.6148258 C32.2148672,24.6148258 32.3561953,24.5657129 32.4722109,24.4731 C32.6079141,24.3650516 32.6929922,24.2106968 32.7126797,24.0388016 C32.7323672,23.8662048 32.6838516,23.6971161 32.5748672,23.5617048 C32.4665859,23.4262935 32.3118984,23.3406968 32.1396328,23.3217532 C32.1150234,23.3189468 32.0904141,23.3175435 32.0658047,23.3175435 C31.9301016,23.3175435 31.8007266,23.3589387 31.6896328,23.438221 L32.1691641,23.0558419 C32.5059609,22.7878258 32.7316641,22.3851 32.7576797,21.9227371 C32.7836953,21.4596726 32.6043984,21.0316887 32.3006484,20.7278903 L31.8682266,20.2963984 C31.9905703,20.40585 32.1459609,20.4598742 32.3006484,20.4598742 C32.4672891,20.4598742 32.6332266,20.3974306 32.7604922,20.2704387 C32.8828359,20.1483581 32.9510391,19.9855839 32.9510391,19.8122855 C32.9510391,19.6389871 32.8828359,19.4762129 32.7604922,19.3534306 C32.6374453,19.2306484 32.4743203,19.1632935 32.3006484,19.1632935 C32.1269766,19.1632935 31.9631484,19.2306484 31.8408047,19.3534306 C31.5961172,19.5968903 31.5876797,19.9890919 31.8147891,20.2437774 L30.1111172,18.5437694 C30.2341641,18.6525194 30.3888516,18.7072452 30.5442422,18.7072452 C30.7101797,18.7072452 30.8768203,18.6441 31.0040859,18.5178097 C31.2572109,18.265229 31.2572109,17.8533823 31.0040859,17.6008016 C30.7502578,17.3475194 30.3375234,17.3475194 30.0836953,17.6008016 C29.8397109,17.8442613 29.8312734,18.2364629 30.0583828,18.4904468 L28.3849453,16.8213097 L30.0590859,15.1507694 C29.8312734,15.4047532 29.8397109,15.7976565 30.0836953,16.0418177 C30.2109609,16.1681081 30.3768984,16.2312532 30.5442422,16.2312532 C30.7101797,16.2312532 30.8768203,16.1681081 31.0033828,16.0418177 C31.2565078,15.7892371 31.2565078,15.3773903 31.0033828,15.1241081 C30.8803359,15.0020274 30.7179141,14.9346726 30.5442422,14.9346726 C30.3825234,14.9346726 30.2299453,14.9929065 30.1111172,15.0995516 L31.8154922,13.3981403 C31.7093203,13.5167129 31.6502578,13.6689629 31.6502578,13.8303339 C31.6502578,14.0036323 31.7184609,14.1664065 31.8408047,14.2891887 C31.9673672,14.415479 32.1340078,14.4786242 32.3006484,14.4786242 C32.4672891,14.4786242 32.6332266,14.415479 32.7604922,14.2891887 C33.0136172,14.0366081 33.0136172,13.6247613 32.7604922,13.371479 C32.5143984,13.1273177 32.1220547,13.1196 31.8675234,13.3469226 L32.3006484,12.914729 C32.5530703,12.6846 32.9201016,12.3267774 33.2414297,11.6595435 C33.1788516,11.8110919 33.1760391,11.9780758 33.2329922,12.1324306 C33.2941641,12.2945032 33.4143984,12.4236 33.5718984,12.4958661 C33.6590859,12.5365597 33.7511953,12.5548016 33.8411953,12.5548016 C34.0879922,12.5548016 34.3249453,12.414479 34.4339297,12.1766323 C34.5822891,11.8510839 34.4388516,11.4651968 34.1133047,11.3164548 C33.8004141,11.1733258 33.4298672,11.3010194 33.2695547,11.5999065 C33.5100234,11.0821161 33.7223672,10.3840113 33.8355703,9.42911613 C33.8271328,9.58136613 33.8714297,9.73080968 33.9642422,9.85429355 C34.0676016,9.9932129 34.2201797,10.0830194 34.3917422,10.1082774 C34.4233828,10.1124871 34.4543203,10.1145919 34.4859609,10.1145919 C34.6251797,10.1145919 34.7608828,10.0696887 34.8740859,9.98549516 C35.0126016,9.88165645 35.1033047,9.73010806 35.1279141,9.5582129 C35.1525234,9.38701935 35.1089297,9.21582581 35.0048672,9.07760806" id="Fill-1" fill="#FFFFFF" mask="url(#mask-2)"></path>
                    </g>
                    <g id="Group-6" transform="translate(0.000000, 46.862129)">
                        <mask id="mask-4" fill="white">
                            <use xlink:href="#path-3"></use>
                        </mask>
                        <g id="Clip-5"></g>
                        <path d="M10.035,4.47622016 L10.035,0.552099194 L9.46828125,0.552099194 L9.46828125,4.50498629 C9.46828125,5.22905081 9.26507813,5.80437339 8.859375,6.23025242 C8.45296875,6.65683306 7.90945313,6.870825 7.22882813,6.870825 C6.54890625,6.870825 6.00539063,6.65683306 5.59828125,6.23025242 C5.191875,5.80437339 4.989375,5.22905081 4.989375,4.50498629 L4.989375,0.552099194 L4.43742188,0.552099194 L4.43742188,4.47622016 C4.43742188,5.38691371 4.68914063,6.10747016 5.191875,6.63859113 C5.6953125,7.1697121 6.37453125,7.43492177 7.22882813,7.43492177 C8.08664063,7.43492177 8.76867188,7.16901048 9.275625,6.63648629 C9.781875,6.1039621 10.035,5.38340565 10.035,4.47622016 Z M64.8822656,18.3337766 L64.8822656,15.9272444 L68.9575781,15.9272444 L68.9575781,14.3198492 L64.8822656,14.3198492 L64.8822656,11.9904944 L69.075,11.9904944 L69.075,10.4027444 L63.1610156,10.4027444 L63.1610156,19.9348573 L69.2114062,19.9348573 L69.2114062,18.3337766 L64.8822656,18.3337766 Z M60.0194531,16.428196 C60.0194531,17.0350911 59.8078125,17.5093815 59.371875,17.8777282 C58.9317188,18.2495831 58.3354688,18.4376153 57.6007031,18.4376153 C57.1619531,18.4376153 56.7675,18.3646476 56.4264844,18.2208169 C56.0896875,18.0783895 55.794375,17.8601879 55.5489844,17.5725266 C55.423125,17.4202766 55.3310156,17.2357524 55.2761719,17.0245669 C55.2178125,16.8000508 55.1889844,16.4029379 55.1889844,15.8423492 L55.1889844,10.4027444 L53.4607031,10.4027444 L53.4607031,15.8942685 C53.4607031,16.6407847 53.510625,17.1831315 53.6146875,17.5535831 C53.7208594,17.9282444 53.9029688,18.2720347 54.1532812,18.5730266 C54.5554688,19.0704702 55.0567969,19.4535508 55.6425,19.7117444 C56.2232812,19.9678331 56.8828125,20.0976315 57.6007031,20.0976315 C58.8185156,20.0976315 59.8225781,19.7608573 60.5854688,19.0978331 C61.3560937,18.4270911 61.7477344,17.5423573 61.7477344,16.4667847 L61.7477344,10.4027444 L60.0194531,10.4027444 L60.0194531,16.428196 Z M50.495625,16.4232847 C50.3317969,16.8154863 50.0941406,17.1690992 49.7875781,17.4743008 C49.4704688,17.7949379 49.1111719,18.0405024 48.7202344,18.2039782 C47.9510156,18.5260185 47.0390625,18.5400508 46.2283594,18.1948573 C45.826875,18.0243653 45.4696875,17.7816073 45.1645313,17.4728976 C44.859375,17.1690992 44.623125,16.8161879 44.4614063,16.4239863 C44.2989844,16.0317847 44.2167188,15.6129218 44.2167188,15.1786234 C44.2167188,14.7401153 44.2989844,14.3163411 44.4614063,13.9192282 C44.623125,13.5242202 44.8586719,13.1748169 45.1624219,12.8801395 C45.4802344,12.5707282 45.8430469,12.3293734 46.2396094,12.1630911 C46.6354688,11.9968089 47.0496094,11.9126153 47.4700781,11.9126153 C47.908125,11.9126153 48.33,11.9961073 48.72375,12.1595831 C49.1167969,12.3237605 49.4697656,12.5644137 49.7749219,12.8766315 C50.0934375,13.1986718 50.3360156,13.557196 50.4991406,13.9437847 C50.6608594,14.3303734 50.7424219,14.7457282 50.7424219,15.1786234 C50.7424219,15.6129218 50.6594531,16.0310831 50.495625,16.4232847 Z M51.5025,18.1759137 C52.205625,17.3353815 52.5621094,16.3404944 52.5621094,15.2179137 C52.5621094,14.5331395 52.43625,13.8876556 52.1866406,13.2990024 C51.9377344,12.7117524 51.5622656,12.1715105 51.0700781,11.6944137 C50.5989844,11.233454 50.0477344,10.8756315 49.4310938,10.6300669 C48.2111719,10.1438492 46.7690625,10.1354298 45.5385938,10.6265589 C44.9289844,10.8700185 44.3742187,11.2285427 43.8911719,11.6930105 C43.4165625,12.1490589 43.0446094,12.6822847 42.7865625,13.277954 C42.5285156,13.8750266 42.3970312,14.4994621 42.3970312,15.1330185 C42.3970312,16.2920831 42.7492969,17.3227524 43.4453906,18.1948573 C44.1316406,19.0557363 45.0513281,19.6352685 46.1784375,19.9187202 C47.0102344,20.5073734 47.8082813,20.9627202 48.5507812,21.2714298 C49.3150781,21.5892605 50.0175,21.7499298 50.6390625,21.7499298 C50.7269531,21.7499298 50.7916406,21.7485266 50.8338281,21.7464218 C50.8823438,21.7436153 50.9336719,21.7373008 50.9871094,21.726075 L51.0433594,21.7155508 L52.4390625,20.5059702 L52.2682031,20.0597444 L52.0903125,20.094825 C51.9180469,20.1278008 51.7598438,20.1530589 51.6157031,20.1698976 C51.474375,20.1860347 51.3442969,20.194454 51.2254688,20.194454 C50.8598438,20.194454 50.4710156,20.1425347 50.0702344,20.038696 C49.8051563,19.9706395 49.5119531,19.8731153 49.190625,19.7482282 C50.1398438,19.4030347 50.9153906,18.8761234 51.5025,18.1759137 Z M39.7061719,14.3240589 L39.5142187,14.2089944 C38.2007812,13.3923169 38.0046094,12.9208331 38.0046094,12.7131556 C38.0046094,12.4640831 38.1044531,12.264825 38.3097656,12.1048573 C38.7175781,11.7870266 39.4396875,11.7610669 40.1097656,12.0480266 C40.4296875,12.1848411 40.7854687,12.4100589 41.1686719,12.7180669 L41.5188281,12.9987121 L41.5188281,10.9528089 L41.4161719,10.8903653 C41.0526562,10.6686556 40.6884375,10.5023734 40.3319531,10.3957282 C39.9719531,10.2883815 39.6014063,10.2343573 39.2301563,10.2343573 C38.3878125,10.2343573 37.6867969,10.481325 37.1460937,10.968946 C36.5990625,11.4628815 36.3220313,12.1020508 36.3220313,12.8689137 C36.3220313,13.4161718 36.4689844,13.896075 36.7572656,14.2959944 C37.0385156,14.6853895 37.6917187,15.2080911 38.7569531,15.8935669 C39.5557031,16.3994298 39.8538281,16.6716556 39.9635156,16.8119782 C40.1104688,16.997204 40.1821875,17.2076879 40.1821875,17.4560589 C40.1821875,17.7500347 40.0795313,17.9752524 39.8707031,18.1443411 C39.650625,18.3218492 39.3363281,18.4116556 38.93625,18.4116556 C38.5502344,18.4116556 38.1803906,18.3162363 37.8386719,18.1268008 C37.4857031,17.9317524 37.1067187,17.6033976 36.7122656,17.1515589 L36.3346875,16.7193653 L36.3346875,19.1111637 L36.4127344,19.1757121 C36.7959375,19.4942444 37.2023437,19.7306879 37.62,19.877325 C38.0369531,20.0232605 38.5080469,20.0976315 39.0220312,20.0976315 C39.8594531,20.0976315 40.5590625,19.8506637 41.1025781,19.3623411 C41.6517188,18.8684056 41.9294531,18.2355508 41.9294531,17.4820185 C41.9294531,16.8309218 41.7817969,16.2738411 41.4907031,15.8262121 C41.2010156,15.3806879 40.618125,14.8902605 39.7061719,14.3240589 Z M33.7809375,16.4232847 C33.6171094,16.8154863 33.3794531,17.1690992 33.0735937,17.4743008 C32.765625,17.7858169 32.41125,18.0243653 32.0210156,18.1843331 C31.2489844,18.4993573 30.3089062,18.5105831 29.4982031,18.1773169 C29.0988281,18.0138411 28.7472656,17.7773976 28.4498437,17.4728976 C28.1453906,17.1690992 27.9091406,16.8161879 27.7467187,16.4239863 C27.585,16.0317847 27.5027344,15.6129218 27.5027344,15.1786234 C27.5027344,14.7401153 27.585,14.3163411 27.7467187,13.9192282 C27.9091406,13.5242202 28.1446875,13.1748169 28.4477344,12.8801395 C28.76625,12.5707282 29.1283594,12.3293734 29.525625,12.1630911 C29.9207813,11.9968089 30.3349219,11.9126153 30.7560937,11.9126153 C31.1941406,11.9126153 31.6153125,11.9961073 32.0097656,12.1595831 C32.4028125,12.3237605 32.7550781,12.5644137 33.0602344,12.8766315 C33.37875,13.1986718 33.6220312,13.557196 33.7844531,13.9437847 C33.946875,14.3303734 34.0284375,14.7457282 34.0284375,15.1786234 C34.0284375,15.6129218 33.9454687,16.0310831 33.7809375,16.4232847 Z M34.3560937,11.6944137 C33.885,11.233454 33.33375,10.8756315 32.7171094,10.6300669 C31.4964844,10.1438492 30.0550781,10.1354298 28.8246094,10.6265589 C28.2142969,10.8700185 27.6595313,11.2285427 27.1771875,11.6930105 C26.701875,12.1490589 26.330625,12.6822847 26.0725781,13.277954 C25.8138281,13.8750266 25.6830469,14.4994621 25.6830469,15.1330185 C25.6830469,15.8093734 25.8110156,16.4548573 26.0613281,17.0512282 C26.3130469,17.6475992 26.6885156,18.1906476 27.1764844,18.6635347 C27.6461719,19.1195831 28.1967188,19.4760024 28.8140625,19.7243734 C29.4307031,19.9713411 30.0846094,20.0976315 30.7560937,20.0976315 C31.4451563,20.0976315 32.1032813,19.9748492 32.7100781,19.734196 C33.3175781,19.4928411 33.8751562,19.1336153 34.3673437,18.6649379 C34.8377344,18.2130992 35.2061719,17.6826798 35.4621094,17.0884137 C35.7180469,16.493446 35.848125,15.8640992 35.848125,15.2179137 C35.848125,14.5331395 35.7215625,13.8876556 35.4726562,13.2990024 C35.2230469,12.7117524 34.8475781,12.1715105 34.3560937,11.6944137 Z M22.7946094,17.8826395 C22.5126563,18.0980347 22.0429688,18.2060831 21.3989062,18.2060831 L19.7121094,18.2060831 L19.7121094,15.5392524 L21.1696875,15.5392524 C21.8925,15.5392524 22.4219531,15.6543169 22.7432813,15.8809379 C23.0463281,16.0956315 23.1925781,16.4288976 23.1925781,16.9010831 C23.1925781,17.3578331 23.0625,17.6791718 22.7946094,17.8826395 Z M19.7121094,11.2362605 L20.8617188,11.2362605 C21.4192969,11.2362605 21.8228906,11.3330831 22.06125,11.5246234 C22.2883594,11.7070427 22.39875,12.0024218 22.39875,12.4275992 C22.39875,12.8969782 22.2546094,13.2330508 21.9564844,13.4533573 C21.6435938,13.6855911 21.1408594,13.8034621 20.4616406,13.8034621 L19.7121094,13.8034621 L19.7121094,11.2362605 Z M23.2396875,14.3738734 C23.5279687,14.2026798 23.7607031,13.9943008 23.934375,13.7501395 C24.2022656,13.3726718 24.3386719,12.8983815 24.3386719,12.3413008 C24.3386719,11.4467444 24.0398437,10.7430266 23.4499219,10.2497927 C22.87125,9.76708306 22.0485938,9.52222016 21.0058594,9.52222016 L17.8657031,9.52222016 L17.8657031,19.9348573 L21.5486719,19.9348573 C22.6342969,19.9348573 23.5110938,19.6703492 24.1551562,19.1483492 C24.8132812,18.6151234 25.1465625,17.8931637 25.1465625,17.0014137 C25.1465625,16.3040105 24.9278906,15.701325 24.4954687,15.2108976 C24.17625,14.8481637 23.7550781,14.5675185 23.2396875,14.3738734 Z M9.55898438,10.4027444 L7.83703125,10.4027444 L7.83703125,19.9348573 L13.9014844,19.9348573 L13.9014844,18.3337766 L9.55898438,18.3337766 L9.55898438,10.4027444 Z M1.84640625,15.5392524 L6.31546875,15.5392524 L6.31546875,13.8174944 L1.84640625,13.8174944 L1.84640625,11.2222282 L6.44484375,11.2222282 L6.44484375,9.52222016 L0,9.52222016 L0,19.9348573 L6.59390625,19.9348573 L6.59390625,18.2208169 L1.84640625,18.2208169 L1.84640625,15.5392524 Z M62.4832031,6.42179274 C62.2040625,6.48634113 61.8714844,6.51861532 61.4840625,6.51861532 L60.0616406,6.51861532 L60.0616406,1.48103468 L61.4840625,1.48103468 C61.8714844,1.48103468 62.2040625,1.51260726 62.4832031,1.57575242 C62.7616406,1.63889758 63.0028125,1.73922823 63.2046094,1.87604274 C63.5322656,2.09424435 63.7896094,2.39172823 63.9766406,2.76779274 C64.1629688,3.14455887 64.2557813,3.55500242 64.2557813,3.999825 C64.2557813,4.44464758 64.1629688,4.85509113 63.9766406,5.22975242 C63.7896094,5.60441371 63.5322656,5.90119597 63.2046094,6.11939758 C63.0028125,6.25691371 62.7616406,6.35724435 62.4832031,6.42179274 Z M64.4639063,5.34481694 C64.670625,4.92384919 64.7739844,4.4727121 64.7739844,3.99140565 C64.7739844,3.50729274 64.670625,3.05475242 64.4639063,2.63378468 C64.2578906,2.21211532 63.9703125,1.86481694 63.6004688,1.59048629 C63.3473438,1.4059621 63.0632813,1.27055081 62.7482813,1.18565565 C62.431875,1.10005887 62.0507813,1.05726048 61.6021875,1.05726048 L59.5610156,1.05726048 L59.5610156,6.92976048 L61.6021875,6.92976048 C62.0423438,6.92976048 62.4220313,6.88626048 62.7419531,6.7999621 C63.0611719,6.7129621 63.3473438,6.57544597 63.6004688,6.38811532 C63.9703125,6.11378468 64.2578906,5.76648629 64.4639063,5.34481694 Z M55.5314063,1.82131694 L56.6592188,4.48674435 L54.4000781,4.48674435 L55.5314063,1.82131694 Z M56.8230469,4.88526048 L57.6935156,6.92976048 L58.1899219,6.92976048 L55.6242188,1.00674435 L55.434375,1.00674435 L52.8686719,6.92976048 L53.3692969,6.92976048 L54.2355469,4.88526048 L56.8230469,4.88526048 Z M47.2317188,6.51861532 L47.2317188,1.48103468 L48.6541406,1.48103468 C49.0408594,1.48103468 49.3734375,1.51260726 49.6532813,1.57575242 C49.9317188,1.63889758 50.1721875,1.73922823 50.3739844,1.87604274 C50.7023438,2.09424435 50.9596875,2.39172823 51.1460156,2.76779274 C51.3323437,3.14455887 51.4258594,3.55500242 51.4258594,3.999825 C51.4258594,4.44464758 51.3323437,4.85509113 51.1460156,5.22975242 C50.9596875,5.60441371 50.7023438,5.90119597 50.3739844,6.11939758 C50.1721875,6.25691371 49.9317188,6.35724435 49.6532813,6.42179274 C49.3734375,6.48634113 49.0408594,6.51861532 48.6541406,6.51861532 L47.2317188,6.51861532 Z M49.9113281,6.7999621 C50.23125,6.7129621 50.5174219,6.57544597 50.7698437,6.38811532 C51.1396875,6.11378468 51.4279688,5.76648629 51.6339844,5.34481694 C51.84,4.92384919 51.9433594,4.4727121 51.9433594,3.99140565 C51.9433594,3.50729274 51.84,3.05475242 51.6339844,2.63378468 C51.4279688,2.21211532 51.1396875,1.86481694 50.7698437,1.59048629 C50.5174219,1.4059621 50.2333594,1.27055081 49.9183594,1.18565565 C49.6019531,1.10005887 49.2201563,1.05726048 48.7715625,1.05726048 L46.7310938,1.05726048 L46.7310938,6.92976048 L48.7715625,6.92976048 C49.2117188,6.92976048 49.5921094,6.88626048 49.9113281,6.7999621 Z M43.9045313,6.92976048 L44.4135938,6.92976048 L44.4135938,1.05726048 L43.9045313,1.05726048 L43.9045313,6.92976048 Z M41.6116406,4.37729274 C41.4288281,4.17312339 41.0667187,3.96053468 40.5217969,3.73952661 C40.4655469,3.717075 40.4240625,3.70023629 40.3959375,3.68901048 C39.9135937,3.48484113 39.5992969,3.30172016 39.45375,3.13964758 C39.3082031,2.97687339 39.2350781,2.76709113 39.2350781,2.50959919 C39.2350781,2.19387339 39.3482812,1.93147016 39.5760938,1.72309113 C39.8032031,1.51401048 40.0942969,1.41017177 40.4507812,1.41017177 C40.6666406,1.41017177 40.8846094,1.4494621 41.1046875,1.52734113 C41.3247656,1.60592177 41.5567969,1.72800242 41.8014844,1.89288145 L41.8014844,1.368075 C41.5792969,1.23617177 41.3592188,1.13934919 41.1405469,1.07620403 C40.921875,1.01305887 40.696875,0.982187903 40.4676563,0.982187903 C39.96,0.982187903 39.5486719,1.12672016 39.2329688,1.41648629 C38.9172656,1.70555081 38.7597656,2.07880887 38.7597656,2.53485726 C38.7597656,2.90180081 38.863125,3.20279274 39.07125,3.43923629 C39.2786719,3.67567984 39.6639844,3.91001855 40.2271875,4.14225242 C40.7721094,4.369575 41.1201563,4.56672823 41.2734375,4.73651855 C41.4260156,4.90560726 41.5026562,5.12310726 41.5026562,5.38901855 C41.5026562,5.75034919 41.3901562,6.03590565 41.1651563,6.24498629 C40.9415625,6.45547016 40.6371094,6.56001048 40.2532031,6.56001048 C40.0197656,6.56001048 39.78,6.50809113 39.5310938,6.40284919 C39.2835938,6.29760726 39.020625,6.13763952 38.7428906,5.92224435 L38.7428906,6.49335726 C38.9974219,6.66665565 39.25125,6.79715565 39.5022656,6.88345403 C39.7532813,6.97045403 40.0064062,7.01395403 40.2609375,7.01395403 C40.7692969,7.01395403 41.1855469,6.86310726 41.5110938,6.56211532 C41.8366406,6.261825 41.9983594,5.87734113 41.9983594,5.41006694 C41.9983594,5.21151048 41.9653125,5.02417984 41.8992187,4.84737339 C41.8345312,4.67126855 41.7382031,4.51480887 41.6116406,4.37729274 Z M35.06625,3.67217177 C34.8925781,3.69462339 34.5810938,3.70584919 34.1317969,3.70584919 L33.7703906,3.70584919 L33.7703906,1.45156694 L34.7547656,1.45156694 C35.2005469,1.45156694 35.5450781,1.54558306 35.7876562,1.73291371 C36.0302344,1.92024435 36.151875,2.18475242 36.151875,2.5264379 C36.151875,2.77831694 36.0970313,2.98950242 35.9894531,3.16069597 C35.881875,3.3311879 35.7194531,3.46379274 35.5035938,3.5592121 C35.3861719,3.61253468 35.240625,3.64972016 35.06625,3.67217177 Z M37.6910156,6.92976048 L36.0710156,4.45306694 C36.0014063,4.34992984 35.9226562,4.25731694 35.8354688,4.17592984 C35.7489844,4.09524435 35.6526562,4.02367984 35.5457813,3.9619379 C35.92125,3.8419621 36.2025,3.66234919 36.3888281,3.42450242 C36.5758594,3.18735726 36.6686719,2.88776855 36.6686719,2.5264379 C36.6686719,2.05355081 36.5020313,1.69081694 36.1680469,1.43683306 C35.8340625,1.18425242 35.3552344,1.05726048 34.7294531,1.05726048 L33.2992969,1.05726048 L33.2992969,6.92976048 L33.7703906,6.92976048 L33.7703906,4.10927661 L34.2541406,4.10927661 C34.5853125,4.10927661 34.835625,4.130325 35.0071875,4.173825 C35.17875,4.217325 35.3158594,4.29099435 35.4199219,4.39413145 C35.4979687,4.4727121 35.6041406,4.60391371 35.7391406,4.78703468 C35.8734375,4.97015565 36.03375,5.20309113 36.2186719,5.48584113 L37.1566406,6.92976048 L37.6910156,6.92976048 Z M31.4022656,6.53545403 L28.6178906,6.53545403 L28.6178906,4.14225242 L31.246875,4.14225242 L31.246875,3.76478468 L28.6178906,3.76478468 L28.6178906,1.43542984 L31.3347656,1.43542984 L31.3347656,1.05726048 L28.1467969,1.05726048 L28.1467969,6.92976048 L31.4022656,6.92976048 L31.4022656,6.53545403 Z M24.2514844,7.03430081 L26.74125,1.05726048 L26.240625,1.05726048 L24.2085937,5.98538952 L22.1941406,1.05726048 L21.6766406,1.05726048 L24.1748437,7.03430081 L24.2514844,7.03430081 Z M19.7289844,6.92976048 L20.2380469,6.92976048 L20.2380469,1.05726048 L19.7289844,1.05726048 L19.7289844,6.92976048 Z M16.948125,6.18254274 L12.6407813,1.05726048 L12.1485937,1.05726048 L12.1485937,6.92976048 L12.6196875,6.92976048 L12.6196875,1.73712339 L16.981875,6.92976048 L17.4192188,6.92976048 L17.4192188,1.05726048 L16.948125,1.05726048 L16.948125,6.18254274 Z" id="Fill-4" fill="#FFFFFF" mask="url(#mask-4)"></path>
                    </g>
                </g>
            </g>
        </g>
    </g>
</svg>