<?xml version="1.0" encoding="UTF-8"?>
<svg width="356px" height="188px" viewBox="0 0 356 188" version="1.1" xmlns="http://www.w3.org/2000/svg" xmlns:xlink="http://www.w3.org/1999/xlink">
    <!-- Generator: Sketch 50.2 (55047) - http://www.bohemiancoding.com/sketch -->
    <title>Group</title>
    <desc>Created with Sketch.</desc>
    <defs></defs>
    <g id="Islas-black" stroke="none" stroke-width="1" fill="none" fill-rule="evenodd">
        <g id="Factores-home-black" transform="translate(-1031.000000, -626.000000)" stroke="#E63A66" stroke-width="2.179">
            <g id="Group" transform="translate(1032.000000, 627.000000)">
                <path d="M125.5166,97.3757 C126.8666,96.8887 128.2356,96.4517 129.6166,96.0667" id="Stroke-1"></path>
                <path d="M129.6162,96.0666 C147.1752,115.2346 144.7202,141.0436 159.7572,160.8816 C164.0712,166.5766 170.5732,168.9036 175.5502,173.4946 C179.8502,177.4646 179.3872,185.9976 188.2762,185.5716 C199.2472,185.0476 209.4832,181.0266 220.4772,180.5696 C238.5382,179.8196 289.3212,193.6606 269.4752,165.9416 C263.4362,157.5096 256.9752,150.1626 255.8642,138.7836 C254.7312,127.1676 267.1612,136.0846 273.2702,136.8706 C281.9502,137.9876 285.7182,134.1696 289.3352,127.0186 C295.8252,114.1736 291.4772,103.8856 288.1022,92.0106 C284.7762,80.3356 279.8192,69.2936 275.9402,57.8396 C273.6782,51.1486 264.2022,46.0696 271.4972,37.3856 C277.2552,30.5306 276.3862,44.8716 278.2862,48.9726 C283.5072,60.2386 289.2142,71.1276 296.1202,81.4936 C315.1372,110.0466 322.8602,60.2586 328.1222,41.1946 C330.2002,33.6636 329.7142,25.8826 331.5402,18.3376 C333.3312,10.9096 333.7162,3.9056 343.6022,2.9466 C348.9752,2.4236 355.2642,3.0436 352.4382,9.6446 C348.6162,18.5956 342.9342,7.4696 338.4622,5.1956" id="Stroke-3"></path>
                <path d="M334.6846,3.5203 C307.2026,-6.7427 313.6746,7.3693 308.8386,27.9683 C305.1226,43.8273 300.8776,58.0903 289.2706,70.7423" id="Stroke-5"></path>
                <path d="M162.4619,85.8625 C152.1709,88.1035 142.8229,87.7405 132.7329,84.7445" id="Stroke-7"></path>
                <path d="M48.8994,25.6038 C41.7924,19.8028 34.4674,14.7268 26.0304,10.9278 C19.0034,7.7678 -10.8486,1.8818 4.3424,3.5138 C24.1904,5.6358 39.0204,9.8858 50.6864,28.2358 C60.0854,43.0218 63.2294,60.7468 81.4264,70.6168 C89.7544,75.1358 90.5754,85.2668 99.5164,89.3718 C107.8994,93.2218 116.6294,95.3418 125.5164,97.3758" id="Stroke-9"></path>
                <path d="M54.1963,34.5813 C88.6713,47.6783 106.7373,82.9693 147.2493,88.8603" id="Stroke-11"></path>
                <path d="M295.8916,81.1438 C308.3326,63.4538 317.8836,44.0428 330.4506,26.4218" id="Stroke-13"></path>
                <path d="M36.5928,13.8606 C41.0748,15.8086 45.1948,18.2486 49.2138,20.9936" id="Stroke-15"></path>
                <path d="M144.4561,88.3782 C150.4091,88.5942 156.0611,87.6892 161.8021,86.3672" id="Stroke-17"></path>
                <path d="M310.8252,17.2678 C317.8602,9.9258 323.7962,3.6298 335.3392,3.5648" id="Stroke-19"></path>
                <path d="M182.5518,62.5916 C202.8388,32.9556 223.1218,-18.0864 260.5288,23.6766" id="Stroke-21"></path>
                <path d="M271.5049,37.3777 C272.7019,38.9837 273.8899,40.5987 275.0679,42.2157" id="Stroke-23"></path>
                <path d="M61.6768,54.0842 C93.1198,62.8372 110.8918,95.7872 150.2398,91.8152" id="Stroke-25"></path>
                <path d="M289.8975,98.9861 C295.4775,100.3241 299.3405,98.8151 303.7395,95.6301" id="Stroke-27"></path>
                <path d="M308.1221,91.8748 C310.0151,90.0168 311.7551,88.0328 313.4331,85.9768" id="Stroke-29"></path>
                <path d="M150.5654,142.9509 C173.3664,139.5579 193.1434,127.5739 216.0534,124.4369 C240.1244,121.1469 260.8564,127.2829 282.8424,134.4679" id="Stroke-31"></path>
                <path d="M133.9678,101.3948 C168.0128,104.7158 182.4088,79.0298 205.6438,65.6908 C236.0768,48.2218 256.6928,59.3738 282.4718,75.1438" id="Stroke-33"></path>
                <path d="M7.1475,3.9207 C18.1595,5.6707 27.1435,10.1677 36.1415,16.3587" id="Stroke-35"></path>
                <path d="M180.8721,182.592 C212.2001,171.566 241.9811,169.342 274.6731,173.514" id="Stroke-37"></path>
                <path d="M58.6689,45.4675 C93.0709,56.4245 110.8309,95.4855 155.9639,89.5955" id="Stroke-39"></path>
                <path d="M302.8232,90.0188 C310.5052,79.6218 316.8112,68.4448 323.3802,57.3808" id="Stroke-41"></path>
                <path d="M47.8857,24.259 C64.8267,31.716 77.2427,43.941 90.6997,55.605" id="Stroke-43"></path>
                <path d="M304.2666,46.1775 C313.9556,31.5405 321.1886,16.1385 337.4966,6.1135" id="Stroke-45"></path>
                <path d="M87.3135,79.3577 C132.2065,91.2777 145.8315,110.9847 183.6985,66.2757 C210.1845,35.0057 233.9675,13.2347 272.2505,45.1127" id="Stroke-47"></path>
                <path d="M68.0459,62.5081 C92.0339,68.9661 110.2959,85.9231 134.2409,92.4531" id="Stroke-49"></path>
                <path d="M278.0088,63.6448 C283.8658,72.1428 289.0338,80.3318 298.8838,85.4618" id="Stroke-51"></path>
                <path d="M164.2236,165.8098 C196.5906,156.2038 226.5596,146.4958 262.0346,154.0078" id="Stroke-53"></path>
                <path d="M143.0908,119.9968 C171.1008,118.9318 190.7508,99.9888 216.6108,94.8898 C245.4618,89.2018 267.3018,99.8238 291.7488,110.3568" id="Stroke-55"></path>
                <path d="M20.0498,6.2849 C20.5458,6.4139 21.0398,6.5479 21.5298,6.6929" id="Stroke-57"></path>
                <path d="M312.3545,4.9412 C319.3335,1.4162 325.3795,0.4552 333.0105,2.9132" id="Stroke-59"></path>
                <path d="M4.5029,3.4875 C10.3409,3.9025 15.9479,4.9475 21.5359,6.6755" id="Stroke-61"></path>
                <path d="M24.8467,7.7874 C33.7237,11.0014 41.5887,15.5454 49.2397,20.9624" id="Stroke-63"></path>
                <path d="M52.3818,23.2395 C62.4148,30.6915 71.6978,38.9685 81.0708,47.1945" id="Stroke-65"></path>
                <path d="M90.7041,55.6028 C92.4621,57.1168 94.2311,58.6218 96.0071,60.1148 C97.7001,61.5328 99.3991,62.9358 101.1121,64.3208 C104.1081,66.7458 107.1451,69.1148 110.2531,71.3938 C115.3861,75.1548 120.7101,78.6658 126.3391,81.6428" id="Stroke-67"></path>
                <path d="M147.2471,88.8625 C150.3801,89.3285 153.4721,89.4605 156.6321,89.2585" id="Stroke-69"></path>
                <path d="M130.6396,91.6086 C159.1376,99.3506 169.1436,82.1896 182.5516,62.5916" id="Stroke-71"></path>
                <path d="M195.9482,41.9729 C211.7642,17.1739 228.8622,-8.5981 256.5912,19.4959" id="Stroke-73"></path>
                <path d="M260.5322,23.6721 C264.5652,28.1691 268.4642,32.7671 272.2432,37.4751" id="Stroke-75"></path>
                <path d="M309.3096,91.3372 C303.4716,95.9982 297.6706,100.5262 290.9016,103.9132" id="Stroke-77"></path>
                <path d="M334.04,3.511 C333.528,3.421 334.558,3.518 334.815,3.518" id="Stroke-79"></path>
                <path d="M335.3389,3.5178 C338.0519,3.4948 340.7449,3.2708 343.4329,2.9678" id="Stroke-81"></path>
            </g>
        </g>
    </g>
</svg>