<?xml version="1.0" encoding="UTF-8"?>
<svg width="270px" height="235px" viewBox="0 0 270 235" version="1.1" xmlns="http://www.w3.org/2000/svg" xmlns:xlink="http://www.w3.org/1999/xlink">
    <!-- Generator: Sketch 50.2 (55047) - http://www.bohemiancoding.com/sketch -->
    <title>Group</title>
    <desc>Created with Sketch.</desc>
    <defs></defs>
    <g id="Islas-black" stroke="none" stroke-width="1" fill="none" fill-rule="evenodd">
        <g id="Factores-home-black" transform="translate(-812.000000, -122.000000)" stroke="#E63A66" stroke-width="2.179">
            <g id="Group" transform="translate(812.000000, 123.000000)">
                <path d="M78.4736,65.4082 C70.2896,71.0062 62.3896,76.6152 55.7826,84.2452 C49.4776,91.5262 51.6686,103.3542 39.8716,107.8792" id="Stroke-1"></path>
                <path d="M39.6689,107.9502 C36.4399,109.0902 33.2779,109.4892 29.8799,109.3772" id="Stroke-3"></path>
                <path d="M9.5088,100.8028 C-9.7392,86.3508 15.3308,123.9968 24.8158,133.4978 C31.2688,139.9608 36.3138,146.9418 40.1728,155.2508 C43.6568,162.7698 53.1358,165.8768 52.6108,176.5358 C51.7628,193.4718 24.7898,201.4548 38.8798,222.7138 C53.6688,245.0248 66.7408,221.6948 79.0298,210.6978 C92.1828,198.9268 104.3018,186.1178 117.1218,174.0198 C125.4448,166.1558 133.6788,158.3668 143.3468,152.0238 C149.5808,147.9428 153.5188,154.2538 158.8698,154.0878 C169.2258,153.7678 178.7628,141.2718 167.2708,138.4438 C151.1808,134.5018 176.5578,124.7598 186.1028,122.2488 C205.6318,117.1098 212.2378,147.1848 192.5868,151.8388" id="Stroke-5"></path>
                <path d="M168.8896,147.1846 C169.5356,144.6676 170.5266,142.2596 171.0656,139.7056" id="Stroke-7"></path>
                <path d="M173.3174,130.1123 C176.9634,117.5153 180.1924,104.8393 185.3604,92.6743 C188.0834,86.2723 193.1614,72.3293 198.6824,82.1943 C201.9114,87.9673 203.7394,94.3383 207.1354,100.0533 C213.7704,111.2513 220.7864,122.1653 228.4324,132.7093 C235.7314,142.7673 236.0924,156.5503 250.1964,162.9753" id="Stroke-9"></path>
                <path d="M250.1963,162.9756 C250.4053,163.1526 250.6143,163.3396 250.8413,163.5066" id="Stroke-11"></path>
                <path d="M250.7549,163.3653 C242.7119,155.0913 246.3659,143.9943 240.0029,135.3923 C237.3119,131.7473 239.4389,124.1523 242.9329,128.0703 C246.3289,131.8863 248.5339,136.4753 251.7689,140.3863" id="Stroke-13"></path>
                <path d="M251.7686,140.3819 C252.3256,140.0979 252.8726,139.8129 253.4226,139.5149" id="Stroke-15"></path>
                <path d="M253.4229,139.5147 C251.2489,135.2307 248.5499,131.2957 247.4069,126.4427 C245.7359,119.3467 254.3859,124.0397 257.6069,122.0637 C269.0829,115.0127 270.5089,107.3337 264.4659,95.6467 C256.8369,80.8997 252.7919,64.9237 239.0459,53.0327" id="Stroke-17"></path>
                <path d="M228.2529,44.9619 C227.8289,44.6459 227.4069,44.3389 226.9819,44.0329" id="Stroke-19"></path>
                <path d="M137.5693,0.5869 C128.9483,-0.5591 120.6203,0.5229 112.1453,1.3359" id="Stroke-21"></path>
                <path d="M112.1455,1.336 C113.4225,3.366 114.4955,5.467 115.4115,7.681" id="Stroke-23"></path>
                <path d="M115.4111,7.6807 C111.5871,9.9917 107.7411,11.9267 103.3781,13.0837" id="Stroke-25"></path>
                <path d="M103.2256,13.1221 C89.9986,16.4491 68.8956,45.9711 85.9096,36.5761" id="Stroke-27"></path>
                <path d="M85.9092,36.5762 C83.1942,40.3992 79.2202,45.4042 85.8352,47.1762" id="Stroke-29"></path>
                <path d="M85.833,47.1758 C82.173,52.5748 81.329,59.2088 76.601,64.2158" id="Stroke-31"></path>
                <path d="M76.6006,64.2158 C77.2276,64.6038 77.8546,65.0018 78.4736,65.4078" id="Stroke-33"></path>
                <path d="M80.2881,36.0401 C87.2721,27.6001 94.5711,19.7531 103.3781,13.0841" id="Stroke-35"></path>
                <path d="M114.6572,5.9961 C124.0072,1.3361 132.6042,-0.4409 143.0732,1.4191" id="Stroke-37"></path>
                <path d="M34.4658,145.0791 C73.5728,151.0761 112.2178,90.8411 131.8138,72.9011 C171.8288,36.2861 205.1118,45.7701 248.4408,65.4251" id="Stroke-39"></path>
                <path d="M28.6084,109.3018 C29.0304,109.3368 29.4564,109.3638 29.8794,109.3768" id="Stroke-41"></path>
                <path d="M39.6689,107.9502 C99.4869,89.1652 118.7669,-30.9678 207.2709,29.8422" id="Stroke-43"></path>
                <path d="M165.9307,136.8487 C177.7377,131.9857 189.5047,128.9157 202.3117,128.0517" id="Stroke-45"></path>
                <path d="M35.5127,213.3545 C113.6257,216.1555 126.7257,142.7295 178.5327,115.4615" id="Stroke-47"></path>
                <path d="M211.1279,106.9365 C228.8269,106.2655 245.8139,109.9125 263.1179,111.8795" id="Stroke-49"></path>
                <path d="M55.4404,229.711 C97.1704,209.048 132.2064,178.223 174.5084,158.339" id="Stroke-51"></path>
                <path d="M238.1631,155.4336 C241.6431,156.6406 245.0671,157.9706 248.4831,159.3406" id="Stroke-53"></path>
                <path d="M94.4326,196.1436 C128.8666,169.9246 156.7896,141.3056 206.9956,143.3346" id="Stroke-55"></path>
                <path d="M43.8037,230.7774 C49.9077,229.3994 55.8287,227.5824 61.6787,225.3824" id="Stroke-57"></path>
                <path d="M230.9814,137.2412 C234.7954,137.7072 238.5834,138.3382 242.3744,138.9752" id="Stroke-59"></path>
                <path d="M83.6572,51.5547 C108.6302,20.6697 126.8602,-10.7503 173.9972,10.6237" id="Stroke-61"></path>
                <path d="M45.1182,99.46 C52.7492,91.68 59.2642,83.086 65.8722,74.494" id="Stroke-63"></path>
                <path d="M52.1689,182.0069 C104.8489,174.2509 115.0559,128.8209 145.2329,100.7319 C184.3349,64.3379 219.8959,76.0869 263.0869,87.0269" id="Stroke-65"></path>
                <path d="M0.665,102.168 C55.46,144.385 80.544,93.86 113.942,60.231 C156.817,17.062 192.196,21.196 239.556,53.637" id="Stroke-67"></path>
                <path d="M9.5303,100.7783 C15.3783,105.1313 20.9133,108.6353 28.5913,109.3013" id="Stroke-69"></path>
                <path d="M137.5693,0.5869 C138.1413,0.6599 138.7143,0.7359 139.2863,0.8199" id="Stroke-71"></path>
                <path d="M143.0732,1.416 C151.9852,2.894 160.5202,5.234 168.9342,8.51" id="Stroke-73"></path>
                <path d="M173.9971,10.6201 C184.3821,15.2131 193.9601,20.9461 203.3741,27.2001" id="Stroke-75"></path>
                <path d="M207.2705,29.833 C213.9345,34.44 220.5045,39.163 226.9855,44.026" id="Stroke-77"></path>
                <path d="M228.2529,44.9698 C231.8489,47.6538 235.4439,50.3448 239.0459,53.0328" id="Stroke-79"></path>
                <path d="M250.71,163.4317 C249.435,162.7157 248.153,162.0137 246.858,161.3287" id="Stroke-81"></path>
                <path d="M192.5869,151.8242 C186.2959,153.3772 180.3369,155.5252 174.5009,158.3352" id="Stroke-83"></path>
                <path d="M165.0439,163.2442 C126.9809,185.1802 93.3879,213.7092 52.2919,231.3842" id="Stroke-85"></path>
            </g>
        </g>
    </g>
</svg>