<?xml version="1.0" encoding="UTF-8"?>
<svg width="307px" height="311px" viewBox="0 0 307 311" version="1.1" xmlns="http://www.w3.org/2000/svg" xmlns:xlink="http://www.w3.org/1999/xlink">
    <!-- Generator: Sketch 50.2 (55047) - http://www.bohemiancoding.com/sketch -->
    <title>Group</title>
    <desc>Created with Sketch.</desc>
    <defs></defs>
    <g id="Islas-black" stroke="none" stroke-width="1" fill="none" fill-rule="evenodd">
        <g id="Factores-home-black" transform="translate(-909.000000, -169.000000)" stroke="#E63A66" stroke-width="2.179">
            <g id="Group" transform="translate(910.000000, 170.000000)">
                <path d="M194.3857,222.2236 C201.7807,220.6556 210.7587,220.6066 207.9127,210.0996 C204.6217,197.9596 195.1567,207.3466 188.2257,209.5356" id="Stroke-1"></path>
                <path d="M188.2256,209.5361 C184.4876,207.8471 181.5386,206.6141 177.9856,209.9501" id="Stroke-3"></path>
                <path d="M177.9854,209.9502 C178.3724,215.4992 184.0464,215.3392 186.0424,219.1532" id="Stroke-5"></path>
                <path d="M186.042,219.1533 C180.692,223.4943 174.403,221.5933 168.845,224.0263" id="Stroke-7"></path>
                <path d="M168.8447,224.0263 C158.1127,235.8923 157.9367,245.2953 168.4617,257.4003" id="Stroke-9"></path>
                <path d="M168.4678,257.4004 C160.5698,265.4794 158.3138,276.1314 152.4388,285.0634" id="Stroke-11"></path>
                <path d="M152.4385,285.0634 C148.5595,285.5434 144.7215,286.1794 140.9055,286.9904" id="Stroke-13"></path>
                <path d="M110.0537,290.8369 C90.9087,294.0209 128.3247,284.6959 138.8487,286.6139 C151.0307,288.8219 162.9207,291.4759 175.5767,290.6679 C183.0697,290.1839 204.8387,278.5909 192.4127,281.5259 C185.2787,283.2129 180.2507,279.5059 183.7137,272.4129 C187.3347,264.9939 195.4837,271.8309 199.6607,265.5939" id="Stroke-15"></path>
                <path d="M199.6553,265.5937 C197.8273,261.2947 192.2943,263.8127 190.6863,259.1827" id="Stroke-17"></path>
                <path d="M190.6904,259.1826 C193.2544,252.6786 201.6804,248.2906 196.3424,239.2216 C192.9734,233.5006 188.6244,228.8716 194.3854,222.2236" id="Stroke-19"></path>
                <path d="M185.6201,176.9531 C197.0321,167.4641 200.5631,154.2571 207.5971,142.6181 C211.3331,136.4291 214.2961,130.8361 213.4891,123.0591 C212.8701,117.0571 206.0591,110.0181 215.1941,105.7431 C227.7611,99.8711 240.0151,95.7191 248.0911,82.4191 C253.7881,73.0271 252.1551,54.9231 269.9831,59.9771" id="Stroke-21"></path>
                <path d="M269.9834,59.9795 C265.6984,55.8585 261.3974,51.7645 257.0554,47.7095" id="Stroke-23"></path>
                <path d="M257.0557,47.706 C264.2487,52.427 291.4347,69.81 275.4637,64.781" id="Stroke-25"></path>
                <path d="M275.4678,64.7812 C279.0008,69.9652 289.7338,84.4012 289.2018,73.5522" id="Stroke-27"></path>
                <path d="M289.2021,73.5517 C292.0691,75.9477 294.9831,78.2937 297.9421,80.5887" id="Stroke-29"></path>
                <path d="M297.9424,80.5888 C300.7334,76.5698 302.4994,72.1768 304.2824,67.7048" id="Stroke-31"></path>
                <path d="M304.2822,67.7031 C286.1182,68.2531 302.0322,49.7341 303.5832,40.4551 C305.5482,28.6411 303.8452,17.2671 303.0342,5.6671 C301.8152,-11.9019 289.5942,16.8861 285.5572,25.4781 C280.1752,36.9721 268.6752,40.1901 261.1782,48.6241" id="Stroke-33"></path>
                <path d="M227.6631,22.123 C211.9811,13.704 203.2061,45.96 199.5831,55.348 C193.7391,70.46 196.9641,85.688 194.3681,100.753 C188.2881,135.926 158.9311,150.23 142.8131,176.116" id="Stroke-35"></path>
                <path d="M137.71,182.9209 C137.112,183.5149 136.481,184.0319 135.776,184.4889" id="Stroke-37"></path>
                <path d="M135.7236,184.4492 C136.1646,184.9942 136.6196,185.5372 137.0756,186.0802" id="Stroke-39"></path>
                <path d="M137.0713,186.0761 C143.3543,187.5451 136.4153,179.7021 134.3153,176.8021" id="Stroke-41"></path>
                <path d="M137.8818,172.2695 C133.3658,168.6355 128.7628,165.1275 124.0708,161.7245" id="Stroke-43"></path>
                <path d="M121.708,160.1416 C116.401,156.7516 109.38,153.9356 108.915,162.3616" id="Stroke-45"></path>
                <path d="M108.9209,162.3613 C94.1069,146.7933 85.4719,163.2803 78.2349,176.7913" id="Stroke-47"></path>
                <path d="M78.1455,176.9648 C65.3095,201.0078 59.3235,222.8658 64.6255,250.5818" id="Stroke-49"></path>
                <path d="M65.5322,263.0625 C65.4172,265.6515 65.2272,268.2365 64.9562,270.8165" id="Stroke-51"></path>
                <path d="M43.5283,307.1972 C21.6413,310.8682 10.4733,303.6282 1.1163,284.1762 C-6.4897,268.3882 30.4643,257.0832 36.6553,250.2042" id="Stroke-53"></path>
                <path d="M36.6592,250.2041 C45.4812,253.9211 52.7102,255.6301 61.9012,250.6841" id="Stroke-55"></path>
                <path d="M58.8057,248.125 C54.4447,246.343 50.0207,244.725 45.5717,243.169" id="Stroke-57"></path>
                <path d="M44.5205,242.7998 C69.4835,253.7488 82.5475,272.3848 96.3115,293.6888" id="Stroke-59"></path>
                <path d="M96.3115,293.6855 C118.0755,300.7895 95.9345,270.7445 86.1185,260.8995" id="Stroke-61"></path>
                <path d="M86.1143,260.9023 C91.2213,263.4643 112.4213,271.6943 101.8023,267.6033" id="Stroke-63"></path>
                <path d="M94.2275,265.1201 C92.4465,264.7071 90.6555,264.3661 88.8325,264.1141" id="Stroke-65"></path>
                <path d="M71.124,261.9619 C64.778,262.1489 60.372,263.9979 62.163,271.1499" id="Stroke-67"></path>
                <path d="M62.167,271.1494 C66.099,270.6454 70.026,270.2644 73.983,270.0294" id="Stroke-69"></path>
                <path d="M95.3369,270.5771 C100.1379,271.1491 104.8449,272.0441 109.5319,273.2071" id="Stroke-71"></path>
                <path d="M109.5264,273.2041 C112.1184,280.1101 102.7044,275.9081 98.8724,276.1591" id="Stroke-73"></path>
                <path d="M83.8076,279.0468 C74.3916,283.2988 86.2766,296.9348 94.3036,290.4578" id="Stroke-75"></path>
                <path d="M101.2139,285.7256 C127.0929,270.7536 114.2729,248.2976 116.3269,228.0606 C117.6629,214.9476 117.5849,200.6036 135.4409,204.2636 C154.9049,208.2546 135.9389,184.4536 133.8779,174.5076" id="Stroke-77"></path>
                <path d="M133.8779,174.5107 C138.7899,177.9657 143.7899,181.2727 148.8979,184.4407" id="Stroke-79"></path>
                <path d="M148.8975,184.4404 C150.1295,182.6304 150.1145,181.3164 148.2975,179.9554" id="Stroke-81"></path>
                <path d="M149.6963,180.9072 C159.9753,188.0012 157.2353,208.5432 176.6183,205.8862 C194.8313,203.3862 204.2213,184.6162 185.6203,176.9532" id="Stroke-83"></path>
                <path d="M136.0576,184.3007 C136.7726,184.6887 137.4936,185.0667 138.2176,185.4317" id="Stroke-85"></path>
                <path d="M159.4697,190.2841 C171.0337,189.7001 179.7077,184.8141 188.8817,178.7921" id="Stroke-87"></path>
                <path d="M156.5537,153.4404 C178.3877,146.3304 194.1947,131.1514 212.8287,119.6844" id="Stroke-89"></path>
                <path d="M121.7041,160.1484 C128.7741,165.4324 135.6511,170.9534 142.8131,176.1134" id="Stroke-91"></path>
                <path d="M137.9697,185.9502 C148.1967,195.2902 157.2707,203.7742 172.3817,205.5342" id="Stroke-93"></path>
                <path d="M80.5732,292.9521 C84.4132,291.0201 88.2212,289.0301 92.0752,287.1311" id="Stroke-95"></path>
                <path d="M100.9639,282.9736 C106.1439,280.6816 111.3939,278.6136 116.8019,276.8986" id="Stroke-97"></path>
                <path d="M161.9326,269.6045 C173.3116,268.5825 184.2526,267.0765 195.0246,262.6775" id="Stroke-99"></path>
                <path d="M63.3584,240.3134 C81.4304,223.5664 96.8464,208.5504 124.6574,208.2634" id="Stroke-101"></path>
                <path d="M181.6748,214.6308 C190.6768,213.9768 198.7488,211.5538 206.8508,207.7288" id="Stroke-103"></path>
                <path d="M55.6475,253.4502 C60.8275,254.6792 65.7605,256.5752 70.7925,258.2032" id="Stroke-105"></path>
                <path d="M2.7979,275.8427 C27.6419,285.7817 52.2549,286.9897 78.1809,287.1177" id="Stroke-107"></path>
                <path d="M120.0146,287.709 C131.4036,288.296 142.7606,289.239 154.1376,289.973" id="Stroke-109"></path>
                <path d="M166.4854,290.5078 C171.2354,290.5928 175.9624,290.4818 180.7024,290.0718" id="Stroke-111"></path>
                <path d="M277.7959,68.1338 C286.6239,71.3048 294.7159,70.9408 303.6319,69.2688" id="Stroke-113"></path>
                <path d="M288.5518,18.6211 C293.5768,17.1171 298.5788,15.5551 303.6148,14.1121" id="Stroke-115"></path>
                <path d="M194.3486,86.4922 C211.6296,75.1302 227.7936,65.7722 249.7436,65.0802" id="Stroke-117"></path>
                <path d="M214.7314,31.1484 C232.9304,27.6874 244.4094,34.1014 257.4444,45.2354" id="Stroke-119"></path>
                <path d="M267.042,54.3095 C270.661,58.0145 274.13,61.8395 277.567,65.7075" id="Stroke-121"></path>
                <path d="M70.4873,257.4091 C78.9303,261.5111 87.1473,266.0141 95.3373,270.5931" id="Stroke-123"></path>
                <path d="M145.124,172.292 C173.284,174.776 187.651,156.956 206.87,143.8" id="Stroke-125"></path>
                <path d="M190.9814,111.2256 C208.5024,99.1556 225.2524,88.0216 247.1414,83.9146" id="Stroke-127"></path>
                <path d="M141.8428,179.9404 C148.0478,185.2274 154.3878,190.1324 161.5868,194.0714" id="Stroke-129"></path>
                <path d="M167.7607,202.5449 C174.6927,202.2229 180.5747,200.0609 186.5717,196.8859" id="Stroke-131"></path>
                <path d="M88.0791,261.3847 C97.6651,254.7437 107.4111,249.2517 118.7001,245.8377" id="Stroke-133"></path>
                <path d="M155.6963,241.4424 C168.6433,241.2374 181.1183,240.8804 193.6553,236.3014" id="Stroke-135"></path>
                <path d="M78.1455,176.9648 C99.6225,164.9118 115.4365,170.9058 134.9655,180.7058" id="Stroke-137"></path>
                <path d="M65.1611,270.7939 C68.5851,271.3819 72.0091,271.9639 75.4311,272.5419" id="Stroke-139"></path>
                <path d="M23.3623,261.5302 C36.0593,265.3722 48.9543,267.9382 61.9733,270.2402" id="Stroke-141"></path>
                <path d="M12.1182,298.9541 C38.4012,305.9211 61.7942,301.3031 86.8882,295.5671" id="Stroke-143"></path>
                <path d="M145.6064,286.0927 C158.8194,285.5037 171.9464,285.4047 185.0344,282.4557" id="Stroke-145"></path>
                <path d="M265.6787,45.8808 C279.3017,47.1258 291.2097,43.4238 303.7197,39.5448" id="Stroke-147"></path>
                <path d="M198.3154,58.8672 C219.9264,46.5382 237.4754,39.8902 262.0864,52.4382" id="Stroke-149"></path>
                <path d="M227.6631,22.123 C229.8801,23.444 231.9811,24.902 234.0341,26.466" id="Stroke-151"></path>
                <path d="M245.124,36.4101 C249.548,40.9031 253.688,45.6381 257.782,50.4291" id="Stroke-153"></path>
                <path d="M265.2236,59.1914 C270.6276,65.5154 276.0396,71.7624 282.2566,77.3494" id="Stroke-155"></path>
                <path d="M288.2881,82.2617 C288.8761,82.6927 289.4791,83.1127 290.0931,83.5167" id="Stroke-157"></path>
                <path d="M73.3896,268.8642 C82.9366,273.5302 92.0656,278.8702 101.1186,284.3832" id="Stroke-159"></path>
                <path d="M72.0576,253.8789 C82.6666,258.6219 93.0776,263.7429 103.5086,268.8399" id="Stroke-161"></path>
                <path d="M166.4854,290.5927 C162.3624,290.4127 158.2534,290.1927 154.1374,289.9727" id="Stroke-163"></path>
                <path d="M149.3135,289.7021 C136.1785,288.9841 123.2335,288.8941 110.1335,290.7961" id="Stroke-165"></path>
                <path d="M234.0439,26.455 C241.0439,31.679 247.8579,37.103 254.5149,42.759" id="Stroke-167"></path>
                <path d="M257.4443,45.2383 C262.4153,49.4613 267.3373,53.7353 272.2863,57.9833" id="Stroke-169"></path>
                <path d="M288.208,82.3955 C286.192,80.7435 284.218,79.0625 282.253,77.3555" id="Stroke-171"></path>
                <path d="M278.5967,74.1455 C273.0767,69.2085 267.6517,64.1855 262.2957,59.0795" id="Stroke-173"></path>
                <path d="M173.7607,206.0107 C158.6147,205.9927 148.3997,199.5177 137.3467,190.6837" id="Stroke-175"></path>
                <path d="M137.874,172.2812 C139.274,173.3792 140.675,174.4532 142.099,175.5132" id="Stroke-177"></path>
                <path d="M58.8057,248.1318 C63.2547,249.9788 67.6707,251.8858 72.0717,253.8568" id="Stroke-179"></path>
                <path d="M88.3936,261.3457 C92.8666,263.4317 97.3326,265.5137 101.8176,267.5717" id="Stroke-181"></path>
                <path d="M86.9561,295.7353 C72.5031,299.6753 58.4091,304.6943 43.5241,307.1973" id="Stroke-183"></path>
            </g>
        </g>
    </g>
</svg>