<?xml version="1.0" encoding="UTF-8"?>
<svg width="312px" height="123px" viewBox="0 0 312 123" version="1.1" xmlns="http://www.w3.org/2000/svg" xmlns:xlink="http://www.w3.org/1999/xlink">
    <!-- Generator: Sketch 50.2 (55047) - http://www.bohemiancoding.com/sketch -->
    <title>Group</title>
    <desc>Created with Sketch.</desc>
    <defs></defs>
    <g id="Islas-black" stroke="none" stroke-width="1" fill="none" fill-rule="evenodd">
        <g id="Factores-home-black" transform="translate(-991.000000, -505.000000)" stroke="#E63A66" stroke-width="2.179">
            <g id="Group" transform="translate(993.000000, 506.000000)">
                <path d="M1.002,61.4328 C0.17,74.5168 -3.768,89.2708 14.973,89.6238 C24.115,89.7938 28.529,79.0478 39.057,82.4788 C59.727,89.2068 78.584,99.7028 98.477,108.0078 C146.875,128.2138 180.209,127.3218 214.26,82.8338 C227.57,65.4498 240.772,76.6308 255.34,81.4698 C260.703,83.2508 265.467,79.6088 270.881,81.7038 C281.836,85.9498 292.809,87.7008 304.42,88.2688 C315.328,88.7988 298.801,77.8878 290.93,78.9918 C258.354,83.5688 201.459,33.3388 179.783,21.5688" id="Stroke-1"></path>
                <path d="M179.4473,21.3869 C164.7033,13.4099 154.7033,-1.3901 134.0293,0.2099 C117.5083,1.4899 104.6763,14.0749 86.1643,10.2119 C63.2933,5.4319 55.6793,22.5959 42.5043,33.6919 C29.6273,44.5399 12.6813,48.0269 1.0023,61.4359" id="Stroke-3"></path>
                <path d="M2.0879,78.5862 C40.5799,65.0502 64.0649,35.2142 94.2829,12.4282" id="Stroke-5"></path>
                <path d="M46.7109,85.259 C53.0819,89.797 59.4939,93.595 67.1369,95.798" id="Stroke-7"></path>
                <path d="M71.8965,96.8801 C106.9645,102.7041 121.2325,79.3231 142.3205,61.1581 C165.0725,41.5551 183.1265,25.0931 214.2555,45.0641" id="Stroke-9"></path>
                <path d="M18.6816,89.4807 C20.7906,89.9157 22.9086,90.1917 25.0646,90.3147" id="Stroke-11"></path>
                <path d="M48.9121,86.1741 C75.9221,75.9421 138.0781,4.6921 179.4331,21.4251" id="Stroke-13"></path>
                <path d="M104.1777,110.3293 C105.3377,110.8973 106.5157,111.4313 107.7147,111.9053" id="Stroke-15"></path>
                <path d="M118.0508,114.5891 C152.3398,118.4821 165.0098,92.2641 186.7868,77.5291 C214.3318,58.8871 234.5428,66.3321 260.2458,80.8441" id="Stroke-17"></path>
                <path d="M7.5469,88.3215 C14.4009,87.9155 20.6839,86.2125 27.0039,83.7135" id="Stroke-19"></path>
                <path d="M33.5195,80.844 C75.4865,60.525 92.9625,10.222 149.3165,6.097" id="Stroke-21"></path>
                <path d="M4.6602,57.3996 C13.8652,52.3376 22.4352,46.4316 30.8592,40.2116" id="Stroke-23"></path>
                <path d="M89.1113,103.9192 C120.8283,115.2872 156.6973,74.2972 175.1873,61.1162 C213.1583,34.0652 235.6013,63.8802 264.6523,79.1462" id="Stroke-25"></path>
                <path d="M26.9629,83.9416 C34.1309,88.3306 41.2209,91.3926 49.7599,92.2316" id="Stroke-27"></path>
                <path d="M60.9824,91.9885 C103.5724,86.2085 149.9474,1.3645 206.2614,39.9205" id="Stroke-29"></path>
                <path d="M121.6367,115.4944 C125.1447,117.2984 128.7127,118.7324 132.5487,119.6914" id="Stroke-31"></path>
                <path d="M145.5625,120.758 C173.5235,118.279 188.1095,96.233 211.1505,87.051" id="Stroke-33"></path>
                <path d="M134.4961,120.1428 C125.1821,118.4338 116.4411,115.4188 107.7151,111.9058" id="Stroke-35"></path>
                <path d="M78.5195,99.6545 C69.1715,95.9815 59.7465,93.4905 49.7595,92.2285" id="Stroke-37"></path>
                <path d="M46.5859,91.8498 C35.4999,90.6508 24.3629,90.3978 13.2639,89.5488" id="Stroke-39"></path>
                <path d="M209.0605,41.9016 C208.6675,41.6246 208.2755,41.3516 207.8785,41.0796" id="Stroke-41"></path>
                <path d="M206.2402,39.9524 C215.9632,46.2634 225.6152,52.6574 235.0132,59.4584 C239.7112,62.8544 244.3882,66.2734 249.1812,69.5324 C253.9652,72.7834 274.3672,83.4824 264.0002,78.4434" id="Stroke-43"></path>
            </g>
        </g>
    </g>
</svg>