<?xml version="1.0" encoding="UTF-8"?>
<svg width="234px" height="260px" viewBox="0 0 234 260" version="1.1" xmlns="http://www.w3.org/2000/svg" xmlns:xlink="http://www.w3.org/1999/xlink">
    <!-- Generator: Sketch 50.2 (55047) - http://www.bohemiancoding.com/sketch -->
    <title>Group</title>
    <desc>Created with Sketch.</desc>
    <defs></defs>
    <g id="Islas-black" stroke="none" stroke-width="1" fill="none" fill-rule="evenodd">
        <g id="Factores-home-black" transform="translate(-1160.000000, -247.000000)" stroke="#E63A66" stroke-width="2.179">
            <g id="Group" transform="translate(1161.000000, 248.000000)">
                <path d="M185.1846,24.9388 C183.9246,24.8068 182.6706,24.6638 181.4146,24.5098" id="Stroke-1"></path>
                <path d="M191.6064,40.3821 C192.7784,40.2541 193.9564,40.1391 195.1294,40.0221" id="Stroke-3"></path>
                <path d="M195.46,39.9817 C201.575,39.3367 206.042,36.1957 210.939,33.1977" id="Stroke-5"></path>
                <path d="M210.9385,33.1976 C204.2625,33.2406 198.7115,29.4776 192.0475,29.4776" id="Stroke-7"></path>
                <path d="M187.4443,26.4456 C186.6453,26.0646 183.6553,25.2466 185.3503,24.9566" id="Stroke-9"></path>
                <path d="M126.7549,1.0374 C125.0069,1.4944 123.9989,-0.5646 122.1459,0.3074" id="Stroke-11"></path>
                <path d="M122.1455,0.3089 C121.5595,0.9599 120.9545,1.5899 120.3385,2.2099 C119.6515,2.9109 118.9565,3.5899 118.2375,4.2539 C115.9075,6.4049 113.4165,8.3629 111.0515,10.4779 C109.8995,11.5099 108.7825,12.5849 107.7005,13.6949 C105.0795,16.3979 102.7175,19.3569 100.5835,22.4629" id="Stroke-13"></path>
                <path d="M100.5771,22.4612 C87.0461,51.0992 83.1551,82.8862 57.3061,106.9552" id="Stroke-15"></path>
                <path d="M28.2197,121.0638 C21.9447,121.7368 15.5577,127.4468 10.0327,119.4908" id="Stroke-17"></path>
                <path d="M10.0322,119.4905 C5.8842,121.4395 -0.1808,120.7555 0.0982,127.7695" id="Stroke-19"></path>
                <path d="M0.0986,127.7698 C3.0286,131.1198 6.0026,126.2088 9.0776,128.5558" id="Stroke-21"></path>
                <path d="M9.0771,128.555 C10.1821,131.369 8.6491,132.583 6.6411,134.083" id="Stroke-23"></path>
                <path d="M6.6416,134.0804 C7.2026,133.9384 7.7876,133.8534 8.3736,133.7584 C9.0496,133.6444 9.7216,133.5254 10.3976,133.4254 C13.4186,132.9744 16.5306,132.8994 19.5346,132.2984 C22.6786,131.6764 25.7056,130.4764 28.8586,129.8814" id="Stroke-25"></path>
                <path d="M28.8584,129.8811 C27.1104,124.0951 27.6224,119.3711 30.1984,113.9641" id="Stroke-27"></path>
                <path d="M38.8018,90.9456 C32.0718,86.4006 26.5498,86.5016 19.3138,89.4936" id="Stroke-29"></path>
                <path d="M19.3135,89.4964 C23.9135,97.9544 17.6675,113.7704 34.1125,114.2664" id="Stroke-31"></path>
                <path d="M34.1123,114.263 C27.6433,119.626 33.1283,127.373 27.7743,132.992" id="Stroke-33"></path>
                <path d="M27.7744,132.9895 C28.1704,132.9815 28.5674,133.0045 28.9604,133.0825 C29.2644,133.1475 29.5674,133.2555 29.8354,133.4215 C30.0674,133.5665 30.2764,133.7615 30.4154,133.9925 C30.5654,134.2475 30.6374,134.5355 30.6704,134.8275 C30.7704,135.6435 30.5574,136.4435 30.2824,137.2135 C29.8524,138.3995 29.2644,139.5085 28.6314,140.5875 C27.8134,141.9765 26.9014,143.3135 25.9444,144.6135 C24.7314,146.2715 23.4424,147.8745 22.1104,149.4385 C19.5224,152.4585 16.7624,155.3385 13.7804,157.9705 C12.4564,159.1355 11.0964,160.2595 9.6614,161.2925 C8.4874,162.1275 7.2764,162.9105 5.9994,163.5715" id="Stroke-35"></path>
                <path d="M5.999,163.5716 C11.034,163.1606 14.624,158.7316 20.413,160.1626" id="Stroke-37"></path>
                <path d="M20.417,160.1624 C18.276,162.6694 16.355,165.1634 15.192,168.3484" id="Stroke-39"></path>
                <path d="M15.1924,168.3479 C20.0124,171.0549 19.3994,159.8199 23.9404,163.9109" id="Stroke-41"></path>
                <path d="M23.9424,163.9114 C27.6394,178.6434 61.2724,179.9584 45.0984,200.6624" id="Stroke-43"></path>
                <path d="M45.0986,200.6624 C55.8836,208.1454 70.7916,195.8194 79.5366,211.1604" id="Stroke-45"></path>
                <path d="M79.5361,211.1604 C93.2721,217.4294 99.5631,234.0784 118.7371,233.2124" id="Stroke-47"></path>
                <path d="M118.7373,233.2122 C119.0943,233.9282 119.4973,234.6162 119.9483,235.2782 C120.3393,235.8492 120.7743,236.3872 121.2473,236.8892 C121.6693,237.3402 122.1203,237.7572 122.5983,238.1532 C123.7373,239.1062 124.9933,239.9192 126.0923,240.9212 C126.7393,241.5102 127.3233,242.1592 127.8483,242.8622 C128.4933,243.7152 129.0283,244.6432 129.5073,245.6002 C130.1203,246.8342 130.6143,248.1152 131.0553,249.4142" id="Stroke-49"></path>
                <path d="M131.0557,249.4153 C140.7277,246.9433 143.8797,256.9313 151.9987,257.4673" id="Stroke-51"></path>
                <path d="M151.999,257.4671 C150.581,253.5431 140.374,250.8941 146.917,246.0981" id="Stroke-53"></path>
                <path d="M146.917,246.1009 C160.735,241.5939 161.497,227.3589 171.774,220.3799" id="Stroke-55"></path>
                <path d="M171.7744,220.3802 C170.0674,217.7382 170.7534,213.8092 166.5204,212.5442" id="Stroke-57"></path>
                <path d="M166.5225,212.5442 C169.4185,204.6902 173.7495,197.6492 164.0325,191.8952" id="Stroke-59"></path>
                <path d="M167.8584,206.6136 C170.6334,209.8016 173.6494,211.5486 177.7974,212.3636" id="Stroke-61"></path>
                <path d="M177.7979,212.3645 C172.7059,230.4265 193.8549,227.2845 205.4209,217.7815" id="Stroke-63"></path>
                <path d="M205.1592,218.0257 C197.3972,221.0147 204.5302,209.7687 205.5422,205.5537 C206.5612,201.3347 207.9192,197.2417 209.4622,193.1867 C212.5572,185.0737 216.2742,177.2937 220.2962,169.6067" id="Stroke-65"></path>
                <path d="M220.2959,169.6087 C226.8799,139.2717 237.0659,111.2817 228.0049,78.3317" id="Stroke-67"></path>
                <path d="M228.0049,78.3313 C220.9209,69.1263 211.8409,62.4633 203.2589,55.0383 C198.8779,51.2513 195.1299,47.2773 192.4089,42.0313 C189.9009,37.2093 195.7859,31.3093 189.3699,27.1643" id="Stroke-69"></path>
                <path d="M189.3662,27.1644 C180.0482,23.4704 154.8312,27.1744 165.4232,11.1524" id="Stroke-71"></path>
                <path d="M165.4229,11.1546 C154.5299,5.9866 143.2079,3.6776 131.5659,1.5416" id="Stroke-73"></path>
                <path d="M190.2471,34.0608 C194.3291,33.7028 198.3291,33.1148 202.2921,32.0588" id="Stroke-75"></path>
                <path d="M190.9971,38.9446 C195.0241,38.5806 198.9971,38.1026 202.9311,37.0606" id="Stroke-77"></path>
                <path d="M48.4307,189.5726 C101.2257,169.4406 117.2447,233.1486 165.1627,226.3276" id="Stroke-79"></path>
                <path d="M30.6494,135.8401 C45.3444,123.7831 56.7294,111.8031 78.9014,118.4691" id="Stroke-81"></path>
                <path d="M79.2881,118.5892 C80.4071,118.9402 81.4991,119.3482 82.5791,119.8182" id="Stroke-83"></path>
                <path d="M168.6943,222.7327 C171.7513,223.8297 174.7433,224.2927 177.9973,224.1467" id="Stroke-85"></path>
                <path d="M26.3467,168.4251 C95.3817,109.0131 103.7197,148.4031 160.0867,189.2551" id="Stroke-87"></path>
                <path d="M160.9463,189.8694 C161.8823,190.5264 162.8273,191.1654 163.7883,191.7834" id="Stroke-89"></path>
                <path d="M20.8115,99.6038 C39.4365,95.0398 49.2455,103.6858 61.1655,115.2848" id="Stroke-91"></path>
                <path d="M167.9385,205.2708 C192.5985,199.5628 204.7085,181.5428 220.9895,166.4318" id="Stroke-93"></path>
                <path d="M33.0479,115.3392 C40.6499,112.3442 47.3099,111.4312 55.3269,114.1102" id="Stroke-95"></path>
                <path d="M186.042,229.0306 C192.733,225.6596 198.563,221.3006 204.337,216.6326" id="Stroke-97"></path>
                <path d="M121.2607,148.553 C170.4407,124.231 148.5517,66.706 191.0517,39.082" id="Stroke-99"></path>
                <path d="M40.3291,92.0872 C41.6511,93.0512 42.9341,94.0492 44.2001,95.0852" id="Stroke-101"></path>
                <path d="M141.9775,172.2806 C170.3935,169.1726 176.8275,148.8546 188.5775,129.3086 C193.6515,120.8596 213.7645,80.6496 228.1185,78.7606" id="Stroke-103"></path>
                <path d="M8.874,131.6507 C15.466,130.3907 22.101,130.0007 28.761,129.5337" id="Stroke-105"></path>
                <path d="M64.1943,114.7728 C95.1843,80.9608 92.4093,31.9608 131.4303,1.1718" id="Stroke-107"></path>
                <path d="M28.3154,127.3675 C29.5864,127.5855 30.8384,127.8475 32.0924,128.1375" id="Stroke-109"></path>
                <path d="M97.6689,127.1077 C106.2429,116.8787 145.7429,18.3997 164.7959,13.6977" id="Stroke-111"></path>
                <path d="M77.7432,208.5726 C84.3132,211.9096 89.7802,216.4096 95.1842,221.2636" id="Stroke-113"></path>
                <path d="M147.3779,256.012 C148.7159,256.167 150.0559,256.251 151.4009,256.278" id="Stroke-115"></path>
                <path d="M19.3721,159.9935 C47.8971,133.2795 72.1221,101.3485 111.0071,137.9655" id="Stroke-117"></path>
                <path d="M38.501,176.9085 C93.368,140.1075 124.278,196.2525 167.892,202.7055" id="Stroke-119"></path>
                <path d="M23.0439,110.6497 C35.9779,105.3297 45.4539,106.6697 56.8699,114.4857" id="Stroke-121"></path>
                <path d="M177.2783,221.5882 C188.4663,217.9612 197.0403,211.2852 205.8913,204.1712" id="Stroke-123"></path>
                <path d="M34.5635,123.0745 C43.6145,117.5535 51.6985,113.6335 63.0145,115.4915" id="Stroke-125"></path>
                <path d="M63.4424,115.5647 C63.8894,115.6467 64.3274,115.7357 64.7744,115.8397" id="Stroke-127"></path>
                <path d="M161.0947,231.9886 C173.8237,237.7756 182.3077,233.4996 192.7057,226.7796" id="Stroke-129"></path>
                <path d="M131.2939,160.0218 C165.3599,153.1858 186.5029,73.6588 206.5399,57.7738" id="Stroke-131"></path>
                <path d="M20.2588,89.1214 C42.8428,88.0854 52.1828,101.9184 64.7748,115.8394" id="Stroke-133"></path>
                <path d="M158.4658,188.0569 C198.4798,178.9209 204.0248,141.5349 229.3428,120.7699" id="Stroke-135"></path>
                <path d="M19.751,132.2894 C22.579,132.2364 25.38,132.3344 28.194,132.5464" id="Stroke-137"></path>
                <path d="M82.5752,119.8196 C93.4292,106.0356 128.3022,14.8766 149.2512,5.3926" id="Stroke-139"></path>
                <path d="M29.5791,115.4505 C30.5111,115.7485 31.4311,116.0655 32.3491,116.3975" id="Stroke-141"></path>
                <path d="M111.0068,137.9866 C123.2468,127.3186 157.2368,26.1556 182.1398,24.7236" id="Stroke-143"></path>
                <path d="M1.5576,124.9485 C6.4636,123.7085 11.4266,122.8665 16.4096,122.0235" id="Stroke-145"></path>
                <path d="M93.5479,38.0686 C98.8429,28.5586 104.3159,19.2486 110.9599,10.5626" id="Stroke-147"></path>
                <path d="M195.46,39.9817 C195.349,39.9947 195.241,40.0097 195.13,40.0217" id="Stroke-149"></path>
                <path d="M38.8018,90.9456 C49.0438,98.0066 57.4288,106.6116 65.5658,115.8456" id="Stroke-151"></path>
                <path d="M27.4795,132.6429 C24.0905,132.4789 20.7175,132.5069 17.3295,132.7259" id="Stroke-153"></path>
                <path d="M205.1826,218.0472 C191.4346,229.7532 180.9266,241.3812 159.9486,233.7892" id="Stroke-155"></path>
                <path d="M55.3291,114.0931 C51.6751,112.5741 59.1961,114.9371 61.1651,115.2171" id="Stroke-157"></path>
                <path d="M63.0205,115.4876 C67.2455,116.0176 71.4165,116.7236 75.5815,117.6096" id="Stroke-159"></path>
                <path d="M78.9111,118.4515 C90.1471,121.5375 98.9871,127.0805 107.5111,134.7685" id="Stroke-161"></path>
                <path d="M111.0068,137.9642 C126.3758,152.5702 138.2488,170.1922 154.0788,184.4402" id="Stroke-163"></path>
                <path d="M160.0869,189.2571 C161.3699,190.1901 162.6789,191.0691 164.0319,191.8981" id="Stroke-165"></path>
            </g>
        </g>
    </g>
</svg>